STARTFONT 2.3
FONT -FontForge-Source Sans Pro-Bold-R-Normal-SansPro--9-90-72-72-P-47-ISO10646-1
SIZE 9 72 72  2
FONTBOUNDINGBOX 24 14 -4 -3
COMMENT "Generated by fontforge, http://fontforge.sourceforge.net"
COMMENT "Copyright 2010, 2012, 2014 Adobe Systems Incorporated (http://www.adobe.com/), with Reserved Font Name `Source'."
STARTPROPERTIES 41
FOUNDRY "FontForge"
FAMILY_NAME "Source Sans Pro"
WEIGHT_NAME "Bold"
SLANT "R"
SETWIDTH_NAME "Normal"
ADD_STYLE_NAME "SansPro"
PIXEL_SIZE 9
POINT_SIZE 90
RESOLUTION_X 72
RESOLUTION_Y 72
SPACING "P"
AVERAGE_WIDTH 47
CHARSET_REGISTRY "ISO10646"
CHARSET_ENCODING "1"
FONTNAME_REGISTRY ""
CHARSET_COLLECTIONS "ISO8859-2 ISO8859-5 ISO8859-7 ISO8859-9 ISO8859-4 ISO10646-1"
BITS_PER_PIXEL 2
FONT_NAME "SourceSansPro-Bold"
FACE_NAME "Source Sans Pro Bold"
COPYRIGHT "Copyright 2010, 2012, 2014 Adobe Systems Incorporated (http://www.adobe.com/), with Reserved Font Name `Source'."
FONT_VERSION "2.021;PS 2.000;hotconv 1.0.86;makeotf.lib2.5.63406"
FONT_ASCENT 7
FONT_DESCENT 2
UNDERLINE_POSITION -1
UNDERLINE_THICKNESS 1
X_HEIGHT 3
CAP_HEIGHT 5
RAW_ASCENT 750
RAW_DESCENT 250
NORM_SPACE 2
RELATIVE_WEIGHT 70
RELATIVE_SETWIDTH 50
SUPERSCRIPT_X 0
SUPERSCRIPT_Y 3
SUPERSCRIPT_SIZE 5
SUBSCRIPT_X 0
SUBSCRIPT_Y 0
SUBSCRIPT_SIZE 5
FIGURE_WIDTH 5
AVG_LOWERCASE_WIDTH 48
AVG_UPPERCASE_WIDTH 57
ENDPROPERTIES
CHARS 1896
STARTCHAR space
ENCODING 32
SWIDTH 200 0
DWIDTH 2 0
BBX 1 1 0 0
BITMAP
00
ENDCHAR
STARTCHAR exclam
ENCODING 33
SWIDTH 340 0
DWIDTH 3 0
BBX 2 7 1 0
BITMAP
D0
C0
C0
C0
00
C0
C0
ENDCHAR
STARTCHAR quotedbl
ENCODING 34
SWIDTH 536 0
DWIDTH 5 0
BBX 4 3 0 3
BITMAP
77
73
23
ENDCHAR
STARTCHAR numbersign
ENCODING 35
SWIDTH 528 0
DWIDTH 5 0
BBX 5 6 0 0
BITMAP
1100
2200
BF40
BF40
2500
6500
ENDCHAR
STARTCHAR dollar
ENCODING 36
SWIDTH 528 0
DWIDTH 5 0
BBX 4 8 0 -1
BITMAP
08
2E
71
78
0B
17
7E
08
ENDCHAR
STARTCHAR percent
ENCODING 37
SWIDTH 857 0
DWIDTH 8 0
BBX 8 6 0 0
BITMAP
7860
9C80
9DAC
7A69
0569
082C
ENDCHAR
STARTCHAR ampersand
ENCODING 38
SWIDTH 667 0
DWIDTH 6 0
BBX 6 6 0 0
BITMAP
1E00
3700
3650
3D90
A7D0
7D60
ENDCHAR
STARTCHAR quotesingle
ENCODING 39
SWIDTH 300 0
DWIDTH 3 0
BBX 2 3 0 3
BITMAP
70
70
20
ENDCHAR
STARTCHAR parenleft
ENCODING 40
SWIDTH 344 0
DWIDTH 3 0
BBX 3 8 0 -2
BITMAP
14
34
70
60
60
70
34
14
ENDCHAR
STARTCHAR parenright
ENCODING 41
SWIDTH 344 0
DWIDTH 3 0
BBX 3 8 0 -2
BITMAP
50
30
24
24
24
24
30
50
ENDCHAR
STARTCHAR asterisk
ENCODING 42
SWIDTH 457 0
DWIDTH 4 0
BBX 4 3 0 3
BITMAP
14
7D
38
ENDCHAR
STARTCHAR plus
ENCODING 43
SWIDTH 528 0
DWIDTH 5 0
BBX 5 5 0 0
BITMAP
0800
0C00
BF40
0C00
0800
ENDCHAR
STARTCHAR comma
ENCODING 44
SWIDTH 300 0
DWIDTH 3 0
BBX 2 3 0 -2
BITMAP
70
20
50
ENDCHAR
STARTCHAR hyphen
ENCODING 45
SWIDTH 332 0
DWIDTH 3 0
BBX 3 1 0 2
BITMAP
B8
ENDCHAR
STARTCHAR period
ENCODING 46
SWIDTH 300 0
DWIDTH 3 0
BBX 2 2 0 0
BITMAP
70
70
ENDCHAR
STARTCHAR slash
ENCODING 47
SWIDTH 339 0
DWIDTH 3 0
BBX 3 8 0 -2
BITMAP
18
14
24
30
20
60
90
80
ENDCHAR
STARTCHAR zero
ENCODING 48
SWIDTH 528 0
DWIDTH 5 0
BBX 5 6 0 0
BITMAP
2E00
6340
A340
A340
6300
2E00
ENDCHAR
STARTCHAR one
ENCODING 49
SWIDTH 528 0
DWIDTH 5 0
BBX 5 6 0 0
BITMAP
1D00
7D00
0D00
0D00
0D00
7F40
ENDCHAR
STARTCHAR two
ENCODING 50
SWIDTH 528 0
DWIDTH 5 0
BBX 5 6 0 0
BITMAP
7D00
5700
0700
1D00
7800
BF40
ENDCHAR
STARTCHAR three
ENCODING 51
SWIDTH 528 0
DWIDTH 5 0
BBX 5 6 0 0
BITMAP
7E00
1700
2E00
0740
4740
7E00
ENDCHAR
STARTCHAR four
ENCODING 52
SWIDTH 528 0
DWIDTH 5 0
BBX 5 6 0 0
BITMAP
0F00
2F00
3B00
A700
BF80
0700
ENDCHAR
STARTCHAR five
ENCODING 53
SWIDTH 528 0
DWIDTH 5 0
BBX 5 6 0 0
BITMAP
7F00
7000
7E00
0740
4740
7E00
ENDCHAR
STARTCHAR six
ENCODING 54
SWIDTH 528 0
DWIDTH 5 0
BBX 5 6 0 0
BITMAP
2E00
7100
BE00
A340
7340
2E00
ENDCHAR
STARTCHAR seven
ENCODING 55
SWIDTH 528 0
DWIDTH 5 0
BBX 5 6 0 0
BITMAP
BF40
0700
0D00
1C00
1C00
2800
ENDCHAR
STARTCHAR eight
ENCODING 56
SWIDTH 528 0
DWIDTH 5 0
BBX 5 6 0 0
BITMAP
2E00
7300
3A00
6B00
A340
2E00
ENDCHAR
STARTCHAR nine
ENCODING 57
SWIDTH 528 0
DWIDTH 5 0
BBX 5 6 0 0
BITMAP
2D00
A700
A340
7F40
0700
7D00
ENDCHAR
STARTCHAR colon
ENCODING 58
SWIDTH 300 0
DWIDTH 3 0
BBX 2 5 0 0
BITMAP
70
70
00
70
70
ENDCHAR
STARTCHAR semicolon
ENCODING 59
SWIDTH 300 0
DWIDTH 3 0
BBX 2 7 0 -2
BITMAP
70
70
00
00
70
20
50
ENDCHAR
STARTCHAR less
ENCODING 60
SWIDTH 528 0
DWIDTH 5 0
BBX 5 4 0 1
BITMAP
0640
7900
7900
0640
ENDCHAR
STARTCHAR equal
ENCODING 61
SWIDTH 528 0
DWIDTH 5 0
BBX 5 3 0 1
BITMAP
BF40
0000
BF40
ENDCHAR
STARTCHAR greater
ENCODING 62
SWIDTH 528 0
DWIDTH 5 0
BBX 5 4 0 1
BITMAP
A400
1A40
1A40
A400
ENDCHAR
STARTCHAR question
ENCODING 63
SWIDTH 463 0
DWIDTH 4 0
BBX 4 6 0 0
BITMAP
7D
0A
18
00
28
28
ENDCHAR
STARTCHAR at
ENCODING 64
SWIDTH 903 0
DWIDTH 8 0
BBX 8 8 0 -2
BITMAP
07E4
291C
32E6
56A6
9995
67B8
3400
0BD0
ENDCHAR
STARTCHAR A
ENCODING 65
SWIDTH 573 0
DWIDTH 5 0
BBX 5 6 0 0
BITMAP
1E00
2B00
3700
7340
BF80
D1C0
ENDCHAR
STARTCHAR B
ENCODING 66
SWIDTH 605 0
DWIDTH 5 0
BBX 5 6 0 0
BITMAP
7F40
7280
7F40
71C0
71C0
7F40
ENDCHAR
STARTCHAR C
ENCODING 67
SWIDTH 582 0
DWIDTH 5 0
BBX 5 6 0 0
BITMAP
1F80
7440
B000
A000
7440
1F80
ENDCHAR
STARTCHAR D
ENCODING 68
SWIDTH 635 0
DWIDTH 6 0
BBX 6 6 0 0
BITMAP
7E40
72C0
70D0
70D0
72C0
7E40
ENDCHAR
STARTCHAR E
ENCODING 69
SWIDTH 548 0
DWIDTH 5 0
BBX 5 6 0 0
BITMAP
7F40
7000
7F00
7000
7000
7F40
ENDCHAR
STARTCHAR F
ENCODING 70
SWIDTH 524 0
DWIDTH 5 0
BBX 5 6 0 0
BITMAP
7F40
7000
7000
7F00
7000
7000
ENDCHAR
STARTCHAR G
ENCODING 71
SWIDTH 638 0
DWIDTH 6 0
BBX 6 6 0 0
BITMAP
1F80
7440
B000
A3D0
74D0
1F80
ENDCHAR
STARTCHAR H
ENCODING 72
SWIDTH 674 0
DWIDTH 6 0
BBX 6 6 0 0
BITMAP
70D0
70D0
7FD0
70D0
70D0
70D0
ENDCHAR
STARTCHAR I
ENCODING 73
SWIDTH 301 0
DWIDTH 3 0
BBX 2 6 0 0
BITMAP
70
70
70
70
70
70
ENDCHAR
STARTCHAR J
ENCODING 74
SWIDTH 509 0
DWIDTH 5 0
BBX 4 6 0 0
BITMAP
07
07
07
07
5A
7D
ENDCHAR
STARTCHAR K
ENCODING 75
SWIDTH 614 0
DWIDTH 6 0
BBX 6 6 0 0
BITMAP
72C0
7740
7E00
7B00
7280
71D0
ENDCHAR
STARTCHAR L
ENCODING 76
SWIDTH 518 0
DWIDTH 5 0
BBX 5 6 0 0
BITMAP
7000
7000
7000
7000
7000
7F40
ENDCHAR
STARTCHAR M
ENCODING 77
SWIDTH 762 0
DWIDTH 7 0
BBX 7 6 0 0
BITMAP
7474
78B4
6DF4
7AB4
7774
7134
ENDCHAR
STARTCHAR N
ENCODING 78
SWIDTH 665 0
DWIDTH 6 0
BBX 6 6 0 0
BITMAP
74D0
78D0
79D0
76D0
72D0
71D0
ENDCHAR
STARTCHAR O
ENCODING 79
SWIDTH 684 0
DWIDTH 6 0
BBX 6 6 0 0
BITMAP
1F80
74D0
A0A0
A0A0
74D0
1F80
ENDCHAR
STARTCHAR P
ENCODING 80
SWIDTH 596 0
DWIDTH 5 0
BBX 5 6 0 0
BITMAP
7F40
71C0
71C0
7F40
7000
7000
ENDCHAR
STARTCHAR Q
ENCODING 81
SWIDTH 684 0
DWIDTH 6 0
BBX 6 8 0 -2
BITMAP
1F80
74D0
A0A0
A0A0
74D0
2F80
0740
01F0
ENDCHAR
STARTCHAR R
ENCODING 82
SWIDTH 613 0
DWIDTH 6 0
BBX 5 6 0 0
BITMAP
7F40
71C0
71C0
7F40
7340
71C0
ENDCHAR
STARTCHAR S
ENCODING 83
SWIDTH 556 0
DWIDTH 5 0
BBX 5 6 0 0
BITMAP
2E40
7100
7900
1B40
1280
6E00
ENDCHAR
STARTCHAR T
ENCODING 84
SWIDTH 556 0
DWIDTH 5 0
BBX 5 6 0 0
BITMAP
BF80
0D00
0D00
0D00
0D00
0D00
ENDCHAR
STARTCHAR U
ENCODING 85
SWIDTH 665 0
DWIDTH 6 0
BBX 6 6 0 0
BITMAP
70D0
70D0
70D0
70D0
35C0
1F40
ENDCHAR
STARTCHAR V
ENCODING 86
SWIDTH 556 0
DWIDTH 5 0
BBX 5 6 0 0
BITMAP
D1C0
A280
7340
3700
2E00
1D00
ENDCHAR
STARTCHAR W
ENCODING 87
SWIDTH 813 0
DWIDTH 7 0
BBX 7 6 0 0
BITMAP
A34C
A79C
7698
79E8
3CB4
3CB4
ENDCHAR
STARTCHAR X
ENCODING 88
SWIDTH 567 0
DWIDTH 5 0
BBX 5 6 0 0
BITMAP
B280
3700
1E00
2E00
3740
A280
ENDCHAR
STARTCHAR Y
ENCODING 89
SWIDTH 525 0
DWIDTH 5 0
BBX 5 6 0 0
BITMAP
E280
7700
3A00
1D00
1C00
1C00
ENDCHAR
STARTCHAR Z
ENCODING 90
SWIDTH 541 0
DWIDTH 5 0
BBX 5 6 0 0
BITMAP
7F80
0740
0E00
2C00
7400
BF80
ENDCHAR
STARTCHAR bracketleft
ENCODING 91
SWIDTH 344 0
DWIDTH 3 0
BBX 3 9 0 -2
BITMAP
78
60
60
60
60
60
60
60
78
ENDCHAR
STARTCHAR backslash
ENCODING 92
SWIDTH 339 0
DWIDTH 3 0
BBX 3 8 0 -2
BITMAP
90
50
60
30
20
24
18
08
ENDCHAR
STARTCHAR bracketright
ENCODING 93
SWIDTH 344 0
DWIDTH 3 0
BBX 3 9 0 -2
BITMAP
B4
24
24
24
24
24
24
24
B4
ENDCHAR
STARTCHAR asciicircum
ENCODING 94
SWIDTH 528 0
DWIDTH 5 0
BBX 4 4 0 2
BITMAP
1C
29
36
63
ENDCHAR
STARTCHAR underscore
ENCODING 95
SWIDTH 500 0
DWIDTH 5 0
BBX 5 1 0 -1
BITMAP
FF40
ENDCHAR
STARTCHAR grave
ENCODING 96
SWIDTH 555 0
DWIDTH 5 0
BBX 2 2 1 5
BITMAP
90
60
ENDCHAR
STARTCHAR a
ENCODING 97
SWIDTH 527 0
DWIDTH 5 0
BBX 5 4 0 0
BITMAP
6E00
3F40
A740
7B40
ENDCHAR
STARTCHAR b
ENCODING 98
SWIDTH 573 0
DWIDTH 5 0
BBX 5 6 0 0
BITMAP
7000
7000
7F40
7280
7280
7F40
ENDCHAR
STARTCHAR c
ENCODING 99
SWIDTH 467 0
DWIDTH 4 0
BBX 4 4 0 0
BITMAP
2E
B0
B0
2E
ENDCHAR
STARTCHAR d
ENCODING 100
SWIDTH 573 0
DWIDTH 5 0
BBX 5 6 0 0
BITMAP
0280
0280
2F80
B280
A380
2E80
ENDCHAR
STARTCHAR e
ENCODING 101
SWIDTH 518 0
DWIDTH 5 0
BBX 5 4 0 0
BITMAP
2E00
BF40
A000
2E00
ENDCHAR
STARTCHAR f
ENCODING 102
SWIDTH 341 0
DWIDTH 3 0
BBX 4 6 0 0
BITMAP
2D
34
BC
70
70
70
ENDCHAR
STARTCHAR g
ENCODING 103
SWIDTH 534 0
DWIDTH 5 0
BBX 5 6 0 -2
BITMAP
7F80
A700
7E00
7F40
A280
7E00
ENDCHAR
STARTCHAR h
ENCODING 104
SWIDTH 571 0
DWIDTH 5 0
BBX 5 6 0 0
BITMAP
7000
7000
7B40
7280
7280
7280
ENDCHAR
STARTCHAR i
ENCODING 105
SWIDTH 276 0
DWIDTH 2 0
BBX 2 7 0 0
BITMAP
10
60
00
70
70
70
70
ENDCHAR
STARTCHAR j
ENCODING 106
SWIDTH 278 0
DWIDTH 3 0
BBX 3 9 -1 -2
BITMAP
04
1C
00
1C
1C
1C
1C
1C
74
ENDCHAR
STARTCHAR k
ENCODING 107
SWIDTH 548 0
DWIDTH 5 0
BBX 5 6 0 0
BITMAP
7000
7000
7740
7D00
7A00
7380
ENDCHAR
STARTCHAR l
ENCODING 108
SWIDTH 286 0
DWIDTH 3 0
BBX 3 6 0 0
BITMAP
70
70
70
70
70
74
ENDCHAR
STARTCHAR m
ENCODING 109
SWIDTH 857 0
DWIDTH 8 0
BBX 8 4 0 0
BITMAP
7FB8
739C
728D
728D
ENDCHAR
STARTCHAR n
ENCODING 110
SWIDTH 572 0
DWIDTH 5 0
BBX 5 4 0 0
BITMAP
7B40
7280
7280
7280
ENDCHAR
STARTCHAR o
ENCODING 111
SWIDTH 555 0
DWIDTH 5 0
BBX 5 4 0 0
BITMAP
2E00
B380
B380
2E00
ENDCHAR
STARTCHAR p
ENCODING 112
SWIDTH 573 0
DWIDTH 5 0
BBX 5 6 0 -2
BITMAP
7F40
7280
7280
7F40
7000
7000
ENDCHAR
STARTCHAR q
ENCODING 113
SWIDTH 573 0
DWIDTH 5 0
BBX 5 6 0 -2
BITMAP
2E80
B380
A280
2F80
0280
0140
ENDCHAR
STARTCHAR r
ENCODING 114
SWIDTH 398 0
DWIDTH 4 0
BBX 4 4 0 0
BITMAP
69
74
70
70
ENDCHAR
STARTCHAR s
ENCODING 115
SWIDTH 443 0
DWIDTH 4 0
BBX 4 4 0 0
BITMAP
7D
74
5A
7D
ENDCHAR
STARTCHAR t
ENCODING 116
SWIDTH 383 0
DWIDTH 3 0
BBX 4 6 0 0
BITMAP
30
30
BC
70
74
2D
ENDCHAR
STARTCHAR u
ENCODING 117
SWIDTH 568 0
DWIDTH 5 0
BBX 5 4 0 0
BITMAP
7280
7280
7380
3E80
ENDCHAR
STARTCHAR v
ENCODING 118
SWIDTH 523 0
DWIDTH 5 0
BBX 5 4 0 0
BITMAP
A240
7300
3A00
2D00
ENDCHAR
STARTCHAR w
ENCODING 119
SWIDTH 776 0
DWIDTH 7 0
BBX 7 4 0 0
BITMAP
A768
7764
39B0
2CF0
ENDCHAR
STARTCHAR x
ENCODING 120
SWIDTH 514 0
DWIDTH 5 0
BBX 5 4 0 0
BITMAP
7700
2D00
3D00
A740
ENDCHAR
STARTCHAR y
ENCODING 121
SWIDTH 521 0
DWIDTH 5 0
BBX 5 6 0 -2
BITMAP
A340
7300
3A00
1D00
1C00
7400
ENDCHAR
STARTCHAR z
ENCODING 122
SWIDTH 460 0
DWIDTH 4 0
BBX 4 4 0 0
BITMAP
7F
1D
74
BF
ENDCHAR
STARTCHAR braceleft
ENCODING 123
SWIDTH 344 0
DWIDTH 3 0
BBX 3 9 0 -2
BITMAP
28
30
30
30
A0
30
30
30
28
ENDCHAR
STARTCHAR bar
ENCODING 124
SWIDTH 268 0
DWIDTH 2 0
BBX 2 9 0 -2
BITMAP
60
60
60
60
60
60
60
60
60
ENDCHAR
STARTCHAR braceright
ENCODING 125
SWIDTH 344 0
DWIDTH 3 0
BBX 3 9 0 -2
BITMAP
B0
30
30
30
28
30
30
30
B0
ENDCHAR
STARTCHAR asciitilde
ENCODING 126
SWIDTH 528 0
DWIDTH 5 0
BBX 5 2 0 2
BITMAP
7540
5B00
ENDCHAR
STARTCHAR uni00A0
ENCODING 160
SWIDTH 208 0
DWIDTH 2 0
BBX 1 1 0 0
BITMAP
00
ENDCHAR
STARTCHAR exclamdown
ENCODING 161
SWIDTH 340 0
DWIDTH 3 0
BBX 2 7 1 -3
BITMAP
C0
C0
00
C0
C0
C0
D0
ENDCHAR
STARTCHAR cent
ENCODING 162
SWIDTH 528 0
DWIDTH 5 0
BBX 4 6 0 0
BITMAP
05
2F
79
79
2F
05
ENDCHAR
STARTCHAR sterling
ENCODING 163
SWIDTH 528 0
DWIDTH 5 0
BBX 5 6 0 0
BITMAP
1F40
3400
7900
6900
3400
BF40
ENDCHAR
STARTCHAR currency
ENCODING 164
SWIDTH 528 0
DWIDTH 5 0
BBX 5 4 0 1
BITMAP
BF40
6340
6340
BF40
ENDCHAR
STARTCHAR yen
ENCODING 165
SWIDTH 528 0
DWIDTH 5 0
BBX 5 6 0 0
BITMAP
A340
7700
2E00
BF40
6E40
1C00
ENDCHAR
STARTCHAR brokenbar
ENCODING 166
SWIDTH 268 0
DWIDTH 2 0
BBX 2 9 0 -2
BITMAP
60
60
60
60
00
60
60
60
60
ENDCHAR
STARTCHAR section
ENCODING 167
SWIDTH 528 0
DWIDTH 5 0
BBX 5 7 0 -1
BITMAP
2E00
3500
6A00
A240
2F00
1B00
7D00
ENDCHAR
STARTCHAR dieresis
ENCODING 168
SWIDTH 555 0
DWIDTH 5 0
BBX 3 1 1 5
BITMAP
CC
ENDCHAR
STARTCHAR copyright
ENCODING 169
SWIDTH 750 0
DWIDTH 7 0
BBX 7 6 0 0
BITMAP
1B90
6460
9B54
9B54
6460
1B80
ENDCHAR
STARTCHAR ordfeminine
ENCODING 170
SWIDTH 359 0
DWIDTH 3 0
BBX 3 3 0 3
BITMAP
B8
9C
78
ENDCHAR
STARTCHAR guillemotleft
ENCODING 171
SWIDTH 480 0
DWIDTH 4 0
BBX 4 4 0 0
BITMAP
26
59
59
26
ENDCHAR
STARTCHAR logicalnot
ENCODING 172
SWIDTH 528 0
DWIDTH 5 0
BBX 5 3 0 0
BITMAP
BF40
0240
0140
ENDCHAR
STARTCHAR uni00AD
ENCODING 173
SWIDTH 332 0
DWIDTH 3 0
BBX 3 1 0 2
BITMAP
B8
ENDCHAR
STARTCHAR registered
ENCODING 174
SWIDTH 462 0
DWIDTH 4 0
BBX 4 6 0 2
BITMAP
2C
56
AE
AA
56
2C
ENDCHAR
STARTCHAR macron
ENCODING 175
SWIDTH 555 0
DWIDTH 5 0
BBX 3 1 1 5
BITMAP
B8
ENDCHAR
STARTCHAR degree
ENCODING 176
SWIDTH 365 0
DWIDTH 3 0
BBX 3 3 0 3
BITMAP
78
98
78
ENDCHAR
STARTCHAR plusminus
ENCODING 177
SWIDTH 528 0
DWIDTH 5 0
BBX 5 6 0 0
BITMAP
0400
0C00
BF40
0C00
0400
BF40
ENDCHAR
STARTCHAR two.sups
ENCODING 178
SWIDTH 376 0
DWIDTH 3 0
BBX 3 4 0 3
BITMAP
78
18
24
BC
ENDCHAR
STARTCHAR three.sups
ENCODING 179
SWIDTH 376 0
DWIDTH 3 0
BBX 3 4 0 3
BITMAP
78
1C
68
78
ENDCHAR
STARTCHAR acute
ENCODING 180
SWIDTH 555 0
DWIDTH 5 0
BBX 2 2 2 5
BITMAP
60
90
ENDCHAR
STARTCHAR uni00B5
ENCODING 181
SWIDTH 594 0
DWIDTH 5 0
BBX 6 5 0 -1
BITMAP
7280
7240
7380
7ED0
7000
ENDCHAR
STARTCHAR paragraph
ENCODING 182
SWIDTH 636 0
DWIDTH 6 0
BBX 5 7 0 -1
BITMAP
2EC0
BEC0
BEC0
2EC0
01C0
01C0
0180
ENDCHAR
STARTCHAR periodcentered
ENCODING 183
SWIDTH 300 0
DWIDTH 3 0
BBX 2 2 0 2
BITMAP
70
70
ENDCHAR
STARTCHAR cedilla
ENCODING 184
SWIDTH 555 0
DWIDTH 5 0
BBX 3 4 1 -3
BITMAP
10
34
24
60
ENDCHAR
STARTCHAR one.sups
ENCODING 185
SWIDTH 376 0
DWIDTH 3 0
BBX 3 4 0 3
BITMAP
74
24
24
24
ENDCHAR
STARTCHAR ordmasculine
ENCODING 186
SWIDTH 373 0
DWIDTH 3 0
BBX 3 3 0 3
BITMAP
78
9C
78
ENDCHAR
STARTCHAR guillemotright
ENCODING 187
SWIDTH 480 0
DWIDTH 4 0
BBX 4 4 0 0
BITMAP
58
26
26
58
ENDCHAR
STARTCHAR onequarter
ENCODING 188
SWIDTH 809 0
DWIDTH 7 0
BBX 8 6 0 0
BITMAP
7450
2480
2568
2668
09BD
0818
ENDCHAR
STARTCHAR onehalf
ENCODING 189
SWIDTH 846 0
DWIDTH 8 0
BBX 8 6 0 0
BITMAP
7490
2480
2678
260C
0828
187D
ENDCHAR
STARTCHAR threequarters
ENCODING 190
SWIDTH 818 0
DWIDTH 7 0
BBX 8 6 0 0
BITMAP
7860
1880
7968
7A68
05BD
0808
ENDCHAR
STARTCHAR questiondown
ENCODING 191
SWIDTH 463 0
DWIDTH 4 0
BBX 4 6 0 -2
BITMAP
18
18
00
28
60
7D
ENDCHAR
STARTCHAR Agrave
ENCODING 192
SWIDTH 573 0
DWIDTH 5 0
BBX 5 8 0 0
BITMAP
2400
1800
1E00
2B00
3700
7340
BF80
D1C0
ENDCHAR
STARTCHAR Aacute
ENCODING 193
SWIDTH 573 0
DWIDTH 5 0
BBX 5 8 0 0
BITMAP
0600
0900
1E00
2B00
3700
7340
BF80
D1C0
ENDCHAR
STARTCHAR Acircumflex
ENCODING 194
SWIDTH 573 0
DWIDTH 5 0
BBX 5 7 0 0
BITMAP
2A00
1E00
2B00
3700
7340
BF80
D1C0
ENDCHAR
STARTCHAR Atilde
ENCODING 195
SWIDTH 573 0
DWIDTH 5 0
BBX 5 9 0 0
BITMAP
0100
2A40
2500
1E00
2B00
3700
7340
BF80
D1C0
ENDCHAR
STARTCHAR Adieresis
ENCODING 196
SWIDTH 573 0
DWIDTH 5 0
BBX 5 7 0 0
BITMAP
2200
1E00
2B00
3700
7340
BF80
D1C0
ENDCHAR
STARTCHAR Aring
ENCODING 197
SWIDTH 573 0
DWIDTH 5 0
BBX 5 8 0 0
BITMAP
1D00
1D00
1E00
2B00
3700
7340
BF80
D1C0
ENDCHAR
STARTCHAR AE
ENCODING 198
SWIDTH 845 0
DWIDTH 8 0
BBX 7 6 0 0
BITMAP
0BFC
0E80
2EF8
3A80
7F80
E2FC
ENDCHAR
STARTCHAR Ccedilla
ENCODING 199
SWIDTH 582 0
DWIDTH 5 0
BBX 5 9 0 -3
BITMAP
1F80
7440
B000
A000
7440
1F80
0600
0300
0900
ENDCHAR
STARTCHAR Egrave
ENCODING 200
SWIDTH 548 0
DWIDTH 5 0
BBX 5 8 0 0
BITMAP
2400
1800
7F40
7000
7F00
7000
7000
7F40
ENDCHAR
STARTCHAR Eacute
ENCODING 201
SWIDTH 548 0
DWIDTH 5 0
BBX 5 8 0 0
BITMAP
0600
0900
7F40
7000
7F00
7000
7000
7F40
ENDCHAR
STARTCHAR Ecircumflex
ENCODING 202
SWIDTH 548 0
DWIDTH 5 0
BBX 5 7 0 0
BITMAP
2A00
7F40
7000
7F00
7000
7000
7F40
ENDCHAR
STARTCHAR Edieresis
ENCODING 203
SWIDTH 548 0
DWIDTH 5 0
BBX 5 7 0 0
BITMAP
2200
7F40
7000
7F00
7000
7000
7F40
ENDCHAR
STARTCHAR Igrave
ENCODING 204
SWIDTH 301 0
DWIDTH 3 0
BBX 2 8 0 0
BITMAP
90
60
70
70
70
70
70
70
ENDCHAR
STARTCHAR Iacute
ENCODING 205
SWIDTH 301 0
DWIDTH 3 0
BBX 3 8 0 0
BITMAP
18
24
70
70
70
70
70
70
ENDCHAR
STARTCHAR Icircumflex
ENCODING 206
SWIDTH 301 0
DWIDTH 3 0
BBX 3 7 0 0
BITMAP
A4
70
70
70
70
70
70
ENDCHAR
STARTCHAR Idieresis
ENCODING 207
SWIDTH 301 0
DWIDTH 3 0
BBX 3 7 0 0
BITMAP
88
70
70
70
70
70
70
ENDCHAR
STARTCHAR Eth
ENCODING 208
SWIDTH 660 0
DWIDTH 6 0
BBX 6 6 0 0
BITMAP
3F40
35D0
BDD0
34D0
35D0
3F40
ENDCHAR
STARTCHAR Ntilde
ENCODING 209
SWIDTH 665 0
DWIDTH 6 0
BBX 6 9 0 0
BITMAP
0040
1E80
2600
74D0
78D0
79D0
76D0
72D0
71D0
ENDCHAR
STARTCHAR Ograve
ENCODING 210
SWIDTH 684 0
DWIDTH 6 0
BBX 6 8 0 0
BITMAP
1800
0900
1F80
74D0
A0A0
A0A0
74D0
1F80
ENDCHAR
STARTCHAR Oacute
ENCODING 211
SWIDTH 684 0
DWIDTH 6 0
BBX 6 8 0 0
BITMAP
0240
0600
1F80
74D0
A0A0
A0A0
74D0
1F80
ENDCHAR
STARTCHAR Ocircumflex
ENCODING 212
SWIDTH 684 0
DWIDTH 6 0
BBX 6 7 0 0
BITMAP
0A40
1F80
74D0
A0A0
A0A0
74D0
1F80
ENDCHAR
STARTCHAR Otilde
ENCODING 213
SWIDTH 684 0
DWIDTH 6 0
BBX 6 9 0 0
BITMAP
0040
1E80
2640
1F80
74D0
A0A0
A0A0
74D0
1F80
ENDCHAR
STARTCHAR Odieresis
ENCODING 214
SWIDTH 684 0
DWIDTH 6 0
BBX 6 7 0 0
BITMAP
1980
1F80
74D0
A0A0
A0A0
74D0
1F80
ENDCHAR
STARTCHAR multiply
ENCODING 215
SWIDTH 528 0
DWIDTH 5 0
BBX 4 4 0 1
BITMAP
62
2E
2E
62
ENDCHAR
STARTCHAR Oslash
ENCODING 216
SWIDTH 684 0
DWIDTH 6 0
BBX 6 6 0 0
BITMAP
1FA0
75D0
A3E0
7DA0
38D0
6F80
ENDCHAR
STARTCHAR Ugrave
ENCODING 217
SWIDTH 665 0
DWIDTH 6 0
BBX 6 8 0 0
BITMAP
1800
0900
70D0
70D0
70D0
70D0
35C0
1F40
ENDCHAR
STARTCHAR Uacute
ENCODING 218
SWIDTH 665 0
DWIDTH 6 0
BBX 6 8 0 0
BITMAP
0240
0600
70D0
70D0
70D0
70D0
35C0
1F40
ENDCHAR
STARTCHAR Ucircumflex
ENCODING 219
SWIDTH 665 0
DWIDTH 6 0
BBX 6 7 0 0
BITMAP
1A40
70D0
70D0
70D0
70D0
35C0
1F40
ENDCHAR
STARTCHAR Udieresis
ENCODING 220
SWIDTH 665 0
DWIDTH 6 0
BBX 6 7 0 0
BITMAP
1540
70D0
70D0
70D0
70D0
35C0
1F40
ENDCHAR
STARTCHAR Yacute
ENCODING 221
SWIDTH 525 0
DWIDTH 5 0
BBX 5 8 0 0
BITMAP
0600
0900
E280
7700
3A00
1D00
1C00
1C00
ENDCHAR
STARTCHAR Thorn
ENCODING 222
SWIDTH 617 0
DWIDTH 6 0
BBX 5 6 0 0
BITMAP
7000
7F40
71C0
71C0
7F40
7000
ENDCHAR
STARTCHAR germandbls
ENCODING 223
SWIDTH 632 0
DWIDTH 6 0
BBX 6 6 0 0
BITMAP
2E40
7240
7300
7380
71D0
77C0
ENDCHAR
STARTCHAR agrave
ENCODING 224
SWIDTH 527 0
DWIDTH 5 0
BBX 5 7 0 0
BITMAP
2400
1800
0000
6E00
3F40
A740
7B40
ENDCHAR
STARTCHAR aacute
ENCODING 225
SWIDTH 527 0
DWIDTH 5 0
BBX 5 7 0 0
BITMAP
0600
0900
0000
6E00
3F40
A740
7B40
ENDCHAR
STARTCHAR acircumflex
ENCODING 226
SWIDTH 527 0
DWIDTH 5 0
BBX 5 7 0 0
BITMAP
2D00
2600
0000
6E00
3F40
A740
7B40
ENDCHAR
STARTCHAR atilde
ENCODING 227
SWIDTH 527 0
DWIDTH 5 0
BBX 5 8 0 0
BITMAP
0100
3B00
6500
0000
6E00
3F40
A740
7B40
ENDCHAR
STARTCHAR adieresis
ENCODING 228
SWIDTH 527 0
DWIDTH 5 0
BBX 5 6 0 0
BITMAP
3200
0000
6E00
3F40
A740
7B40
ENDCHAR
STARTCHAR aring
ENCODING 229
SWIDTH 527 0
DWIDTH 5 0
BBX 5 7 0 0
BITMAP
1D00
1D00
0000
6E00
3F40
A740
7B40
ENDCHAR
STARTCHAR ae
ENCODING 230
SWIDTH 786 0
DWIDTH 7 0
BBX 7 4 0 0
BITMAP
6EF4
3FF8
B740
7EF4
ENDCHAR
STARTCHAR ccedilla
ENCODING 231
SWIDTH 467 0
DWIDTH 4 0
BBX 4 7 0 -3
BITMAP
2E
B0
B0
2E
0D
09
18
ENDCHAR
STARTCHAR egrave
ENCODING 232
SWIDTH 518 0
DWIDTH 5 0
BBX 5 7 0 0
BITMAP
2400
1800
0000
2E00
BF40
A000
2E00
ENDCHAR
STARTCHAR eacute
ENCODING 233
SWIDTH 518 0
DWIDTH 5 0
BBX 5 7 0 0
BITMAP
0600
0900
0000
2E00
BF40
A000
2E00
ENDCHAR
STARTCHAR ecircumflex
ENCODING 234
SWIDTH 518 0
DWIDTH 5 0
BBX 5 7 0 0
BITMAP
2D00
2600
0000
2E00
BF40
A000
2E00
ENDCHAR
STARTCHAR edieresis
ENCODING 235
SWIDTH 518 0
DWIDTH 5 0
BBX 5 6 0 0
BITMAP
3200
0000
2E00
BF40
A000
2E00
ENDCHAR
STARTCHAR igrave
ENCODING 236
SWIDTH 276 0
DWIDTH 2 0
BBX 3 7 -1 0
BITMAP
60
28
00
1C
1C
1C
1C
ENDCHAR
STARTCHAR iacute
ENCODING 237
SWIDTH 276 0
DWIDTH 2 0
BBX 3 7 0 0
BITMAP
18
20
00
70
70
70
70
ENDCHAR
STARTCHAR icircumflex
ENCODING 238
SWIDTH 276 0
DWIDTH 2 0
BBX 4 7 -1 0
BITMAP
2D
66
00
1C
1C
1C
1C
ENDCHAR
STARTCHAR idieresis
ENCODING 239
SWIDTH 276 0
DWIDTH 2 0
BBX 4 6 -1 0
BITMAP
66
00
1C
1C
1C
1C
ENDCHAR
STARTCHAR eth
ENCODING 240
SWIDTH 560 0
DWIDTH 5 0
BBX 5 6 0 0
BITMAP
2640
2E00
2B00
2B80
A680
6E00
ENDCHAR
STARTCHAR ntilde
ENCODING 241
SWIDTH 572 0
DWIDTH 5 0
BBX 5 7 0 0
BITMAP
2E40
2600
0000
7B40
7280
7280
7280
ENDCHAR
STARTCHAR ograve
ENCODING 242
SWIDTH 555 0
DWIDTH 5 0
BBX 5 7 0 0
BITMAP
2400
1800
0000
2E00
B380
B380
2E00
ENDCHAR
STARTCHAR oacute
ENCODING 243
SWIDTH 555 0
DWIDTH 5 0
BBX 5 7 0 0
BITMAP
0600
0900
0000
2E00
B380
B380
2E00
ENDCHAR
STARTCHAR ocircumflex
ENCODING 244
SWIDTH 555 0
DWIDTH 5 0
BBX 5 7 0 0
BITMAP
2E00
2600
0000
2E00
B380
B380
2E00
ENDCHAR
STARTCHAR otilde
ENCODING 245
SWIDTH 555 0
DWIDTH 5 0
BBX 5 8 0 0
BITMAP
0100
2B00
2500
0000
2E00
B380
B380
2E00
ENDCHAR
STARTCHAR odieresis
ENCODING 246
SWIDTH 555 0
DWIDTH 5 0
BBX 5 6 0 0
BITMAP
3300
0000
2E00
B380
B380
2E00
ENDCHAR
STARTCHAR divide
ENCODING 247
SWIDTH 528 0
DWIDTH 5 0
BBX 5 6 0 0
BITMAP
0400
1C00
5540
6A40
1C00
0400
ENDCHAR
STARTCHAR oslash
ENCODING 248
SWIDTH 555 0
DWIDTH 5 0
BBX 5 4 0 0
BITMAP
2F40
AB80
BA80
6E00
ENDCHAR
STARTCHAR ugrave
ENCODING 249
SWIDTH 568 0
DWIDTH 5 0
BBX 5 7 0 0
BITMAP
2400
1800
0000
7280
7280
7380
3E80
ENDCHAR
STARTCHAR uacute
ENCODING 250
SWIDTH 568 0
DWIDTH 5 0
BBX 5 7 0 0
BITMAP
0600
0900
0000
7280
7280
7380
3E80
ENDCHAR
STARTCHAR ucircumflex
ENCODING 251
SWIDTH 568 0
DWIDTH 5 0
BBX 5 7 0 0
BITMAP
1E00
2600
0000
7280
7280
7380
3E80
ENDCHAR
STARTCHAR udieresis
ENCODING 252
SWIDTH 568 0
DWIDTH 5 0
BBX 5 6 0 0
BITMAP
2300
0000
7280
7280
7380
3E80
ENDCHAR
STARTCHAR yacute
ENCODING 253
SWIDTH 521 0
DWIDTH 5 0
BBX 5 9 0 -2
BITMAP
0600
0900
0000
A340
7300
3A00
1D00
1C00
7400
ENDCHAR
STARTCHAR thorn
ENCODING 254
SWIDTH 573 0
DWIDTH 5 0
BBX 5 8 0 -2
BITMAP
7000
7000
7F40
7280
7280
7F40
7000
7000
ENDCHAR
STARTCHAR ydieresis
ENCODING 255
SWIDTH 521 0
DWIDTH 5 0
BBX 5 8 0 -2
BITMAP
2200
0000
A340
7300
3A00
1D00
1C00
7400
ENDCHAR
STARTCHAR Amacron
ENCODING 256
SWIDTH 573 0
DWIDTH 5 0
BBX 5 7 0 0
BITMAP
2F00
1E00
2B00
3700
7340
BF80
D1C0
ENDCHAR
STARTCHAR amacron
ENCODING 257
SWIDTH 527 0
DWIDTH 5 0
BBX 5 6 0 0
BITMAP
3E00
0000
6E00
3F40
A740
7B40
ENDCHAR
STARTCHAR Abreve
ENCODING 258
SWIDTH 573 0
DWIDTH 5 0
BBX 5 8 0 0
BITMAP
2200
1E00
1E00
2B00
3700
7340
BF80
D1C0
ENDCHAR
STARTCHAR abreve
ENCODING 259
SWIDTH 527 0
DWIDTH 5 0
BBX 5 7 0 0
BITMAP
3300
2D00
0000
6E00
3F40
A740
7B40
ENDCHAR
STARTCHAR Aogonek
ENCODING 260
SWIDTH 573 0
DWIDTH 5 0
BBX 6 8 0 -2
BITMAP
1E00
2B00
3700
7340
BF80
D1C0
0180
01D0
ENDCHAR
STARTCHAR aogonek
ENCODING 261
SWIDTH 527 0
DWIDTH 5 0
BBX 5 6 0 -2
BITMAP
6E00
3F40
A740
7B40
0600
0740
ENDCHAR
STARTCHAR Cacute
ENCODING 262
SWIDTH 582 0
DWIDTH 5 0
BBX 5 8 0 0
BITMAP
0240
0600
1F80
7440
B000
A000
7440
1F80
ENDCHAR
STARTCHAR cacute
ENCODING 263
SWIDTH 467 0
DWIDTH 4 0
BBX 4 7 0 0
BITMAP
02
09
00
2E
B0
B0
2E
ENDCHAR
STARTCHAR Ccircumflex
ENCODING 264
SWIDTH 582 0
DWIDTH 5 0
BBX 5 7 0 0
BITMAP
0A40
1F80
7440
B000
A000
7440
1F80
ENDCHAR
STARTCHAR ccircumflex
ENCODING 265
SWIDTH 467 0
DWIDTH 4 0
BBX 4 7 0 0
BITMAP
1E
26
00
2E
B0
B0
2E
ENDCHAR
STARTCHAR Cdotaccent
ENCODING 266
SWIDTH 582 0
DWIDTH 5 0
BBX 5 7 0 0
BITMAP
0600
1F80
7440
B000
A000
7440
1F80
ENDCHAR
STARTCHAR cdotaccent
ENCODING 267
SWIDTH 467 0
DWIDTH 4 0
BBX 4 6 0 0
BITMAP
0D
00
2E
B0
B0
2E
ENDCHAR
STARTCHAR Ccaron
ENCODING 268
SWIDTH 582 0
DWIDTH 5 0
BBX 5 7 0 0
BITMAP
0A40
1F80
7440
B000
A000
7440
1F80
ENDCHAR
STARTCHAR ccaron
ENCODING 269
SWIDTH 467 0
DWIDTH 4 0
BBX 4 7 0 0
BITMAP
26
1E
00
2E
B0
B0
2E
ENDCHAR
STARTCHAR Dcaron
ENCODING 270
SWIDTH 635 0
DWIDTH 6 0
BBX 6 7 0 0
BITMAP
1A00
7E40
72C0
70D0
70D0
72C0
7E40
ENDCHAR
STARTCHAR dcaron
ENCODING 271
SWIDTH 614 0
DWIDTH 6 0
BBX 6 6 0 0
BITMAP
02A0
0280
2F80
B280
A380
2E80
ENDCHAR
STARTCHAR Dcroat
ENCODING 272
SWIDTH 660 0
DWIDTH 6 0
BBX 6 6 0 0
BITMAP
3F40
35D0
BDD0
34D0
35D0
3F40
ENDCHAR
STARTCHAR dcroat
ENCODING 273
SWIDTH 573 0
DWIDTH 5 0
BBX 6 6 0 0
BITMAP
0280
0FD0
0280
7F80
B380
7F80
ENDCHAR
STARTCHAR Emacron
ENCODING 274
SWIDTH 548 0
DWIDTH 5 0
BBX 5 7 0 0
BITMAP
2F00
7F40
7000
7F00
7000
7000
7F40
ENDCHAR
STARTCHAR emacron
ENCODING 275
SWIDTH 518 0
DWIDTH 5 0
BBX 5 6 0 0
BITMAP
3E00
0000
2E00
BF40
A000
2E00
ENDCHAR
STARTCHAR Ebreve
ENCODING 276
SWIDTH 548 0
DWIDTH 5 0
BBX 5 8 0 0
BITMAP
2200
1E00
7F40
7000
7F00
7000
7000
7F40
ENDCHAR
STARTCHAR ebreve
ENCODING 277
SWIDTH 518 0
DWIDTH 5 0
BBX 5 7 0 0
BITMAP
3300
2D00
0000
2E00
BF40
A000
2E00
ENDCHAR
STARTCHAR Edotaccent
ENCODING 278
SWIDTH 548 0
DWIDTH 5 0
BBX 5 7 0 0
BITMAP
0D00
7F40
7000
7F00
7000
7000
7F40
ENDCHAR
STARTCHAR edotaccent
ENCODING 279
SWIDTH 518 0
DWIDTH 5 0
BBX 5 6 0 0
BITMAP
0C00
0000
2E00
BF40
A000
2E00
ENDCHAR
STARTCHAR Eogonek
ENCODING 280
SWIDTH 548 0
DWIDTH 5 0
BBX 5 8 0 -2
BITMAP
7F40
7000
7F00
7000
7000
7F40
0200
0740
ENDCHAR
STARTCHAR eogonek
ENCODING 281
SWIDTH 518 0
DWIDTH 5 0
BBX 5 6 0 -2
BITMAP
2E00
BF40
A000
2F00
0500
0700
ENDCHAR
STARTCHAR Ecaron
ENCODING 282
SWIDTH 548 0
DWIDTH 5 0
BBX 5 7 0 0
BITMAP
2A00
7F40
7000
7F00
7000
7000
7F40
ENDCHAR
STARTCHAR ecaron
ENCODING 283
SWIDTH 518 0
DWIDTH 5 0
BBX 5 7 0 0
BITMAP
2600
2D00
0000
2E00
BF40
A000
2E00
ENDCHAR
STARTCHAR Gcircumflex
ENCODING 284
SWIDTH 638 0
DWIDTH 6 0
BBX 6 7 0 0
BITMAP
0A40
1F80
7440
B000
A3D0
74D0
1F80
ENDCHAR
STARTCHAR gcircumflex
ENCODING 285
SWIDTH 534 0
DWIDTH 5 0
BBX 5 9 0 -2
BITMAP
1E00
2600
0000
7F80
A700
7E00
7F40
A280
7E00
ENDCHAR
STARTCHAR Gbreve
ENCODING 286
SWIDTH 638 0
DWIDTH 6 0
BBX 6 8 0 0
BITMAP
0980
0B40
1F80
7440
B000
A3D0
74D0
1F80
ENDCHAR
STARTCHAR gbreve
ENCODING 287
SWIDTH 534 0
DWIDTH 5 0
BBX 5 9 0 -2
BITMAP
3300
1D00
0000
7F80
A700
7E00
7F40
A280
7E00
ENDCHAR
STARTCHAR Gdotaccent
ENCODING 288
SWIDTH 638 0
DWIDTH 6 0
BBX 6 7 0 0
BITMAP
0600
1F80
7440
B000
A3D0
74D0
1F80
ENDCHAR
STARTCHAR gdotaccent
ENCODING 289
SWIDTH 534 0
DWIDTH 5 0
BBX 5 8 0 -2
BITMAP
0C00
0000
7F80
A700
7E00
7F40
A280
7E00
ENDCHAR
STARTCHAR uni0122
ENCODING 290
SWIDTH 638 0
DWIDTH 6 0
BBX 6 9 0 -3
BITMAP
1F80
7440
B000
A3D0
74D0
1F80
0600
0300
0A00
ENDCHAR
STARTCHAR uni0123
ENCODING 291
SWIDTH 534 0
DWIDTH 5 0
BBX 5 10 0 -2
BITMAP
0900
1800
0C00
0000
7F80
A700
7E00
7F40
A280
7E00
ENDCHAR
STARTCHAR Hcircumflex
ENCODING 292
SWIDTH 674 0
DWIDTH 6 0
BBX 6 7 0 0
BITMAP
1A40
70D0
70D0
7FD0
70D0
70D0
70D0
ENDCHAR
STARTCHAR hcircumflex
ENCODING 293
SWIDTH 571 0
DWIDTH 5 0
BBX 5 7 0 0
BITMAP
A400
7000
7000
7B40
7280
7280
7280
ENDCHAR
STARTCHAR Hbar
ENCODING 294
SWIDTH 712 0
DWIDTH 6 0
BBX 7 6 0 0
BITMAP
BFF4
34A0
3FE0
34A0
34A0
34A0
ENDCHAR
STARTCHAR hbar
ENCODING 295
SWIDTH 571 0
DWIDTH 5 0
BBX 5 6 0 0
BITMAP
7000
FD00
7000
7F40
7280
7280
ENDCHAR
STARTCHAR Itilde
ENCODING 296
SWIDTH 301 0
DWIDTH 3 0
BBX 4 9 -1 0
BITMAP
01
3B
65
1C
1C
1C
1C
1C
1C
ENDCHAR
STARTCHAR itilde
ENCODING 297
SWIDTH 276 0
DWIDTH 2 0
BBX 4 8 -1 0
BITMAP
01
3A
59
00
1C
1C
1C
1C
ENDCHAR
STARTCHAR Imacron
ENCODING 298
SWIDTH 301 0
DWIDTH 3 0
BBX 3 7 0 0
BITMAP
F8
70
70
70
70
70
70
ENDCHAR
STARTCHAR imacron
ENCODING 299
SWIDTH 276 0
DWIDTH 2 0
BBX 3 6 0 0
BITMAP
F8
00
70
70
70
70
ENDCHAR
STARTCHAR uni012C
ENCODING 300
SWIDTH 301 0
DWIDTH 3 0
BBX 3 8 0 0
BITMAP
88
B4
70
70
70
70
70
70
ENDCHAR
STARTCHAR uni012D
ENCODING 301
SWIDTH 276 0
DWIDTH 2 0
BBX 4 7 -1 0
BITMAP
66
2D
00
1C
1C
1C
1C
ENDCHAR
STARTCHAR Iogonek
ENCODING 302
SWIDTH 301 0
DWIDTH 3 0
BBX 3 8 0 -2
BITMAP
70
70
70
70
70
70
60
74
ENDCHAR
STARTCHAR iogonek
ENCODING 303
SWIDTH 276 0
DWIDTH 2 0
BBX 2 8 0 -2
BITMAP
60
00
70
70
70
70
50
70
ENDCHAR
STARTCHAR Idotaccent
ENCODING 304
SWIDTH 301 0
DWIDTH 3 0
BBX 2 7 0 0
BITMAP
70
70
70
70
70
70
70
ENDCHAR
STARTCHAR dotlessi
ENCODING 305
SWIDTH 276 0
DWIDTH 2 0
BBX 2 4 0 0
BITMAP
70
70
70
70
ENDCHAR
STARTCHAR uni0132
ENCODING 306
SWIDTH 602 0
DWIDTH 5 0
BBX 5 8 0 -2
BITMAP
7280
7280
7280
7280
7280
7280
0280
0B40
ENDCHAR
STARTCHAR uni0133
ENCODING 307
SWIDTH 554 0
DWIDTH 5 0
BBX 5 8 0 -2
BITMAP
7340
1100
7340
7340
7340
7340
0340
0E00
ENDCHAR
STARTCHAR Jcircumflex
ENCODING 308
SWIDTH 509 0
DWIDTH 5 0
BBX 5 7 0 0
BITMAP
0A40
0700
0700
0700
0700
5A00
7D00
ENDCHAR
STARTCHAR jcircumflex
ENCODING 309
SWIDTH 278 0
DWIDTH 3 0
BBX 4 9 -1 -2
BITMAP
2D
66
00
1C
1C
1C
1C
1C
74
ENDCHAR
STARTCHAR uni0136
ENCODING 310
SWIDTH 614 0
DWIDTH 6 0
BBX 6 9 0 -3
BITMAP
72C0
7740
7E00
7B00
7280
71D0
0A00
0600
0D00
ENDCHAR
STARTCHAR uni0137
ENCODING 311
SWIDTH 548 0
DWIDTH 5 0
BBX 5 9 0 -3
BITMAP
7000
7000
7740
7D00
7A00
7380
0900
0900
1800
ENDCHAR
STARTCHAR kgreenlandic
ENCODING 312
SWIDTH 548 0
DWIDTH 5 0
BBX 5 4 0 0
BITMAP
7340
7D00
7A00
7380
ENDCHAR
STARTCHAR Lacute
ENCODING 313
SWIDTH 518 0
DWIDTH 5 0
BBX 5 8 0 0
BITMAP
1800
2400
7000
7000
7000
7000
7000
7F40
ENDCHAR
STARTCHAR lacute
ENCODING 314
SWIDTH 286 0
DWIDTH 3 0
BBX 3 9 0 0
BITMAP
14
60
00
70
70
70
70
70
74
ENDCHAR
STARTCHAR uni013B
ENCODING 315
SWIDTH 518 0
DWIDTH 5 0
BBX 5 9 0 -3
BITMAP
7000
7000
7000
7000
7000
7F40
0900
0900
1800
ENDCHAR
STARTCHAR uni013C
ENCODING 316
SWIDTH 286 0
DWIDTH 3 0
BBX 3 9 0 -3
BITMAP
70
70
70
70
70
74
24
28
60
ENDCHAR
STARTCHAR Lcaron
ENCODING 317
SWIDTH 518 0
DWIDTH 5 0
BBX 5 6 0 0
BITMAP
7200
7000
7000
7000
7000
7F40
ENDCHAR
STARTCHAR lcaron
ENCODING 318
SWIDTH 319 0
DWIDTH 3 0
BBX 3 6 0 0
BITMAP
78
70
70
70
70
74
ENDCHAR
STARTCHAR Ldot
ENCODING 319
SWIDTH 518 0
DWIDTH 5 0
BBX 5 6 0 0
BITMAP
7000
7000
7340
7340
7000
7F40
ENDCHAR
STARTCHAR ldot
ENCODING 320
SWIDTH 453 0
DWIDTH 4 0
BBX 4 6 0 0
BITMAP
70
70
77
77
70
74
ENDCHAR
STARTCHAR Lslash
ENCODING 321
SWIDTH 524 0
DWIDTH 5 0
BBX 5 6 0 0
BITMAP
7000
7100
7E00
F400
7000
7F40
ENDCHAR
STARTCHAR lslash
ENCODING 322
SWIDTH 303 0
DWIDTH 3 0
BBX 3 6 0 0
BITMAP
70
78
F0
70
70
34
ENDCHAR
STARTCHAR Nacute
ENCODING 323
SWIDTH 665 0
DWIDTH 6 0
BBX 6 8 0 0
BITMAP
0240
0600
74D0
78D0
79D0
76D0
72D0
71D0
ENDCHAR
STARTCHAR nacute
ENCODING 324
SWIDTH 572 0
DWIDTH 5 0
BBX 5 7 0 0
BITMAP
0240
0A00
0000
7B40
7280
7280
7280
ENDCHAR
STARTCHAR uni0145
ENCODING 325
SWIDTH 665 0
DWIDTH 6 0
BBX 6 9 0 -3
BITMAP
74D0
78D0
79D0
76D0
72D0
71D0
0600
0700
0900
ENDCHAR
STARTCHAR uni0146
ENCODING 326
SWIDTH 572 0
DWIDTH 5 0
BBX 5 7 0 -3
BITMAP
7B40
7280
7280
7280
0900
0900
1800
ENDCHAR
STARTCHAR Ncaron
ENCODING 327
SWIDTH 665 0
DWIDTH 6 0
BBX 6 7 0 0
BITMAP
1A40
74D0
78D0
79D0
76D0
72D0
71D0
ENDCHAR
STARTCHAR ncaron
ENCODING 328
SWIDTH 572 0
DWIDTH 5 0
BBX 5 7 0 0
BITMAP
2640
1E00
0000
7B40
7280
7280
7280
ENDCHAR
STARTCHAR napostrophe
ENCODING 329
SWIDTH 852 0
DWIDTH 8 0
BBX 7 6 0 0
BITMAP
7000
2000
13B8
039C
035C
035C
ENDCHAR
STARTCHAR uni014A
ENCODING 330
SWIDTH 666 0
DWIDTH 6 0
BBX 6 6 0 0
BITMAP
7B80
74D0
70A0
70A0
70D0
7380
ENDCHAR
STARTCHAR uni014B
ENCODING 331
SWIDTH 572 0
DWIDTH 5 0
BBX 5 6 0 -2
BITMAP
7B40
7280
7280
7280
0280
0B40
ENDCHAR
STARTCHAR Omacron
ENCODING 332
SWIDTH 684 0
DWIDTH 6 0
BBX 6 7 0 0
BITMAP
1F40
1F80
74D0
A0A0
A0A0
74D0
1F80
ENDCHAR
STARTCHAR omacron
ENCODING 333
SWIDTH 555 0
DWIDTH 5 0
BBX 5 6 0 0
BITMAP
2E00
0000
2E00
B380
B380
2E00
ENDCHAR
STARTCHAR uni014E
ENCODING 334
SWIDTH 684 0
DWIDTH 6 0
BBX 6 8 0 0
BITMAP
1940
0B00
1F80
74D0
A0A0
A0A0
74D0
1F80
ENDCHAR
STARTCHAR uni014F
ENCODING 335
SWIDTH 555 0
DWIDTH 5 0
BBX 5 7 0 0
BITMAP
3300
1D00
0000
2E00
B380
B380
2E00
ENDCHAR
STARTCHAR Ohungarumlaut
ENCODING 336
SWIDTH 684 0
DWIDTH 6 0
BBX 6 8 0 0
BITMAP
0580
0980
1F80
74D0
A0A0
A0A0
74D0
1F80
ENDCHAR
STARTCHAR ohungarumlaut
ENCODING 337
SWIDTH 555 0
DWIDTH 5 0
BBX 5 7 0 0
BITMAP
1A40
0200
0000
2E00
B380
B380
2E00
ENDCHAR
STARTCHAR OE
ENCODING 338
SWIDTH 871 0
DWIDTH 8 0
BBX 8 6 0 0
BITMAP
1FFD
75C0
A1FC
B1C0
75C0
1FFD
ENDCHAR
STARTCHAR oe
ENCODING 339
SWIDTH 822 0
DWIDTH 7 0
BBX 7 4 0 0
BITMAP
2EB8
A3FC
A380
2EB8
ENDCHAR
STARTCHAR Racute
ENCODING 340
SWIDTH 613 0
DWIDTH 6 0
BBX 5 8 0 0
BITMAP
0200
0900
7F40
71C0
71C0
7F40
7340
71C0
ENDCHAR
STARTCHAR racute
ENCODING 341
SWIDTH 398 0
DWIDTH 4 0
BBX 4 7 0 0
BITMAP
06
08
00
69
74
70
70
ENDCHAR
STARTCHAR uni0156
ENCODING 342
SWIDTH 613 0
DWIDTH 6 0
BBX 5 9 0 -3
BITMAP
7F40
71C0
71C0
7F40
7340
71C0
0900
0600
0D00
ENDCHAR
STARTCHAR uni0157
ENCODING 343
SWIDTH 398 0
DWIDTH 4 0
BBX 4 7 0 -3
BITMAP
69
74
70
70
60
30
A0
ENDCHAR
STARTCHAR Rcaron
ENCODING 344
SWIDTH 613 0
DWIDTH 6 0
BBX 5 7 0 0
BITMAP
1A00
7F40
71C0
71C0
7F40
7340
71C0
ENDCHAR
STARTCHAR rcaron
ENCODING 345
SWIDTH 398 0
DWIDTH 4 0
BBX 4 7 0 0
BITMAP
66
2D
00
69
74
70
70
ENDCHAR
STARTCHAR Sacute
ENCODING 346
SWIDTH 556 0
DWIDTH 5 0
BBX 5 8 0 0
BITMAP
0600
0900
2E40
7100
7900
1B40
1280
6E00
ENDCHAR
STARTCHAR sacute
ENCODING 347
SWIDTH 443 0
DWIDTH 4 0
BBX 4 7 0 0
BITMAP
09
18
00
7D
74
5A
7D
ENDCHAR
STARTCHAR Scircumflex
ENCODING 348
SWIDTH 556 0
DWIDTH 5 0
BBX 5 7 0 0
BITMAP
1A00
2E40
7100
7900
1B40
1280
6E00
ENDCHAR
STARTCHAR scircumflex
ENCODING 349
SWIDTH 443 0
DWIDTH 4 0
BBX 4 7 0 0
BITMAP
3C
66
00
7D
74
5A
7D
ENDCHAR
STARTCHAR uni015E
ENCODING 350
SWIDTH 556 0
DWIDTH 5 0
BBX 5 9 0 -3
BITMAP
2E40
7100
7900
1B40
1280
6E00
0D00
0900
1800
ENDCHAR
STARTCHAR uni015F
ENCODING 351
SWIDTH 443 0
DWIDTH 4 0
BBX 4 7 0 -3
BITMAP
7D
74
5A
7D
28
0C
24
ENDCHAR
STARTCHAR Scaron
ENCODING 352
SWIDTH 556 0
DWIDTH 5 0
BBX 5 7 0 0
BITMAP
1A00
2E40
7100
7900
1B40
1280
6E00
ENDCHAR
STARTCHAR scaron
ENCODING 353
SWIDTH 443 0
DWIDTH 4 0
BBX 4 7 0 0
BITMAP
66
3C
00
7D
74
5A
7D
ENDCHAR
STARTCHAR uni0162
ENCODING 354
SWIDTH 556 0
DWIDTH 5 0
BBX 5 9 0 -3
BITMAP
BF80
0D00
0D00
0D00
0D00
0D00
0D00
0900
1800
ENDCHAR
STARTCHAR uni0163
ENCODING 355
SWIDTH 383 0
DWIDTH 3 0
BBX 4 9 0 -3
BITMAP
30
30
BC
70
74
3D
18
0C
24
ENDCHAR
STARTCHAR Tcaron
ENCODING 356
SWIDTH 556 0
DWIDTH 5 0
BBX 5 7 0 0
BITMAP
2A00
BF80
0D00
0D00
0D00
0D00
0D00
ENDCHAR
STARTCHAR tcaron
ENCODING 357
SWIDTH 383 0
DWIDTH 3 0
BBX 4 6 0 0
BITMAP
39
30
BC
70
74
2D
ENDCHAR
STARTCHAR uni0166
ENCODING 358
SWIDTH 556 0
DWIDTH 5 0
BBX 5 6 0 0
BITMAP
BF80
5D00
0D00
7F40
0D00
0D00
ENDCHAR
STARTCHAR uni0167
ENCODING 359
SWIDTH 383 0
DWIDTH 3 0
BBX 4 6 0 0
BITMAP
30
30
BC
BC
74
2D
ENDCHAR
STARTCHAR Utilde
ENCODING 360
SWIDTH 665 0
DWIDTH 6 0
BBX 6 9 0 0
BITMAP
0040
1E80
2600
70D0
70D0
70D0
70D0
35C0
1F40
ENDCHAR
STARTCHAR utilde
ENCODING 361
SWIDTH 568 0
DWIDTH 5 0
BBX 5 8 0 0
BITMAP
0100
2A00
2600
0000
7280
7280
7380
3E80
ENDCHAR
STARTCHAR Umacron
ENCODING 362
SWIDTH 665 0
DWIDTH 6 0
BBX 6 7 0 0
BITMAP
1F40
70D0
70D0
70D0
70D0
35C0
1F40
ENDCHAR
STARTCHAR umacron
ENCODING 363
SWIDTH 568 0
DWIDTH 5 0
BBX 5 6 0 0
BITMAP
2F00
0000
7280
7280
7380
3E80
ENDCHAR
STARTCHAR Ubreve
ENCODING 364
SWIDTH 665 0
DWIDTH 6 0
BBX 6 8 0 0
BITMAP
1540
0F00
70D0
70D0
70D0
70D0
35C0
1F40
ENDCHAR
STARTCHAR ubreve
ENCODING 365
SWIDTH 568 0
DWIDTH 5 0
BBX 5 7 0 0
BITMAP
3300
1E00
0000
7280
7280
7380
3E80
ENDCHAR
STARTCHAR Uring
ENCODING 366
SWIDTH 665 0
DWIDTH 6 0
BBX 6 8 0 0
BITMAP
0A00
0A00
70D0
70D0
70D0
70D0
35C0
1F40
ENDCHAR
STARTCHAR uring
ENCODING 367
SWIDTH 568 0
DWIDTH 5 0
BBX 5 7 0 0
BITMAP
1E00
1E00
0000
7280
7280
7380
3E80
ENDCHAR
STARTCHAR Uhungarumlaut
ENCODING 368
SWIDTH 665 0
DWIDTH 6 0
BBX 6 8 0 0
BITMAP
0980
0940
70D0
70D0
70D0
70D0
35C0
1F40
ENDCHAR
STARTCHAR uhungarumlaut
ENCODING 369
SWIDTH 568 0
DWIDTH 5 0
BBX 5 7 0 0
BITMAP
1940
0200
0000
7280
7280
7380
3E80
ENDCHAR
STARTCHAR Uogonek
ENCODING 370
SWIDTH 665 0
DWIDTH 6 0
BBX 6 8 0 -2
BITMAP
70D0
70D0
70D0
70D0
35C0
1F40
0900
0B00
ENDCHAR
STARTCHAR uogonek
ENCODING 371
SWIDTH 568 0
DWIDTH 5 0
BBX 5 6 0 -2
BITMAP
7280
7280
7380
3E80
0200
0380
ENDCHAR
STARTCHAR Wcircumflex
ENCODING 372
SWIDTH 813 0
DWIDTH 7 0
BBX 7 7 0 0
BITMAP
0680
A34C
A79C
7698
79E8
3CB4
3CB4
ENDCHAR
STARTCHAR wcircumflex
ENCODING 373
SWIDTH 776 0
DWIDTH 7 0
BBX 7 7 0 0
BITMAP
0B80
0980
0000
A768
7764
39B0
2CF0
ENDCHAR
STARTCHAR Ycircumflex
ENCODING 374
SWIDTH 525 0
DWIDTH 5 0
BBX 5 7 0 0
BITMAP
2900
E280
7700
3A00
1D00
1C00
1C00
ENDCHAR
STARTCHAR ycircumflex
ENCODING 375
SWIDTH 521 0
DWIDTH 5 0
BBX 5 9 0 -2
BITMAP
2D00
2600
0000
A340
7300
3A00
1D00
1C00
7400
ENDCHAR
STARTCHAR Ydieresis
ENCODING 376
SWIDTH 525 0
DWIDTH 5 0
BBX 5 7 0 0
BITMAP
2200
E280
7700
3A00
1D00
1C00
1C00
ENDCHAR
STARTCHAR Zacute
ENCODING 377
SWIDTH 541 0
DWIDTH 5 0
BBX 5 8 0 0
BITMAP
0600
0900
7F80
0740
0E00
2C00
7400
BF80
ENDCHAR
STARTCHAR zacute
ENCODING 378
SWIDTH 460 0
DWIDTH 4 0
BBX 4 7 0 0
BITMAP
06
08
00
7F
1D
74
BF
ENDCHAR
STARTCHAR Zdotaccent
ENCODING 379
SWIDTH 541 0
DWIDTH 5 0
BBX 5 7 0 0
BITMAP
0C00
7F80
0740
0E00
2C00
7400
BF80
ENDCHAR
STARTCHAR zdotaccent
ENCODING 380
SWIDTH 460 0
DWIDTH 4 0
BBX 4 6 0 0
BITMAP
18
00
7F
1D
74
BF
ENDCHAR
STARTCHAR Zcaron
ENCODING 381
SWIDTH 541 0
DWIDTH 5 0
BBX 5 7 0 0
BITMAP
2A00
7F80
0740
0E00
2C00
7400
BF80
ENDCHAR
STARTCHAR zcaron
ENCODING 382
SWIDTH 460 0
DWIDTH 4 0
BBX 4 7 0 0
BITMAP
66
2D
00
7F
1D
74
BF
ENDCHAR
STARTCHAR uni0180
ENCODING 384
SWIDTH 571 0
DWIDTH 5 0
BBX 5 6 0 0
BITMAP
7000
FD00
7000
7F40
7280
7F40
ENDCHAR
STARTCHAR uni018F
ENCODING 399
SWIDTH 675 0
DWIDTH 6 0
BBX 6 6 0 0
BITMAP
2F80
11D0
00A0
BFE0
70D0
2F80
ENDCHAR
STARTCHAR uni0192
ENCODING 402
SWIDTH 528 0
DWIDTH 5 0
BBX 5 7 0 -1
BITMAP
0B40
0D00
3F00
1C00
1800
2800
B400
ENDCHAR
STARTCHAR uni0193
ENCODING 403
SWIDTH 638 0
DWIDTH 6 0
BBX 6 7 0 0
BITMAP
00E0
1FC0
7440
B000
A3D0
74D0
1F80
ENDCHAR
STARTCHAR Ohorn
ENCODING 416
SWIDTH 684 0
DWIDTH 6 0
BBX 6 8 0 0
BITMAP
0010
0070
1FD0
74D0
B0A0
B0A0
74D0
1F80
ENDCHAR
STARTCHAR ohorn
ENCODING 417
SWIDTH 555 0
DWIDTH 5 0
BBX 5 7 0 0
BITMAP
0040
00C0
2F40
7340
A280
7340
2E00
ENDCHAR
STARTCHAR Uhorn
ENCODING 431
SWIDTH 683 0
DWIDTH 6 0
BBX 7 8 0 0
BITMAP
0014
0024
70F0
70D0
70D0
70D0
35C0
1F40
ENDCHAR
STARTCHAR uhorn
ENCODING 432
SWIDTH 568 0
DWIDTH 5 0
BBX 6 6 0 0
BITMAP
0050
0090
72C0
7280
7380
3E80
ENDCHAR
STARTCHAR uni01C2
ENCODING 450
SWIDTH 330 0
DWIDTH 3 0
BBX 3 10 0 -3
BITMAP
30
30
30
FC
30
FC
30
30
30
10
ENDCHAR
STARTCHAR uni01CD
ENCODING 461
SWIDTH 573 0
DWIDTH 5 0
BBX 5 7 0 0
BITMAP
2A00
1E00
2B00
3700
7340
BF80
D1C0
ENDCHAR
STARTCHAR uni01CE
ENCODING 462
SWIDTH 527 0
DWIDTH 5 0
BBX 5 7 0 0
BITMAP
2600
2D00
0000
6E00
3F40
A740
7B40
ENDCHAR
STARTCHAR uni01CF
ENCODING 463
SWIDTH 301 0
DWIDTH 3 0
BBX 3 7 0 0
BITMAP
A4
70
70
70
70
70
70
ENDCHAR
STARTCHAR uni01D0
ENCODING 464
SWIDTH 276 0
DWIDTH 2 0
BBX 4 7 -1 0
BITMAP
66
2D
00
1C
1C
1C
1C
ENDCHAR
STARTCHAR uni01D1
ENCODING 465
SWIDTH 684 0
DWIDTH 6 0
BBX 6 7 0 0
BITMAP
0A40
1F80
74D0
A0A0
A0A0
74D0
1F80
ENDCHAR
STARTCHAR uni01D2
ENCODING 466
SWIDTH 555 0
DWIDTH 5 0
BBX 5 7 0 0
BITMAP
2600
2E00
0000
2E00
B380
B380
2E00
ENDCHAR
STARTCHAR uni01D3
ENCODING 467
SWIDTH 665 0
DWIDTH 6 0
BBX 6 7 0 0
BITMAP
1A40
70D0
70D0
70D0
70D0
35C0
1F40
ENDCHAR
STARTCHAR uni01D4
ENCODING 468
SWIDTH 568 0
DWIDTH 5 0
BBX 5 7 0 0
BITMAP
2600
1E00
0000
7280
7280
7380
3E80
ENDCHAR
STARTCHAR uni01D5
ENCODING 469
SWIDTH 665 0
DWIDTH 6 0
BBX 6 9 0 0
BITMAP
1F40
0000
1540
70D0
70D0
70D0
70D0
35C0
1F40
ENDCHAR
STARTCHAR uni01D6
ENCODING 470
SWIDTH 568 0
DWIDTH 5 0
BBX 5 8 0 0
BITMAP
2F00
0000
2200
0000
7280
7280
7380
3E80
ENDCHAR
STARTCHAR uni01D7
ENCODING 471
SWIDTH 665 0
DWIDTH 6 0
BBX 6 9 0 0
BITMAP
0200
0500
1540
70D0
70D0
70D0
70D0
35C0
1F40
ENDCHAR
STARTCHAR uni01D8
ENCODING 472
SWIDTH 568 0
DWIDTH 5 0
BBX 5 8 0 0
BITMAP
0900
0000
2200
0000
7280
7280
7380
3E80
ENDCHAR
STARTCHAR uni01D9
ENCODING 473
SWIDTH 665 0
DWIDTH 6 0
BBX 6 10 0 0
BITMAP
1A40
0A00
0000
1540
70D0
70D0
70D0
70D0
35C0
1F40
ENDCHAR
STARTCHAR uni01DA
ENCODING 474
SWIDTH 568 0
DWIDTH 5 0
BBX 5 9 0 0
BITMAP
2600
0D00
0000
2200
0000
7280
7280
7380
3E80
ENDCHAR
STARTCHAR uni01DB
ENCODING 475
SWIDTH 665 0
DWIDTH 6 0
BBX 6 9 0 0
BITMAP
0800
0500
1540
70D0
70D0
70D0
70D0
35C0
1F40
ENDCHAR
STARTCHAR uni01DC
ENCODING 476
SWIDTH 568 0
DWIDTH 5 0
BBX 5 8 0 0
BITMAP
1400
0800
2200
0000
7280
7280
7380
3E80
ENDCHAR
STARTCHAR uni01E2
ENCODING 482
SWIDTH 845 0
DWIDTH 8 0
BBX 7 7 0 0
BITMAP
02F4
0BFC
0E80
2EF8
3A80
7F80
E2FC
ENDCHAR
STARTCHAR uni01E3
ENCODING 483
SWIDTH 786 0
DWIDTH 7 0
BBX 7 6 0 0
BITMAP
0BC0
0000
6EF4
3FF8
B740
7EF4
ENDCHAR
STARTCHAR Gcaron
ENCODING 486
SWIDTH 638 0
DWIDTH 6 0
BBX 6 7 0 0
BITMAP
0A40
1F80
7440
B000
A3D0
74D0
1F80
ENDCHAR
STARTCHAR gcaron
ENCODING 487
SWIDTH 534 0
DWIDTH 5 0
BBX 5 9 0 -2
BITMAP
2600
1E00
0000
7F80
A700
7E00
7F40
A280
7E00
ENDCHAR
STARTCHAR uni01EA
ENCODING 490
SWIDTH 684 0
DWIDTH 6 0
BBX 6 8 0 -2
BITMAP
1F80
74D0
A0A0
A0A0
74D0
1F80
0500
0B00
ENDCHAR
STARTCHAR uni01EB
ENCODING 491
SWIDTH 555 0
DWIDTH 5 0
BBX 5 6 0 -2
BITMAP
2E00
B380
B380
2E00
0800
0D00
ENDCHAR
STARTCHAR uni01F4
ENCODING 500
SWIDTH 638 0
DWIDTH 6 0
BBX 6 8 0 0
BITMAP
0180
0200
1F80
7440
B000
A3D0
74D0
1F80
ENDCHAR
STARTCHAR uni01F5
ENCODING 501
SWIDTH 534 0
DWIDTH 5 0
BBX 5 9 0 -2
BITMAP
0600
0900
0000
7F80
A700
7E00
7F40
A280
7E00
ENDCHAR
STARTCHAR uni01F8
ENCODING 504
SWIDTH 665 0
DWIDTH 6 0
BBX 6 8 0 0
BITMAP
1800
0900
74D0
78D0
79D0
76D0
72D0
71D0
ENDCHAR
STARTCHAR uni01F9
ENCODING 505
SWIDTH 572 0
DWIDTH 5 0
BBX 5 7 0 0
BITMAP
2400
0800
0000
7B40
7280
7280
7280
ENDCHAR
STARTCHAR uni01FC
ENCODING 508
SWIDTH 845 0
DWIDTH 8 0
BBX 7 8 0 0
BITMAP
0020
0090
0BFC
0E80
2EF8
3A80
7F80
E2FC
ENDCHAR
STARTCHAR uni01FD
ENCODING 509
SWIDTH 786 0
DWIDTH 7 0
BBX 7 7 0 0
BITMAP
0080
0240
0000
6EF4
3FF8
B740
7EF4
ENDCHAR
STARTCHAR uni0218
ENCODING 536
SWIDTH 556 0
DWIDTH 5 0
BBX 5 9 0 -3
BITMAP
2E40
7100
7900
1B40
1280
6E00
0C00
0900
1800
ENDCHAR
STARTCHAR uni0219
ENCODING 537
SWIDTH 443 0
DWIDTH 4 0
BBX 4 7 0 -3
BITMAP
7D
74
5A
7D
18
1C
24
ENDCHAR
STARTCHAR uni021A
ENCODING 538
SWIDTH 556 0
DWIDTH 5 0
BBX 5 9 0 -3
BITMAP
BF80
0D00
0D00
0D00
0D00
0D00
0C00
0900
1800
ENDCHAR
STARTCHAR uni021B
ENCODING 539
SWIDTH 383 0
DWIDTH 3 0
BBX 4 9 0 -3
BITMAP
30
30
BC
70
74
2D
18
1C
24
ENDCHAR
STARTCHAR uni0237
ENCODING 567
SWIDTH 278 0
DWIDTH 3 0
BBX 3 6 -1 -2
BITMAP
1C
1C
1C
1C
1C
74
ENDCHAR
STARTCHAR uni0243
ENCODING 579
SWIDTH 628 0
DWIDTH 6 0
BBX 6 6 0 0
BITMAP
3F80
35C0
3B80
79D0
79D0
3F80
ENDCHAR
STARTCHAR uni0250
ENCODING 592
SWIDTH 534 0
DWIDTH 5 0
BBX 5 4 0 0
BITMAP
6F00
7740
7E00
2E00
ENDCHAR
STARTCHAR uni0251
ENCODING 593
SWIDTH 573 0
DWIDTH 5 0
BBX 5 4 0 0
BITMAP
2E80
B380
A380
2E80
ENDCHAR
STARTCHAR uni0252
ENCODING 594
SWIDTH 573 0
DWIDTH 5 0
BBX 5 4 0 0
BITMAP
7F40
7280
7280
7F40
ENDCHAR
STARTCHAR uni0253
ENCODING 595
SWIDTH 573 0
DWIDTH 5 0
BBX 5 6 0 0
BITMAP
2D00
7000
7F40
7280
7280
7F40
ENDCHAR
STARTCHAR uni0254
ENCODING 596
SWIDTH 467 0
DWIDTH 4 0
BBX 4 4 0 0
BITMAP
79
0A
0A
7D
ENDCHAR
STARTCHAR uni0255
ENCODING 597
SWIDTH 467 0
DWIDTH 4 0
BBX 4 5 0 -1
BITMAP
2E
BF
77
BE
40
ENDCHAR
STARTCHAR uni0256
ENCODING 598
SWIDTH 573 0
DWIDTH 5 0
BBX 6 8 0 -2
BITMAP
0280
0280
2F80
B280
A280
2F80
0280
01D0
ENDCHAR
STARTCHAR uni0257
ENCODING 599
SWIDTH 573 0
DWIDTH 5 0
BBX 6 6 0 0
BITMAP
01D0
0280
2F80
B280
A380
2E80
ENDCHAR
STARTCHAR uni0258
ENCODING 600
SWIDTH 518 0
DWIDTH 5 0
BBX 5 4 0 0
BITMAP
7E00
BF40
0740
7E00
ENDCHAR
STARTCHAR uni0259
ENCODING 601
SWIDTH 518 0
DWIDTH 5 0
BBX 5 4 0 0
BITMAP
7E00
0740
BF40
7E00
ENDCHAR
STARTCHAR uni025A
ENCODING 602
SWIDTH 707 0
DWIDTH 6 0
BBX 7 5 0 0
BITMAP
0040
7FE0
2B74
A700
2D00
ENDCHAR
STARTCHAR uni025B
ENCODING 603
SWIDTH 462 0
DWIDTH 4 0
BBX 4 4 0 0
BITMAP
7E
3D
B0
6E
ENDCHAR
STARTCHAR uni025C
ENCODING 604
SWIDTH 476 0
DWIDTH 4 0
BBX 4 4 0 0
BITMAP
7D
3D
0A
7D
ENDCHAR
STARTCHAR uni025E
ENCODING 606
SWIDTH 566 0
DWIDTH 5 0
BBX 5 4 0 0
BITMAP
7E00
3A80
B280
6E00
ENDCHAR
STARTCHAR uni025F
ENCODING 607
SWIDTH 321 0
DWIDTH 3 0
BBX 3 6 0 -2
BITMAP
70
F8
70
70
70
E0
ENDCHAR
STARTCHAR uni0260
ENCODING 608
SWIDTH 583 0
DWIDTH 5 0
BBX 6 8 0 -2
BITMAP
01D0
0280
2F80
B280
B280
2F80
1380
3E00
ENDCHAR
STARTCHAR uni0261
ENCODING 609
SWIDTH 583 0
DWIDTH 5 0
BBX 5 6 0 -2
BITMAP
2E80
B280
B280
2F80
1380
3E00
ENDCHAR
STARTCHAR uni0262
ENCODING 610
SWIDTH 517 0
DWIDTH 5 0
BBX 5 4 0 0
BITMAP
2E00
A000
AB40
2F40
ENDCHAR
STARTCHAR uni0263
ENCODING 611
SWIDTH 523 0
DWIDTH 5 0
BBX 5 6 0 -2
BITMAP
A340
7700
3A00
2D00
3A00
2D00
ENDCHAR
STARTCHAR uni0264
ENCODING 612
SWIDTH 569 0
DWIDTH 5 0
BBX 5 4 0 0
BITMAP
BB80
2E00
3740
2E00
ENDCHAR
STARTCHAR uni0265
ENCODING 613
SWIDTH 572 0
DWIDTH 5 0
BBX 5 6 0 -2
BITMAP
7280
7280
7280
3F80
0280
0280
ENDCHAR
STARTCHAR uni0266
ENCODING 614
SWIDTH 571 0
DWIDTH 5 0
BBX 5 6 0 0
BITMAP
2D00
7000
7F40
7280
7280
7280
ENDCHAR
STARTCHAR uni0267
ENCODING 615
SWIDTH 571 0
DWIDTH 5 0
BBX 5 8 0 -2
BITMAP
2D00
7000
7F40
7280
7280
7280
0280
0B40
ENDCHAR
STARTCHAR uni0268
ENCODING 616
SWIDTH 321 0
DWIDTH 3 0
BBX 3 6 0 0
BITMAP
30
00
70
F8
70
70
ENDCHAR
STARTCHAR uni026A
ENCODING 618
SWIDTH 395 0
DWIDTH 4 0
BBX 3 4 0 0
BITMAP
BC
34
34
BC
ENDCHAR
STARTCHAR uni026C
ENCODING 620
SWIDTH 377 0
DWIDTH 3 0
BBX 4 6 0 0
BITMAP
28
78
B8
BD
28
1C
ENDCHAR
STARTCHAR uni026D
ENCODING 621
SWIDTH 286 0
DWIDTH 3 0
BBX 3 8 0 -2
BITMAP
70
70
70
70
70
70
70
38
ENDCHAR
STARTCHAR uni026E
ENCODING 622
SWIDTH 640 0
DWIDTH 6 0
BBX 6 8 0 -2
BITMAP
7000
7000
7FD0
7280
7780
71D0
04D0
0B80
ENDCHAR
STARTCHAR uni026F
ENCODING 623
SWIDTH 857 0
DWIDTH 8 0
BBX 7 4 0 0
BITMAP
728C
728C
739C
3EEC
ENDCHAR
STARTCHAR uni0270
ENCODING 624
SWIDTH 857 0
DWIDTH 8 0
BBX 7 6 0 -2
BITMAP
728C
728C
739C
3EEC
000C
000C
ENDCHAR
STARTCHAR uni0271
ENCODING 625
SWIDTH 857 0
DWIDTH 8 0
BBX 8 6 0 -2
BITMAP
7BB8
739C
728D
728D
001C
0038
ENDCHAR
STARTCHAR uni0272
ENCODING 626
SWIDTH 572 0
DWIDTH 5 0
BBX 6 6 -1 -2
BITMAP
1ED0
1CA0
1CA0
1CA0
1C00
7400
ENDCHAR
STARTCHAR uni0273
ENCODING 627
SWIDTH 572 0
DWIDTH 5 0
BBX 6 6 0 -2
BITMAP
7B40
7280
7280
7280
0280
01D0
ENDCHAR
STARTCHAR uni0274
ENCODING 628
SWIDTH 561 0
DWIDTH 5 0
BBX 5 4 0 0
BITMAP
7240
7A40
6B40
6340
ENDCHAR
STARTCHAR uni0275
ENCODING 629
SWIDTH 555 0
DWIDTH 5 0
BBX 5 4 0 0
BITMAP
2E00
BF80
A280
2E00
ENDCHAR
STARTCHAR uni0276
ENCODING 630
SWIDTH 726 0
DWIDTH 7 0
BBX 7 4 0 0
BITMAP
2FF4
B3F0
A340
2FF4
ENDCHAR
STARTCHAR uni0278
ENCODING 632
SWIDTH 738 0
DWIDTH 7 0
BBX 7 8 0 -2
BITMAP
0700
0700
2FD0
B774
B774
2FD0
0700
0700
ENDCHAR
STARTCHAR uni0279
ENCODING 633
SWIDTH 398 0
DWIDTH 4 0
BBX 3 4 0 0
BITMAP
1C
1C
2C
EC
ENDCHAR
STARTCHAR uni027A
ENCODING 634
SWIDTH 398 0
DWIDTH 4 0
BBX 3 6 0 0
BITMAP
1C
1C
1C
1C
2C
EC
ENDCHAR
STARTCHAR uni027B
ENCODING 635
SWIDTH 398 0
DWIDTH 4 0
BBX 4 6 0 -2
BITMAP
1C
1C
2C
EC
0C
0A
ENDCHAR
STARTCHAR uni027D
ENCODING 637
SWIDTH 398 0
DWIDTH 4 0
BBX 4 6 0 -2
BITMAP
69
74
70
70
70
38
ENDCHAR
STARTCHAR uni027E
ENCODING 638
SWIDTH 380 0
DWIDTH 3 0
BBX 4 4 0 0
BITMAP
2D
70
70
70
ENDCHAR
STARTCHAR uni0280
ENCODING 640
SWIDTH 532 0
DWIDTH 5 0
BBX 5 4 0 0
BITMAP
7A00
7740
7E00
7740
ENDCHAR
STARTCHAR uni0281
ENCODING 641
SWIDTH 532 0
DWIDTH 5 0
BBX 5 4 0 0
BITMAP
7740
3F40
7740
3F40
ENDCHAR
STARTCHAR uni0282
ENCODING 642
SWIDTH 443 0
DWIDTH 4 0
BBX 4 6 0 -2
BITMAP
7D
74
1A
BD
90
74
ENDCHAR
STARTCHAR uni0283
ENCODING 643
SWIDTH 278 0
DWIDTH 3 0
BBX 4 8 -1 -2
BITMAP
0B
1C
1C
1C
1C
1C
1C
74
ENDCHAR
STARTCHAR uni0284
ENCODING 644
SWIDTH 321 0
DWIDTH 3 0
BBX 3 8 0 -2
BITMAP
2C
74
70
F8
70
70
70
E0
ENDCHAR
STARTCHAR uni0288
ENCODING 648
SWIDTH 383 0
DWIDTH 3 0
BBX 4 8 0 -2
BITMAP
10
30
BC
70
70
70
74
2D
ENDCHAR
STARTCHAR uni0289
ENCODING 649
SWIDTH 617 0
DWIDTH 6 0
BBX 6 4 0 0
BITMAP
7280
FFD0
7680
2E80
ENDCHAR
STARTCHAR uni028A
ENCODING 650
SWIDTH 558 0
DWIDTH 5 0
BBX 5 4 0 0
BITMAP
B780
7340
A280
2E00
ENDCHAR
STARTCHAR uni028B
ENCODING 651
SWIDTH 552 0
DWIDTH 5 0
BBX 5 4 0 0
BITMAP
7740
7280
7340
2E00
ENDCHAR
STARTCHAR uni028C
ENCODING 652
SWIDTH 523 0
DWIDTH 5 0
BBX 5 4 0 0
BITMAP
2D00
3A00
7700
A340
ENDCHAR
STARTCHAR uni028D
ENCODING 653
SWIDTH 776 0
DWIDTH 7 0
BBX 7 4 0 0
BITMAP
3CE0
39B0
6B74
A728
ENDCHAR
STARTCHAR uni028E
ENCODING 654
SWIDTH 521 0
DWIDTH 5 0
BBX 5 6 0 0
BITMAP
0B40
1C00
2C00
3A00
6700
A340
ENDCHAR
STARTCHAR uni028F
ENCODING 655
SWIDTH 466 0
DWIDTH 4 0
BBX 4 4 0 0
BITMAP
A7
79
2C
28
ENDCHAR
STARTCHAR uni0290
ENCODING 656
SWIDTH 460 0
DWIDTH 4 0
BBX 5 6 0 -2
BITMAP
7E00
1D00
3400
BE00
0700
0380
ENDCHAR
STARTCHAR uni0291
ENCODING 657
SWIDTH 503 0
DWIDTH 5 0
BBX 5 5 0 -1
BITMAP
7E00
1F40
7980
BF40
0800
ENDCHAR
STARTCHAR uni0292
ENCODING 658
SWIDTH 460 0
DWIDTH 4 0
BBX 4 6 0 -2
BITMAP
BE
1C
39
1B
4B
BD
ENDCHAR
STARTCHAR uni0294
ENCODING 660
SWIDTH 448 0
DWIDTH 4 0
BBX 4 6 0 0
BITMAP
BD
4A
0A
28
34
34
ENDCHAR
STARTCHAR uni0295
ENCODING 661
SWIDTH 506 0
DWIDTH 5 0
BBX 4 6 0 0
BITMAP
2E
B1
70
2C
1C
1C
ENDCHAR
STARTCHAR uni0298
ENCODING 664
SWIDTH 556 0
DWIDTH 5 0
BBX 5 6 0 0
BITMAP
2E00
7340
AA80
A280
7340
2E00
ENDCHAR
STARTCHAR uni0299
ENCODING 665
SWIDTH 528 0
DWIDTH 5 0
BBX 5 4 0 0
BITMAP
7F00
7F00
7340
7E00
ENDCHAR
STARTCHAR uni029C
ENCODING 668
SWIDTH 582 0
DWIDTH 5 0
BBX 5 4 0 0
BITMAP
7280
7F80
7280
7280
ENDCHAR
STARTCHAR uni029D
ENCODING 669
SWIDTH 360 0
DWIDTH 3 0
BBX 5 8 -1 -2
BITMAP
0A00
0000
0A00
0A00
0A00
7E00
6B00
3E40
ENDCHAR
STARTCHAR uni029F
ENCODING 671
SWIDTH 432 0
DWIDTH 4 0
BBX 4 4 0 0
BITMAP
70
70
70
7E
ENDCHAR
STARTCHAR uni02A1
ENCODING 673
SWIDTH 476 0
DWIDTH 4 0
BBX 4 6 0 0
BITMAP
7D
47
0A
FF
28
28
ENDCHAR
STARTCHAR uni02A2
ENCODING 674
SWIDTH 476 0
DWIDTH 4 0
BBX 5 6 0 0
BITMAP
7E00
A100
7400
FF40
1C00
1C00
ENDCHAR
STARTCHAR h.sups
ENCODING 688
SWIDTH 384 0
DWIDTH 3 0
BBX 3 5 0 3
BITMAP
90
90
BC
9C
98
ENDCHAR
STARTCHAR j.sups
ENCODING 690
SWIDTH 190 0
DWIDTH 2 0
BBX 3 6 -1 2
BITMAP
24
00
24
24
24
70
ENDCHAR
STARTCHAR r.sups
ENCODING 691
SWIDTH 272 0
DWIDTH 2 0
BBX 3 3 0 3
BITMAP
A4
90
90
ENDCHAR
STARTCHAR w.sups
ENCODING 695
SWIDTH 523 0
DWIDTH 5 0
BBX 5 3 0 3
BITMAP
9D40
6A40
7700
ENDCHAR
STARTCHAR y.sups
ENCODING 696
SWIDTH 353 0
DWIDTH 3 0
BBX 3 4 0 2
BITMAP
9C
68
34
A0
ENDCHAR
STARTCHAR uni02B9
ENCODING 697
SWIDTH 300 0
DWIDTH 3 0
BBX 2 3 0 3
BITMAP
30
70
60
ENDCHAR
STARTCHAR uni02BB
ENCODING 699
SWIDTH 300 0
DWIDTH 3 0
BBX 2 3 0 3
BITMAP
10
50
60
ENDCHAR
STARTCHAR uni02BC
ENCODING 700
SWIDTH 300 0
DWIDTH 3 0
BBX 2 3 0 3
BITMAP
70
20
10
ENDCHAR
STARTCHAR uni02BE
ENCODING 702
SWIDTH 176 0
DWIDTH 2 0
BBX 2 3 0 4
BITMAP
90
50
90
ENDCHAR
STARTCHAR uni02BF
ENCODING 703
SWIDTH 176 0
DWIDTH 2 0
BBX 2 3 0 4
BITMAP
90
80
90
ENDCHAR
STARTCHAR uni02C1
ENCODING 705
SWIDTH 343 0
DWIDTH 3 0
BBX 3 5 0 3
BITMAP
78
90
60
20
10
ENDCHAR
STARTCHAR circumflex
ENCODING 710
SWIDTH 555 0
DWIDTH 5 0
BBX 3 2 1 5
BITMAP
B8
98
ENDCHAR
STARTCHAR caron
ENCODING 711
SWIDTH 555 0
DWIDTH 5 0
BBX 3 2 1 5
BITMAP
98
B8
ENDCHAR
STARTCHAR uni02C8
ENCODING 712
SWIDTH 147 0
DWIDTH 1 0
BBX 2 1 0 5
BITMAP
D0
ENDCHAR
STARTCHAR uni02C9
ENCODING 713
SWIDTH 308 0
DWIDTH 3 0
BBX 3 1 0 5
BITMAP
F8
ENDCHAR
STARTCHAR uni02CA
ENCODING 714
SWIDTH 236 0
DWIDTH 2 0
BBX 3 2 0 5
BITMAP
24
60
ENDCHAR
STARTCHAR uni02CB
ENCODING 715
SWIDTH 236 0
DWIDTH 2 0
BBX 3 2 -1 5
BITMAP
60
24
ENDCHAR
STARTCHAR uni02CC
ENCODING 716
SWIDTH 147 0
DWIDTH 1 0
BBX 2 1 0 -2
BITMAP
D0
ENDCHAR
STARTCHAR uni02D0
ENCODING 720
SWIDTH 300 0
DWIDTH 3 0
BBX 2 4 0 0
BITMAP
60
00
00
60
ENDCHAR
STARTCHAR uni02D1
ENCODING 721
SWIDTH 300 0
DWIDTH 3 0
BBX 2 1 0 3
BITMAP
60
ENDCHAR
STARTCHAR breve
ENCODING 728
SWIDTH 555 0
DWIDTH 5 0
BBX 3 2 1 5
BITMAP
CC
74
ENDCHAR
STARTCHAR dotaccent
ENCODING 729
SWIDTH 555 0
DWIDTH 5 0
BBX 1 1 2 5
BITMAP
C0
ENDCHAR
STARTCHAR ring
ENCODING 730
SWIDTH 555 0
DWIDTH 5 0
BBX 3 2 1 5
BITMAP
74
74
ENDCHAR
STARTCHAR ogonek
ENCODING 731
SWIDTH 555 0
DWIDTH 5 0
BBX 2 2 2 -2
BITMAP
80
D0
ENDCHAR
STARTCHAR tilde
ENCODING 732
SWIDTH 555 0
DWIDTH 5 0
BBX 3 3 1 5
BITMAP
04
AC
94
ENDCHAR
STARTCHAR hungarumlaut
ENCODING 733
SWIDTH 555 0
DWIDTH 5 0
BBX 4 2 1 5
BITMAP
69
08
ENDCHAR
STARTCHAR uni02DE
ENCODING 734
SWIDTH 189 0
DWIDTH 2 0
BBX 3 2 -1 2
BITMAP
B0
68
ENDCHAR
STARTCHAR uni02E0
ENCODING 736
SWIDTH 353 0
DWIDTH 3 0
BBX 3 4 0 2
BITMAP
98
68
34
74
ENDCHAR
STARTCHAR l.sups
ENCODING 737
SWIDTH 194 0
DWIDTH 2 0
BBX 2 5 0 3
BITMAP
90
90
90
90
60
ENDCHAR
STARTCHAR s.sups
ENCODING 738
SWIDTH 297 0
DWIDTH 3 0
BBX 3 3 0 3
BITMAP
B4
64
B4
ENDCHAR
STARTCHAR x.sups
ENCODING 739
SWIDTH 348 0
DWIDTH 3 0
BBX 3 3 0 3
BITMAP
A8
34
A8
ENDCHAR
STARTCHAR uni0300
ENCODING 768
SWIDTH 0 0
DWIDTH 0 0
BBX 3 2 -2 5
BITMAP
60
24
ENDCHAR
STARTCHAR uni0301
ENCODING 769
SWIDTH 0 0
DWIDTH 0 0
BBX 3 2 -1 5
BITMAP
24
60
ENDCHAR
STARTCHAR uni0302
ENCODING 770
SWIDTH 0 0
DWIDTH 0 0
BBX 4 2 -2 5
BITMAP
3C
55
ENDCHAR
STARTCHAR uni0303
ENCODING 771
SWIDTH 0 0
DWIDTH 0 0
BBX 4 3 -2 5
BITMAP
01
7A
98
ENDCHAR
STARTCHAR uni0304
ENCODING 772
SWIDTH 0 0
DWIDTH 0 0
BBX 4 1 -2 5
BITMAP
7D
ENDCHAR
STARTCHAR uni0305
ENCODING 773
SWIDTH 0 0
DWIDTH 0 0
BBX 4 1 -2 5
BITMAP
7D
ENDCHAR
STARTCHAR uni0306
ENCODING 774
SWIDTH 0 0
DWIDTH 0 0
BBX 4 2 -2 5
BITMAP
55
3C
ENDCHAR
STARTCHAR uni0307
ENCODING 775
SWIDTH 0 0
DWIDTH 0 0
BBX 2 1 -1 5
BITMAP
A0
ENDCHAR
STARTCHAR uni0308
ENCODING 776
SWIDTH 0 0
DWIDTH 0 0
BBX 4 1 -2 5
BITMAP
55
ENDCHAR
STARTCHAR uni0309
ENCODING 777
SWIDTH 0 0
DWIDTH 0 0
BBX 2 2 -1 5
BITMAP
90
60
ENDCHAR
STARTCHAR uni030A
ENCODING 778
SWIDTH 0 0
DWIDTH 0 0
BBX 2 2 -1 5
BITMAP
F0
F0
ENDCHAR
STARTCHAR uni030B
ENCODING 779
SWIDTH 0 0
DWIDTH 0 0
BBX 3 2 -1 5
BITMAP
98
14
ENDCHAR
STARTCHAR uni030C
ENCODING 780
SWIDTH 0 0
DWIDTH 0 0
BBX 4 2 -2 5
BITMAP
55
3C
ENDCHAR
STARTCHAR uni030F
ENCODING 783
SWIDTH 0 0
DWIDTH 0 0
BBX 3 2 -2 5
BITMAP
98
58
ENDCHAR
STARTCHAR uni0311
ENCODING 785
SWIDTH 0 0
DWIDTH 0 0
BBX 4 2 -2 5
BITMAP
3C
55
ENDCHAR
STARTCHAR uni0312
ENCODING 786
SWIDTH 0 0
DWIDTH 0 0
BBX 2 2 -1 5
BITMAP
50
50
ENDCHAR
STARTCHAR uni0313
ENCODING 787
SWIDTH 0 0
DWIDTH 0 0
BBX 2 2 -1 5
BITMAP
50
50
ENDCHAR
STARTCHAR uni0318
ENCODING 792
SWIDTH 0 0
DWIDTH 0 0
BBX 2 3 -1 -3
BITMAP
10
B0
10
ENDCHAR
STARTCHAR uni0319
ENCODING 793
SWIDTH 0 0
DWIDTH 0 0
BBX 2 3 -1 -3
BITMAP
40
E0
40
ENDCHAR
STARTCHAR uni031A
ENCODING 794
SWIDTH 0 0
DWIDTH 0 0
BBX 2 2 -1 4
BITMAP
B0
10
ENDCHAR
STARTCHAR uni031B
ENCODING 795
SWIDTH 0 0
DWIDTH 0 0
BBX 2 3 0 4
BITMAP
50
A0
80
ENDCHAR
STARTCHAR uni031C
ENCODING 796
SWIDTH 0 0
DWIDTH 0 0
BBX 2 3 -1 -3
BITMAP
60
80
60
ENDCHAR
STARTCHAR uni031D
ENCODING 797
SWIDTH 0 0
DWIDTH 0 0
BBX 2 2 -1 -2
BITMAP
50
F0
ENDCHAR
STARTCHAR uni031E
ENCODING 798
SWIDTH 0 0
DWIDTH 0 0
BBX 2 2 -1 -3
BITMAP
F0
50
ENDCHAR
STARTCHAR uni031F
ENCODING 799
SWIDTH 0 0
DWIDTH 0 0
BBX 2 3 -1 -3
BITMAP
50
F0
50
ENDCHAR
STARTCHAR uni0320
ENCODING 800
SWIDTH 0 0
DWIDTH 0 0
BBX 2 1 -1 -2
BITMAP
F0
ENDCHAR
STARTCHAR uni0323
ENCODING 803
SWIDTH 0 0
DWIDTH 0 0
BBX 2 1 -1 -2
BITMAP
A0
ENDCHAR
STARTCHAR uni0324
ENCODING 804
SWIDTH 0 0
DWIDTH 0 0
BBX 4 1 -2 -2
BITMAP
55
ENDCHAR
STARTCHAR uni0325
ENCODING 805
SWIDTH 0 0
DWIDTH 0 0
BBX 2 2 -1 -2
BITMAP
F0
F0
ENDCHAR
STARTCHAR uni0326
ENCODING 806
SWIDTH 0 0
DWIDTH 0 0
BBX 2 3 -1 -3
BITMAP
A0
60
D0
ENDCHAR
STARTCHAR uni0327
ENCODING 807
SWIDTH 0 0
DWIDTH 0 0
BBX 2 4 -1 -3
BITMAP
50
A0
60
D0
ENDCHAR
STARTCHAR uni0328
ENCODING 808
SWIDTH 0 0
DWIDTH 0 0
BBX 2 2 -1 -2
BITMAP
90
B0
ENDCHAR
STARTCHAR uni0329
ENCODING 809
SWIDTH 0 0
DWIDTH 0 0
BBX 2 1 -1 -2
BITMAP
A0
ENDCHAR
STARTCHAR uni032A
ENCODING 810
SWIDTH 0 0
DWIDTH 0 0
BBX 2 2 -1 -3
BITMAP
F0
50
ENDCHAR
STARTCHAR uni032C
ENCODING 812
SWIDTH 0 0
DWIDTH 0 0
BBX 4 2 -2 -2
BITMAP
55
3C
ENDCHAR
STARTCHAR uni032E
ENCODING 814
SWIDTH 0 0
DWIDTH 0 0
BBX 4 2 -2 -2
BITMAP
55
3C
ENDCHAR
STARTCHAR uni032F
ENCODING 815
SWIDTH 0 0
DWIDTH 0 0
BBX 4 2 -2 -2
BITMAP
3C
55
ENDCHAR
STARTCHAR uni0330
ENCODING 816
SWIDTH 0 0
DWIDTH 0 0
BBX 4 3 -2 -2
BITMAP
01
7A
98
ENDCHAR
STARTCHAR uni0331
ENCODING 817
SWIDTH 0 0
DWIDTH 0 0
BBX 4 1 -2 -2
BITMAP
7D
ENDCHAR
STARTCHAR uni0334
ENCODING 820
SWIDTH 0 0
DWIDTH 0 0
BBX 4 3 -2 1
BITMAP
01
7A
98
ENDCHAR
STARTCHAR uni0339
ENCODING 825
SWIDTH 0 0
DWIDTH 0 0
BBX 2 3 -1 -3
BITMAP
90
20
90
ENDCHAR
STARTCHAR uni033A
ENCODING 826
SWIDTH 0 0
DWIDTH 0 0
BBX 2 2 -1 -2
BITMAP
50
F0
ENDCHAR
STARTCHAR uni033B
ENCODING 827
SWIDTH 0 0
DWIDTH 0 0
BBX 2 2 -1 -2
BITMAP
F0
F0
ENDCHAR
STARTCHAR uni033C
ENCODING 828
SWIDTH 0 0
DWIDTH 0 0
BBX 4 1 -2 -2
BITMAP
7D
ENDCHAR
STARTCHAR uni033D
ENCODING 829
SWIDTH 0 0
DWIDTH 0 0
BBX 2 1 -1 5
BITMAP
A0
ENDCHAR
STARTCHAR uni0342
ENCODING 834
SWIDTH 0 0
DWIDTH 0 0
BBX 4 3 -2 5
BITMAP
01
7A
98
ENDCHAR
STARTCHAR uni0345
ENCODING 837
SWIDTH 0 0
DWIDTH 0 0
BBX 2 1 -1 -2
BITMAP
60
ENDCHAR
STARTCHAR uni0361
ENCODING 865
SWIDTH 0 0
DWIDTH 0 0
BBX 8 2 -4 5
BITMAP
2BE8
9006
ENDCHAR
STARTCHAR uni0374
ENCODING 884
SWIDTH 300 0
DWIDTH 3 0
BBX 2 3 0 3
BITMAP
30
70
60
ENDCHAR
STARTCHAR uni0375
ENCODING 885
SWIDTH 300 0
DWIDTH 3 0
BBX 2 3 0 0
BITMAP
30
70
60
ENDCHAR
STARTCHAR uni037A
ENCODING 890
SWIDTH 555 0
DWIDTH 5 0
BBX 2 1 2 -2
BITMAP
90
ENDCHAR
STARTCHAR uni037E
ENCODING 894
SWIDTH 300 0
DWIDTH 3 0
BBX 2 7 0 -2
BITMAP
70
70
00
00
70
20
50
ENDCHAR
STARTCHAR tonos
ENCODING 900
SWIDTH 555 0
DWIDTH 5 0
BBX 2 2 2 5
BITMAP
90
C0
ENDCHAR
STARTCHAR dieresistonos
ENCODING 901
SWIDTH 555 0
DWIDTH 5 0
BBX 3 2 1 5
BITMAP
20
A8
ENDCHAR
STARTCHAR Alphatonos
ENCODING 902
SWIDTH 622 0
DWIDTH 6 0
BBX 6 6 0 0
BITMAP
9F00
DF40
2A80
35C0
3FD0
70E0
ENDCHAR
STARTCHAR anoteleia
ENCODING 903
SWIDTH 300 0
DWIDTH 3 0
BBX 2 2 0 3
BITMAP
70
70
ENDCHAR
STARTCHAR Epsilontonos
ENCODING 904
SWIDTH 667 0
DWIDTH 6 0
BBX 6 6 0 0
BITMAP
DFD0
DC00
1FC0
1C00
1C00
1FE0
ENDCHAR
STARTCHAR Etatonos
ENCODING 905
SWIDTH 792 0
DWIDTH 7 0
BBX 7 6 0 0
BITMAP
DC34
DC34
1FF4
1C34
1C34
1C34
ENDCHAR
STARTCHAR Iotatonos
ENCODING 906
SWIDTH 420 0
DWIDTH 4 0
BBX 3 6 0 0
BITMAP
DC
DC
1C
1C
1C
1C
ENDCHAR
STARTCHAR Omicrontonos
ENCODING 908
SWIDTH 777 0
DWIDTH 7 0
BBX 7 6 0 0
BITMAP
CBD0
DC74
2834
2834
1C74
0BD0
ENDCHAR
STARTCHAR Upsilontonos
ENCODING 910
SWIDTH 704 0
DWIDTH 6 0
BBX 7 6 0 0
BITMAP
DC74
CAA0
07D0
0380
0280
0280
ENDCHAR
STARTCHAR Omegatonos
ENCODING 911
SWIDTH 803 0
DWIDTH 7 0
BBX 7 6 0 0
BITMAP
C7E0
9D74
2828
2C28
0D74
2EB8
ENDCHAR
STARTCHAR iotadieresistonos
ENCODING 912
SWIDTH 301 0
DWIDTH 3 0
BBX 4 7 -1 0
BITMAP
0C
66
00
1C
1C
1C
1E
ENDCHAR
STARTCHAR Alpha
ENCODING 913
SWIDTH 573 0
DWIDTH 5 0
BBX 5 6 0 0
BITMAP
1E00
2B00
3700
7340
BF80
D1C0
ENDCHAR
STARTCHAR Beta
ENCODING 914
SWIDTH 605 0
DWIDTH 5 0
BBX 5 6 0 0
BITMAP
7F40
7280
7F40
71C0
71C0
7F40
ENDCHAR
STARTCHAR Gamma
ENCODING 915
SWIDTH 521 0
DWIDTH 5 0
BBX 5 6 0 0
BITMAP
7F40
7000
7000
7000
7000
7000
ENDCHAR
STARTCHAR uni0394
ENCODING 916
SWIDTH 640 0
DWIDTH 6 0
BBX 6 6 0 0
BITMAP
0F00
1B40
2680
35C0
70D0
BFD0
ENDCHAR
STARTCHAR Epsilon
ENCODING 917
SWIDTH 548 0
DWIDTH 5 0
BBX 5 6 0 0
BITMAP
7F40
7000
7F00
7000
7000
7F40
ENDCHAR
STARTCHAR Zeta
ENCODING 918
SWIDTH 541 0
DWIDTH 5 0
BBX 5 6 0 0
BITMAP
7F80
0740
0E00
2C00
7400
BF80
ENDCHAR
STARTCHAR Eta
ENCODING 919
SWIDTH 674 0
DWIDTH 6 0
BBX 6 6 0 0
BITMAP
70D0
70D0
7FD0
70D0
70D0
70D0
ENDCHAR
STARTCHAR Theta
ENCODING 920
SWIDTH 684 0
DWIDTH 6 0
BBX 6 6 0 0
BITMAP
1F80
74D0
ABA0
A0A0
74D0
1F80
ENDCHAR
STARTCHAR Iota
ENCODING 921
SWIDTH 301 0
DWIDTH 3 0
BBX 2 6 0 0
BITMAP
70
70
70
70
70
70
ENDCHAR
STARTCHAR Kappa
ENCODING 922
SWIDTH 614 0
DWIDTH 6 0
BBX 6 6 0 0
BITMAP
72C0
7740
7E00
7B00
7280
71D0
ENDCHAR
STARTCHAR Lambda
ENCODING 923
SWIDTH 556 0
DWIDTH 5 0
BBX 5 6 0 0
BITMAP
1D00
2E00
3700
7340
A280
D1C0
ENDCHAR
STARTCHAR Mu
ENCODING 924
SWIDTH 762 0
DWIDTH 7 0
BBX 7 6 0 0
BITMAP
7474
78B4
6DF4
7AB4
7774
7134
ENDCHAR
STARTCHAR Nu
ENCODING 925
SWIDTH 665 0
DWIDTH 6 0
BBX 6 6 0 0
BITMAP
74D0
78D0
79D0
76D0
72D0
71D0
ENDCHAR
STARTCHAR Xi
ENCODING 926
SWIDTH 571 0
DWIDTH 5 0
BBX 5 6 0 0
BITMAP
7F80
0000
3F00
0000
0000
BF80
ENDCHAR
STARTCHAR Omicron
ENCODING 927
SWIDTH 684 0
DWIDTH 6 0
BBX 6 6 0 0
BITMAP
1F80
74D0
A0A0
A0A0
74D0
1F80
ENDCHAR
STARTCHAR Pi
ENCODING 928
SWIDTH 663 0
DWIDTH 6 0
BBX 6 6 0 0
BITMAP
7FD0
70D0
70D0
70D0
70D0
70D0
ENDCHAR
STARTCHAR Rho
ENCODING 929
SWIDTH 596 0
DWIDTH 5 0
BBX 5 6 0 0
BITMAP
7F40
71C0
71C0
7F40
7000
7000
ENDCHAR
STARTCHAR Sigma
ENCODING 931
SWIDTH 549 0
DWIDTH 5 0
BBX 5 6 0 0
BITMAP
BF40
3400
1D00
1C00
3400
BF80
ENDCHAR
STARTCHAR Tau
ENCODING 932
SWIDTH 556 0
DWIDTH 5 0
BBX 5 6 0 0
BITMAP
BF80
0D00
0D00
0D00
0D00
0D00
ENDCHAR
STARTCHAR Upsilon
ENCODING 933
SWIDTH 525 0
DWIDTH 5 0
BBX 5 6 0 0
BITMAP
E280
7700
3A00
1D00
1C00
1C00
ENDCHAR
STARTCHAR Phi
ENCODING 934
SWIDTH 760 0
DWIDTH 7 0
BBX 7 6 0 0
BITMAP
0700
2FE0
7774
7774
2FE0
0700
ENDCHAR
STARTCHAR Chi
ENCODING 935
SWIDTH 567 0
DWIDTH 5 0
BBX 5 6 0 0
BITMAP
B280
3700
1E00
2E00
3740
A280
ENDCHAR
STARTCHAR Psi
ENCODING 936
SWIDTH 752 0
DWIDTH 7 0
BBX 7 6 0 0
BITMAP
A734
A734
7770
2F90
0700
0700
ENDCHAR
STARTCHAR uni03A9
ENCODING 937
SWIDTH 711 0
DWIDTH 6 0
BBX 6 6 0 0
BITMAP
1F80
34E0
70A0
70A0
34D0
B9F0
ENDCHAR
STARTCHAR Iotadieresis
ENCODING 938
SWIDTH 301 0
DWIDTH 3 0
BBX 3 7 0 0
BITMAP
88
70
70
70
70
70
70
ENDCHAR
STARTCHAR Upsilondieresis
ENCODING 939
SWIDTH 525 0
DWIDTH 5 0
BBX 5 7 0 0
BITMAP
2200
E280
7700
3A00
1D00
1C00
1C00
ENDCHAR
STARTCHAR alphatonos
ENCODING 940
SWIDTH 595 0
DWIDTH 5 0
BBX 6 7 0 0
BITMAP
0A00
0900
0000
2EC0
A380
A340
7ED0
ENDCHAR
STARTCHAR epsilontonos
ENCODING 941
SWIDTH 471 0
DWIDTH 4 0
BBX 4 7 0 0
BITMAP
0D
0C
00
7E
7D
A0
7E
ENDCHAR
STARTCHAR etatonos
ENCODING 942
SWIDTH 562 0
DWIDTH 5 0
BBX 5 8 0 -1
BITMAP
0A00
0900
0000
6B40
7680
7280
7280
0280
ENDCHAR
STARTCHAR iotatonos
ENCODING 943
SWIDTH 301 0
DWIDTH 3 0
BBX 3 7 0 0
BITMAP
30
20
00
70
70
70
78
ENDCHAR
STARTCHAR upsilondieresistonos
ENCODING 944
SWIDTH 532 0
DWIDTH 5 0
BBX 5 7 0 0
BITMAP
0C00
6A00
0000
A340
A340
A340
2E00
ENDCHAR
STARTCHAR alpha
ENCODING 945
SWIDTH 595 0
DWIDTH 5 0
BBX 6 4 0 0
BITMAP
2EC0
A380
A340
7ED0
ENDCHAR
STARTCHAR beta
ENCODING 946
SWIDTH 600 0
DWIDTH 5 0
BBX 5 7 0 -1
BITMAP
2F40
7280
7740
66C0
71C0
7B40
7000
ENDCHAR
STARTCHAR gamma
ENCODING 947
SWIDTH 533 0
DWIDTH 5 0
BBX 5 5 0 -1
BITMAP
A280
3740
2E00
1C00
1C00
ENDCHAR
STARTCHAR delta
ENCODING 948
SWIDTH 548 0
DWIDTH 5 0
BBX 5 6 0 0
BITMAP
2F40
3500
2E00
7340
A240
2E00
ENDCHAR
STARTCHAR epsilon
ENCODING 949
SWIDTH 471 0
DWIDTH 4 0
BBX 4 4 0 0
BITMAP
7E
7D
A0
7E
ENDCHAR
STARTCHAR zeta
ENCODING 950
SWIDTH 466 0
DWIDTH 4 0
BBX 4 7 0 -1
BITMAP
7F
1D
34
A0
B0
2E
06
ENDCHAR
STARTCHAR eta
ENCODING 951
SWIDTH 562 0
DWIDTH 5 0
BBX 5 5 0 -1
BITMAP
6B40
7680
7280
7280
0280
ENDCHAR
STARTCHAR theta
ENCODING 952
SWIDTH 549 0
DWIDTH 5 0
BBX 5 6 0 0
BITMAP
2E00
7340
BF40
A240
7340
2E00
ENDCHAR
STARTCHAR iota
ENCODING 953
SWIDTH 301 0
DWIDTH 3 0
BBX 3 4 0 0
BITMAP
70
70
70
78
ENDCHAR
STARTCHAR kappa
ENCODING 954
SWIDTH 546 0
DWIDTH 5 0
BBX 5 4 0 0
BITMAP
7240
7A00
7A00
7340
ENDCHAR
STARTCHAR lambda
ENCODING 955
SWIDTH 552 0
DWIDTH 5 0
BBX 5 6 0 0
BITMAP
B800
1D00
1E00
2B00
7340
A280
ENDCHAR
STARTCHAR uni03BC
ENCODING 956
SWIDTH 594 0
DWIDTH 5 0
BBX 6 5 0 -1
BITMAP
7280
7240
7380
7ED0
7000
ENDCHAR
STARTCHAR nu
ENCODING 957
SWIDTH 523 0
DWIDTH 5 0
BBX 5 4 0 0
BITMAP
A340
7300
2A00
1D00
ENDCHAR
STARTCHAR xi
ENCODING 958
SWIDTH 469 0
DWIDTH 4 0
BBX 4 7 0 -1
BITMAP
FF
34
2E
70
B0
2E
06
ENDCHAR
STARTCHAR omicron
ENCODING 959
SWIDTH 553 0
DWIDTH 5 0
BBX 5 4 0 0
BITMAP
2E00
B380
B380
2E00
ENDCHAR
STARTCHAR pi
ENCODING 960
SWIDTH 635 0
DWIDTH 6 0
BBX 6 4 0 0
BITMAP
BFE0
3680
3680
35D0
ENDCHAR
STARTCHAR rho
ENCODING 961
SWIDTH 569 0
DWIDTH 5 0
BBX 5 5 0 -1
BITMAP
2F40
7280
7280
7F00
7000
ENDCHAR
STARTCHAR uni03C2
ENCODING 962
SWIDTH 446 0
DWIDTH 4 0
BBX 4 5 0 -1
BITMAP
2E
B0
B0
2D
09
ENDCHAR
STARTCHAR sigma
ENCODING 963
SWIDTH 573 0
DWIDTH 5 0
BBX 5 4 0 0
BITMAP
2FC0
A340
B340
2E00
ENDCHAR
STARTCHAR tau
ENCODING 964
SWIDTH 492 0
DWIDTH 4 0
BBX 5 4 0 0
BITMAP
BF40
1800
1800
1E00
ENDCHAR
STARTCHAR upsilon
ENCODING 965
SWIDTH 532 0
DWIDTH 5 0
BBX 5 4 0 0
BITMAP
A340
A340
A340
2E00
ENDCHAR
STARTCHAR phi
ENCODING 966
SWIDTH 738 0
DWIDTH 7 0
BBX 7 7 0 -1
BITMAP
0700
0700
2FD0
B774
B774
2FD0
0700
ENDCHAR
STARTCHAR chi
ENCODING 967
SWIDTH 526 0
DWIDTH 5 0
BBX 5 5 0 -1
BITMAP
A340
3A00
1D00
3A00
A280
ENDCHAR
STARTCHAR psi
ENCODING 968
SWIDTH 752 0
DWIDTH 7 0
BBX 7 7 0 -1
BITMAP
0700
0700
A730
A734
7774
2FE0
0700
ENDCHAR
STARTCHAR omega
ENCODING 969
SWIDTH 746 0
DWIDTH 7 0
BBX 7 4 0 0
BITMAP
7070
A734
A734
3EE0
ENDCHAR
STARTCHAR iotadieresis
ENCODING 970
SWIDTH 301 0
DWIDTH 3 0
BBX 4 6 -1 0
BITMAP
66
00
1C
1C
1C
1E
ENDCHAR
STARTCHAR upsilondieresis
ENCODING 971
SWIDTH 532 0
DWIDTH 5 0
BBX 5 6 0 0
BITMAP
2200
0000
A340
A340
A340
2E00
ENDCHAR
STARTCHAR omicrontonos
ENCODING 972
SWIDTH 553 0
DWIDTH 5 0
BBX 5 7 0 0
BITMAP
0900
0C00
0000
2E00
B380
B380
2E00
ENDCHAR
STARTCHAR upsilontonos
ENCODING 973
SWIDTH 532 0
DWIDTH 5 0
BBX 5 7 0 0
BITMAP
0D00
0C00
0000
A340
A340
A340
2E00
ENDCHAR
STARTCHAR omegatonos
ENCODING 974
SWIDTH 746 0
DWIDTH 7 0
BBX 7 7 0 0
BITMAP
0340
0300
0000
7070
A734
A734
3EE0
ENDCHAR
STARTCHAR uni03D0
ENCODING 976
SWIDTH 592 0
DWIDTH 5 0
BBX 5 6 0 0
BITMAP
2E00
7340
7B00
76C0
71C0
2F40
ENDCHAR
STARTCHAR uni03D1
ENCODING 977
SWIDTH 549 0
DWIDTH 5 0
BBX 5 6 0 0
BITMAP
2E00
A340
7B40
6740
7340
2E00
ENDCHAR
STARTCHAR uni03D5
ENCODING 981
SWIDTH 738 0
DWIDTH 7 0
BBX 7 5 0 -1
BITMAP
62E0
A774
B770
2FD0
0700
ENDCHAR
STARTCHAR uni03D7
ENCODING 983
SWIDTH 546 0
DWIDTH 5 0
BBX 5 5 0 -1
BITMAP
7240
7E00
7A00
7380
0740
ENDCHAR
STARTCHAR uni03D9
ENCODING 985
SWIDTH 553 0
DWIDTH 5 0
BBX 5 5 0 -1
BITMAP
2E00
A380
B380
2E00
0D00
ENDCHAR
STARTCHAR uni03DB
ENCODING 987
SWIDTH 490 0
DWIDTH 4 0
BBX 5 5 0 -1
BITMAP
2F40
A000
B000
2E00
0600
ENDCHAR
STARTCHAR uni03DD
ENCODING 989
SWIDTH 433 0
DWIDTH 4 0
BBX 4 5 0 -1
BITMAP
7E
60
7D
70
70
ENDCHAR
STARTCHAR uni03E1
ENCODING 993
SWIDTH 536 0
DWIDTH 5 0
BBX 5 8 0 -2
BITMAP
2400
2C00
0E00
BB40
5780
2F80
1280
0280
ENDCHAR
STARTCHAR uni0400
ENCODING 1024
SWIDTH 548 0
DWIDTH 5 0
BBX 5 8 0 0
BITMAP
2400
1800
7F40
7000
7F00
7000
7000
7F40
ENDCHAR
STARTCHAR uni0401
ENCODING 1025
SWIDTH 548 0
DWIDTH 5 0
BBX 5 7 0 0
BITMAP
2200
7F40
7000
7F00
7000
7000
7F40
ENDCHAR
STARTCHAR uni0402
ENCODING 1026
SWIDTH 701 0
DWIDTH 6 0
BBX 6 6 0 0
BITMAP
BFC0
1C00
1FD0
1CB0
1C70
1DD0
ENDCHAR
STARTCHAR uni0403
ENCODING 1027
SWIDTH 521 0
DWIDTH 5 0
BBX 5 8 0 0
BITMAP
0600
0900
7F40
7000
7000
7000
7000
7000
ENDCHAR
STARTCHAR uni0404
ENCODING 1028
SWIDTH 582 0
DWIDTH 5 0
BBX 5 6 0 0
BITMAP
1F80
7440
BE00
B000
7440
1F80
ENDCHAR
STARTCHAR uni0405
ENCODING 1029
SWIDTH 556 0
DWIDTH 5 0
BBX 5 6 0 0
BITMAP
2E40
7100
7900
1B40
1280
6E00
ENDCHAR
STARTCHAR uni0406
ENCODING 1030
SWIDTH 301 0
DWIDTH 3 0
BBX 2 6 0 0
BITMAP
70
70
70
70
70
70
ENDCHAR
STARTCHAR uni0407
ENCODING 1031
SWIDTH 301 0
DWIDTH 3 0
BBX 3 7 0 0
BITMAP
88
70
70
70
70
70
70
ENDCHAR
STARTCHAR uni0408
ENCODING 1032
SWIDTH 509 0
DWIDTH 5 0
BBX 4 6 0 0
BITMAP
07
07
07
07
5A
7D
ENDCHAR
STARTCHAR uni0409
ENCODING 1033
SWIDTH 920 0
DWIDTH 8 0
BBX 8 6 0 0
BITMAP
0FD0
1DD0
29FD
29DB
35DB
E1FD
ENDCHAR
STARTCHAR uni040A
ENCODING 1034
SWIDTH 933 0
DWIDTH 8 0
BBX 8 6 0 0
BITMAP
70D0
70D0
7FFD
70D7
70D7
70FD
ENDCHAR
STARTCHAR uni040B
ENCODING 1035
SWIDTH 718 0
DWIDTH 6 0
BBX 6 6 0 0
BITMAP
BFC0
1C00
1FD0
1CA0
1C70
1C70
ENDCHAR
STARTCHAR uni040C
ENCODING 1036
SWIDTH 622 0
DWIDTH 6 0
BBX 6 8 0 0
BITMAP
0240
0600
71D0
7340
7F00
7340
7280
70D0
ENDCHAR
STARTCHAR uni040D
ENCODING 1037
SWIDTH 676 0
DWIDTH 6 0
BBX 6 8 0 0
BITMAP
1800
0900
71D0
72D0
77D0
79D0
7CD0
74D0
ENDCHAR
STARTCHAR uni040E
ENCODING 1038
SWIDTH 555 0
DWIDTH 5 0
BBX 5 8 0 0
BITMAP
3700
1E00
A1C0
7240
2B00
1E00
0D00
7800
ENDCHAR
STARTCHAR uni040F
ENCODING 1039
SWIDTH 663 0
DWIDTH 6 0
BBX 6 7 0 -1
BITMAP
70D0
70D0
70D0
70D0
70D0
7FD0
0A00
ENDCHAR
STARTCHAR uni0410
ENCODING 1040
SWIDTH 573 0
DWIDTH 5 0
BBX 5 6 0 0
BITMAP
1E00
2B00
3700
7340
BF80
D1C0
ENDCHAR
STARTCHAR uni0411
ENCODING 1041
SWIDTH 600 0
DWIDTH 5 0
BBX 5 6 0 0
BITMAP
7F80
7000
7A40
76C0
71C0
7F40
ENDCHAR
STARTCHAR uni0412
ENCODING 1042
SWIDTH 605 0
DWIDTH 5 0
BBX 5 6 0 0
BITMAP
7F40
7280
7F40
71C0
71C0
7F40
ENDCHAR
STARTCHAR uni0413
ENCODING 1043
SWIDTH 521 0
DWIDTH 5 0
BBX 5 6 0 0
BITMAP
7F40
7000
7000
7000
7000
7000
ENDCHAR
STARTCHAR uni0414
ENCODING 1044
SWIDTH 670 0
DWIDTH 6 0
BBX 6 7 0 -1
BITMAP
1FD0
28D0
24D0
34D0
70D0
FFF0
9070
ENDCHAR
STARTCHAR uni0415
ENCODING 1045
SWIDTH 548 0
DWIDTH 5 0
BBX 5 6 0 0
BITMAP
7F40
7000
7F00
7000
7000
7F40
ENDCHAR
STARTCHAR uni0416
ENCODING 1046
SWIDTH 868 0
DWIDTH 8 0
BBX 8 6 0 0
BITMAP
A28A
26A8
1FF4
26A8
729C
A28A
ENDCHAR
STARTCHAR uni0417
ENCODING 1047
SWIDTH 564 0
DWIDTH 5 0
BBX 5 6 0 0
BITMAP
6E00
1340
1F00
0280
1280
7E00
ENDCHAR
STARTCHAR uni0418
ENCODING 1048
SWIDTH 676 0
DWIDTH 6 0
BBX 6 6 0 0
BITMAP
71D0
72D0
77D0
79D0
7CD0
74D0
ENDCHAR
STARTCHAR uni0419
ENCODING 1049
SWIDTH 676 0
DWIDTH 6 0
BBX 6 8 0 0
BITMAP
1A80
0F40
71D0
72D0
77D0
79D0
7CD0
74D0
ENDCHAR
STARTCHAR uni041A
ENCODING 1050
SWIDTH 622 0
DWIDTH 6 0
BBX 6 6 0 0
BITMAP
71D0
7340
7F00
7340
7280
70D0
ENDCHAR
STARTCHAR uni041B
ENCODING 1051
SWIDTH 657 0
DWIDTH 6 0
BBX 6 6 0 0
BITMAP
1FD0
18D0
28D0
34D0
30D0
E0D0
ENDCHAR
STARTCHAR uni041C
ENCODING 1052
SWIDTH 762 0
DWIDTH 7 0
BBX 7 6 0 0
BITMAP
7474
78B4
6DF4
7AB4
7774
7134
ENDCHAR
STARTCHAR uni041D
ENCODING 1053
SWIDTH 674 0
DWIDTH 6 0
BBX 6 6 0 0
BITMAP
70D0
70D0
7FD0
70D0
70D0
70D0
ENDCHAR
STARTCHAR uni041E
ENCODING 1054
SWIDTH 684 0
DWIDTH 6 0
BBX 6 6 0 0
BITMAP
1F80
74D0
A0A0
A0A0
74D0
1F80
ENDCHAR
STARTCHAR uni041F
ENCODING 1055
SWIDTH 663 0
DWIDTH 6 0
BBX 6 6 0 0
BITMAP
7FD0
70D0
70D0
70D0
70D0
70D0
ENDCHAR
STARTCHAR uni0420
ENCODING 1056
SWIDTH 596 0
DWIDTH 5 0
BBX 5 6 0 0
BITMAP
7F40
71C0
71C0
7F40
7000
7000
ENDCHAR
STARTCHAR uni0421
ENCODING 1057
SWIDTH 582 0
DWIDTH 5 0
BBX 5 6 0 0
BITMAP
1F80
7440
B000
A000
7440
1F80
ENDCHAR
STARTCHAR uni0422
ENCODING 1058
SWIDTH 556 0
DWIDTH 5 0
BBX 5 6 0 0
BITMAP
BF80
0D00
0D00
0D00
0D00
0D00
ENDCHAR
STARTCHAR uni0423
ENCODING 1059
SWIDTH 555 0
DWIDTH 5 0
BBX 5 6 0 0
BITMAP
A1C0
7240
2B00
1E00
0D00
7800
ENDCHAR
STARTCHAR uni0424
ENCODING 1060
SWIDTH 764 0
DWIDTH 7 0
BBX 7 6 0 0
BITMAP
0300
2FE0
6734
6734
2FE0
0300
ENDCHAR
STARTCHAR uni0425
ENCODING 1061
SWIDTH 567 0
DWIDTH 5 0
BBX 5 6 0 0
BITMAP
B280
3700
1E00
2E00
3740
A280
ENDCHAR
STARTCHAR uni0426
ENCODING 1062
SWIDTH 669 0
DWIDTH 6 0
BBX 6 7 0 -1
BITMAP
70D0
70D0
70D0
70D0
70D0
7FF0
0070
ENDCHAR
STARTCHAR uni0427
ENCODING 1063
SWIDTH 630 0
DWIDTH 6 0
BBX 5 6 0 0
BITMAP
71C0
71C0
71C0
2FC0
01C0
01C0
ENDCHAR
STARTCHAR uni0428
ENCODING 1064
SWIDTH 910 0
DWIDTH 8 0
BBX 8 6 0 0
BITMAP
728A
728A
728A
728A
728A
7FFE
ENDCHAR
STARTCHAR uni0429
ENCODING 1065
SWIDTH 926 0
DWIDTH 8 0
BBX 9 7 0 -1
BITMAP
728A00
728A00
728A00
728A00
728A00
7FFF40
000300
ENDCHAR
STARTCHAR uni042A
ENCODING 1066
SWIDTH 730 0
DWIDTH 7 0
BBX 6 6 0 0
BITMAP
BD00
0D00
0FD0
0D70
0D70
0FD0
ENDCHAR
STARTCHAR uni042B
ENCODING 1067
SWIDTH 853 0
DWIDTH 8 0
BBX 7 6 0 0
BITMAP
701C
701C
7F5C
729C
729C
7F5C
ENDCHAR
STARTCHAR uni042C
ENCODING 1068
SWIDTH 600 0
DWIDTH 5 0
BBX 5 6 0 0
BITMAP
7000
7000
7F40
71C0
71C0
7F40
ENDCHAR
STARTCHAR uni042D
ENCODING 1069
SWIDTH 582 0
DWIDTH 5 0
BBX 5 6 0 0
BITMAP
7E00
1240
2F80
0280
5340
7E00
ENDCHAR
STARTCHAR uni042E
ENCODING 1070
SWIDTH 950 0
DWIDTH 9 0
BBX 8 6 0 0
BITMAP
71B9
728A
7F47
7347
728A
70B8
ENDCHAR
STARTCHAR uni042F
ENCODING 1071
SWIDTH 617 0
DWIDTH 6 0
BBX 5 6 0 0
BITMAP
2FC0
71C0
71C0
2FC0
29C0
B1C0
ENDCHAR
STARTCHAR uni0430
ENCODING 1072
SWIDTH 527 0
DWIDTH 5 0
BBX 5 4 0 0
BITMAP
6E00
3F40
A740
7B40
ENDCHAR
STARTCHAR uni0431
ENCODING 1073
SWIDTH 561 0
DWIDTH 5 0
BBX 5 6 0 0
BITMAP
1F40
7400
BF40
A280
6380
2E00
ENDCHAR
STARTCHAR uni0432
ENCODING 1074
SWIDTH 528 0
DWIDTH 5 0
BBX 5 4 0 0
BITMAP
7F00
7F00
7340
7E00
ENDCHAR
STARTCHAR uni0433
ENCODING 1075
SWIDTH 432 0
DWIDTH 4 0
BBX 4 4 0 0
BITMAP
7E
70
70
70
ENDCHAR
STARTCHAR uni0434
ENCODING 1076
SWIDTH 584 0
DWIDTH 5 0
BBX 5 5 0 -1
BITMAP
3F40
3340
7340
FFC0
90C0
ENDCHAR
STARTCHAR uni0435
ENCODING 1077
SWIDTH 518 0
DWIDTH 5 0
BBX 5 4 0 0
BITMAP
2E00
BF40
A000
2E00
ENDCHAR
STARTCHAR uni0436
ENCODING 1078
SWIDTH 761 0
DWIDTH 7 0
BBX 7 4 0 0
BITMAP
A774
2FE0
3770
A738
ENDCHAR
STARTCHAR uni0437
ENCODING 1079
SWIDTH 476 0
DWIDTH 4 0
BBX 4 4 0 0
BITMAP
7E
2E
0B
7D
ENDCHAR
STARTCHAR uni0438
ENCODING 1080
SWIDTH 583 0
DWIDTH 5 0
BBX 5 4 0 0
BITMAP
7380
7B80
7A80
7680
ENDCHAR
STARTCHAR uni0439
ENCODING 1081
SWIDTH 583 0
DWIDTH 5 0
BBX 5 7 0 0
BITMAP
2700
1E00
0000
7380
7B80
7A80
7680
ENDCHAR
STARTCHAR uni043A
ENCODING 1082
SWIDTH 546 0
DWIDTH 5 0
BBX 5 4 0 0
BITMAP
6740
7E00
7700
7380
ENDCHAR
STARTCHAR uni043B
ENCODING 1083
SWIDTH 573 0
DWIDTH 5 0
BBX 5 4 0 0
BITMAP
2F80
3680
3280
A280
ENDCHAR
STARTCHAR uni043C
ENCODING 1084
SWIDTH 660 0
DWIDTH 6 0
BBX 6 4 0 0
BITMAP
75D0
7AD0
6E90
6590
ENDCHAR
STARTCHAR uni043D
ENCODING 1085
SWIDTH 582 0
DWIDTH 5 0
BBX 5 4 0 0
BITMAP
7280
7F80
7280
7280
ENDCHAR
STARTCHAR uni043E
ENCODING 1086
SWIDTH 555 0
DWIDTH 5 0
BBX 5 4 0 0
BITMAP
2E00
B380
B380
2E00
ENDCHAR
STARTCHAR uni043F
ENCODING 1087
SWIDTH 574 0
DWIDTH 5 0
BBX 5 4 0 0
BITMAP
7F80
7280
7280
7280
ENDCHAR
STARTCHAR uni0440
ENCODING 1088
SWIDTH 573 0
DWIDTH 5 0
BBX 5 6 0 -2
BITMAP
7F40
7280
7280
7F40
7000
7000
ENDCHAR
STARTCHAR uni0441
ENCODING 1089
SWIDTH 467 0
DWIDTH 4 0
BBX 4 4 0 0
BITMAP
2E
B0
B0
2E
ENDCHAR
STARTCHAR uni0442
ENCODING 1090
SWIDTH 492 0
DWIDTH 4 0
BBX 5 4 0 0
BITMAP
BF40
1C00
1C00
1C00
ENDCHAR
STARTCHAR uni0443
ENCODING 1091
SWIDTH 521 0
DWIDTH 5 0
BBX 5 6 0 -2
BITMAP
A340
7300
3A00
1D00
1C00
7400
ENDCHAR
STARTCHAR uni0444
ENCODING 1092
SWIDTH 779 0
DWIDTH 7 0
BBX 7 8 0 -2
BITMAP
0300
0300
2FF4
A768
A768
3FE0
0300
0300
ENDCHAR
STARTCHAR uni0445
ENCODING 1093
SWIDTH 514 0
DWIDTH 5 0
BBX 5 4 0 0
BITMAP
7700
2D00
3D00
A740
ENDCHAR
STARTCHAR uni0446
ENCODING 1094
SWIDTH 595 0
DWIDTH 5 0
BBX 6 5 0 -1
BITMAP
7280
7280
7280
7FD0
00D0
ENDCHAR
STARTCHAR uni0447
ENCODING 1095
SWIDTH 550 0
DWIDTH 5 0
BBX 5 4 0 0
BITMAP
A340
B340
7F40
0340
ENDCHAR
STARTCHAR uni0448
ENCODING 1096
SWIDTH 803 0
DWIDTH 7 0
BBX 7 4 0 0
BITMAP
7368
7368
7368
7FF8
ENDCHAR
STARTCHAR uni0449
ENCODING 1097
SWIDTH 829 0
DWIDTH 7 0
BBX 8 5 0 -1
BITMAP
7368
7368
7368
7FFD
000D
ENDCHAR
STARTCHAR uni044A
ENCODING 1098
SWIDTH 623 0
DWIDTH 6 0
BBX 6 4 0 0
BITMAP
BC00
1F80
1CD0
1F80
ENDCHAR
STARTCHAR uni044B
ENCODING 1099
SWIDTH 739 0
DWIDTH 7 0
BBX 6 4 0 0
BITMAP
7070
7E70
7770
7E70
ENDCHAR
STARTCHAR uni044C
ENCODING 1100
SWIDTH 516 0
DWIDTH 5 0
BBX 5 4 0 0
BITMAP
7000
7E00
7340
7E00
ENDCHAR
STARTCHAR uni044D
ENCODING 1101
SWIDTH 467 0
DWIDTH 4 0
BBX 4 4 0 0
BITMAP
7D
3E
0A
BD
ENDCHAR
STARTCHAR uni044E
ENCODING 1102
SWIDTH 776 0
DWIDTH 7 0
BBX 7 4 0 0
BITMAP
72E0
7F38
7738
72E0
ENDCHAR
STARTCHAR uni044F
ENCODING 1103
SWIDTH 544 0
DWIDTH 5 0
BBX 5 4 0 0
BITMAP
2F40
7340
3F40
7340
ENDCHAR
STARTCHAR uni0450
ENCODING 1104
SWIDTH 518 0
DWIDTH 5 0
BBX 5 7 0 0
BITMAP
2400
1800
0000
2E00
BF40
A000
2E00
ENDCHAR
STARTCHAR uni0451
ENCODING 1105
SWIDTH 518 0
DWIDTH 5 0
BBX 5 6 0 0
BITMAP
3200
0000
2E00
BF40
A000
2E00
ENDCHAR
STARTCHAR uni0452
ENCODING 1106
SWIDTH 572 0
DWIDTH 5 0
BBX 5 8 0 -2
BITMAP
7000
FD00
7000
7F40
7280
7280
0280
0E00
ENDCHAR
STARTCHAR uni0453
ENCODING 1107
SWIDTH 432 0
DWIDTH 4 0
BBX 4 7 0 0
BITMAP
06
08
00
7E
70
70
70
ENDCHAR
STARTCHAR uni0454
ENCODING 1108
SWIDTH 467 0
DWIDTH 4 0
BBX 4 4 0 0
BITMAP
2E
BD
A0
2E
ENDCHAR
STARTCHAR uni0455
ENCODING 1109
SWIDTH 443 0
DWIDTH 4 0
BBX 4 4 0 0
BITMAP
7D
74
5A
7D
ENDCHAR
STARTCHAR uni0456
ENCODING 1110
SWIDTH 276 0
DWIDTH 2 0
BBX 2 7 0 0
BITMAP
10
60
00
70
70
70
70
ENDCHAR
STARTCHAR uni0457
ENCODING 1111
SWIDTH 276 0
DWIDTH 2 0
BBX 4 6 -1 0
BITMAP
66
00
1C
1C
1C
1C
ENDCHAR
STARTCHAR uni0458
ENCODING 1112
SWIDTH 278 0
DWIDTH 3 0
BBX 3 9 -1 -2
BITMAP
04
1C
00
1C
1C
1C
1C
1C
74
ENDCHAR
STARTCHAR uni0459
ENCODING 1113
SWIDTH 780 0
DWIDTH 7 0
BBX 7 4 0 0
BITMAP
2F40
37F4
3368
A3F4
ENDCHAR
STARTCHAR uni045A
ENCODING 1114
SWIDTH 788 0
DWIDTH 7 0
BBX 7 4 0 0
BITMAP
7280
7FF4
72A8
72F4
ENDCHAR
STARTCHAR uni045B
ENCODING 1115
SWIDTH 571 0
DWIDTH 5 0
BBX 5 6 0 0
BITMAP
7000
FD00
7000
7F40
7280
7280
ENDCHAR
STARTCHAR uni045C
ENCODING 1116
SWIDTH 546 0
DWIDTH 5 0
BBX 5 7 0 0
BITMAP
0200
0900
0000
6740
7E00
7700
7380
ENDCHAR
STARTCHAR uni045D
ENCODING 1117
SWIDTH 583 0
DWIDTH 5 0
BBX 5 7 0 0
BITMAP
2400
1800
0000
7380
7B80
7A80
7680
ENDCHAR
STARTCHAR uni045E
ENCODING 1118
SWIDTH 521 0
DWIDTH 5 0
BBX 5 9 0 -2
BITMAP
3700
2D00
0000
A340
7300
3A00
1D00
1C00
7400
ENDCHAR
STARTCHAR uni045F
ENCODING 1119
SWIDTH 578 0
DWIDTH 5 0
BBX 5 5 0 -1
BITMAP
7280
7280
7280
7F80
0D00
ENDCHAR
STARTCHAR uni0462
ENCODING 1122
SWIDTH 624 0
DWIDTH 6 0
BBX 6 6 0 0
BITMAP
2800
BF80
2F80
29D0
29C0
2F80
ENDCHAR
STARTCHAR uni0463
ENCODING 1123
SWIDTH 600 0
DWIDTH 5 0
BBX 5 6 0 0
BITMAP
1800
BF40
2800
2F80
29C0
2F80
ENDCHAR
STARTCHAR uni0472
ENCODING 1138
SWIDTH 684 0
DWIDTH 6 0
BBX 6 6 0 0
BITMAP
1F80
74D0
BFE0
B0A0
75D0
1F80
ENDCHAR
STARTCHAR uni0473
ENCODING 1139
SWIDTH 555 0
DWIDTH 5 0
BBX 5 4 0 0
BITMAP
2E00
BF80
A280
2E00
ENDCHAR
STARTCHAR uni0474
ENCODING 1140
SWIDTH 574 0
DWIDTH 5 0
BBX 6 6 0 0
BITMAP
D1D0
A280
7340
3700
2E00
1D00
ENDCHAR
STARTCHAR uni0475
ENCODING 1141
SWIDTH 533 0
DWIDTH 5 0
BBX 5 4 0 0
BITMAP
A2C0
7700
3A00
2D00
ENDCHAR
STARTCHAR uni0490
ENCODING 1168
SWIDTH 521 0
DWIDTH 5 0
BBX 5 8 0 0
BITMAP
0240
0240
7F40
7000
7000
7000
7000
7000
ENDCHAR
STARTCHAR uni0491
ENCODING 1169
SWIDTH 433 0
DWIDTH 4 0
BBX 4 6 0 0
BITMAP
05
06
7E
70
70
70
ENDCHAR
STARTCHAR uni0492
ENCODING 1170
SWIDTH 546 0
DWIDTH 5 0
BBX 5 6 0 0
BITMAP
3F80
3400
BD00
3400
3400
3400
ENDCHAR
STARTCHAR uni0493
ENCODING 1171
SWIDTH 457 0
DWIDTH 4 0
BBX 4 4 0 0
BITMAP
7F
BD
70
70
ENDCHAR
STARTCHAR uni0496
ENCODING 1174
SWIDTH 905 0
DWIDTH 8 0
BBX 8 7 0 -1
BITMAP
A28A
26A8
1FF4
26A8
729C
A28B
0007
ENDCHAR
STARTCHAR uni0497
ENCODING 1175
SWIDTH 803 0
DWIDTH 7 0
BBX 7 5 0 -1
BITMAP
A774
2FE0
3770
A73C
000C
ENDCHAR
STARTCHAR uni0498
ENCODING 1176
SWIDTH 564 0
DWIDTH 5 0
BBX 5 7 0 -1
BITMAP
6E00
1340
1F00
0280
1280
7F40
0D00
ENDCHAR
STARTCHAR uni0499
ENCODING 1177
SWIDTH 476 0
DWIDTH 4 0
BBX 4 5 0 -1
BITMAP
7D
2E
0A
7E
28
ENDCHAR
STARTCHAR uni049A
ENCODING 1178
SWIDTH 667 0
DWIDTH 6 0
BBX 6 7 0 -1
BITMAP
71D0
7340
7F00
7340
7280
70F0
0060
ENDCHAR
STARTCHAR uni049B
ENCODING 1179
SWIDTH 588 0
DWIDTH 5 0
BBX 6 5 0 -1
BITMAP
7740
7E00
7700
73D0
00C0
ENDCHAR
STARTCHAR uni04A0
ENCODING 1184
SWIDTH 749 0
DWIDTH 7 0
BBX 7 6 0 0
BITMAP
BD38
0D90
0FC0
0DE0
0D70
0814
ENDCHAR
STARTCHAR uni04A1
ENCODING 1185
SWIDTH 656 0
DWIDTH 6 0
BBX 6 4 0 0
BITMAP
BDD0
1F80
1DC0
1CE0
ENDCHAR
STARTCHAR uni04A2
ENCODING 1186
SWIDTH 689 0
DWIDTH 6 0
BBX 6 7 0 -1
BITMAP
70D0
70D0
7FD0
70D0
70D0
70F0
0070
ENDCHAR
STARTCHAR uni04A3
ENCODING 1187
SWIDTH 608 0
DWIDTH 5 0
BBX 6 5 0 -1
BITMAP
7280
7F80
7280
72D0
00D0
ENDCHAR
STARTCHAR uni04AA
ENCODING 1194
SWIDTH 582 0
DWIDTH 5 0
BBX 5 7 0 -1
BITMAP
1F80
7440
B000
A000
7440
1F80
0600
ENDCHAR
STARTCHAR uni04AB
ENCODING 1195
SWIDTH 467 0
DWIDTH 4 0
BBX 4 5 0 -1
BITMAP
2E
B0
B0
3E
0C
ENDCHAR
STARTCHAR uni04AE
ENCODING 1198
SWIDTH 525 0
DWIDTH 5 0
BBX 5 6 0 0
BITMAP
E280
7700
3A00
1D00
1C00
1C00
ENDCHAR
STARTCHAR uni04AF
ENCODING 1199
SWIDTH 523 0
DWIDTH 5 0
BBX 5 6 0 -2
BITMAP
A240
7300
3A00
1D00
1C00
1C00
ENDCHAR
STARTCHAR uni04B0
ENCODING 1200
SWIDTH 525 0
DWIDTH 5 0
BBX 5 6 0 0
BITMAP
A280
7700
2A00
BF40
1C00
1C00
ENDCHAR
STARTCHAR uni04B1
ENCODING 1201
SWIDTH 523 0
DWIDTH 5 0
BBX 5 6 0 -2
BITMAP
A240
7300
3A00
7E00
1C00
1C00
ENDCHAR
STARTCHAR uni04B2
ENCODING 1202
SWIDTH 605 0
DWIDTH 5 0
BBX 6 7 0 -1
BITMAP
B280
3700
2E00
2E00
3700
A2D0
00D0
ENDCHAR
STARTCHAR uni04B3
ENCODING 1203
SWIDTH 548 0
DWIDTH 5 0
BBX 5 5 0 -1
BITMAP
7700
2D00
3D00
A780
0180
ENDCHAR
STARTCHAR uni04B6
ENCODING 1206
SWIDTH 645 0
DWIDTH 6 0
BBX 6 7 0 -1
BITMAP
71C0
71C0
71C0
2FC0
01C0
01E0
00A0
ENDCHAR
STARTCHAR uni04B7
ENCODING 1207
SWIDTH 575 0
DWIDTH 5 0
BBX 5 6 0 -2
BITMAP
A340
B340
7F40
03C0
01C0
01C0
ENDCHAR
STARTCHAR uni04BA
ENCODING 1210
SWIDTH 630 0
DWIDTH 6 0
BBX 5 6 0 0
BITMAP
7000
7000
7F40
71C0
71C0
71C0
ENDCHAR
STARTCHAR uni04BB
ENCODING 1211
SWIDTH 571 0
DWIDTH 5 0
BBX 5 6 0 0
BITMAP
7000
7000
7B40
7280
7280
7280
ENDCHAR
STARTCHAR uni04C0
ENCODING 1216
SWIDTH 301 0
DWIDTH 3 0
BBX 2 6 0 0
BITMAP
70
70
70
70
70
70
ENDCHAR
STARTCHAR uni04C1
ENCODING 1217
SWIDTH 868 0
DWIDTH 8 0
BBX 8 8 0 0
BITMAP
0A90
07C0
A28A
26A8
1FF4
26A8
729C
A28A
ENDCHAR
STARTCHAR uni04C2
ENCODING 1218
SWIDTH 761 0
DWIDTH 7 0
BBX 7 7 0 0
BITMAP
0DC0
0B40
0000
A774
2FE0
3770
A738
ENDCHAR
STARTCHAR uni04CF
ENCODING 1231
SWIDTH 286 0
DWIDTH 3 0
BBX 3 6 0 0
BITMAP
70
70
70
70
70
74
ENDCHAR
STARTCHAR uni04D0
ENCODING 1232
SWIDTH 573 0
DWIDTH 5 0
BBX 5 8 0 0
BITMAP
3700
1E00
1E00
2B00
3700
7340
BF80
D1C0
ENDCHAR
STARTCHAR uni04D1
ENCODING 1233
SWIDTH 527 0
DWIDTH 5 0
BBX 5 7 0 0
BITMAP
3700
2D00
0000
6E00
3F40
A740
7B40
ENDCHAR
STARTCHAR uni04D4
ENCODING 1236
SWIDTH 845 0
DWIDTH 8 0
BBX 7 6 0 0
BITMAP
0BFC
0E80
2EF8
3A80
7F80
E2FC
ENDCHAR
STARTCHAR uni04D5
ENCODING 1237
SWIDTH 786 0
DWIDTH 7 0
BBX 7 4 0 0
BITMAP
6EF4
3FF8
B740
7EF4
ENDCHAR
STARTCHAR uni04D6
ENCODING 1238
SWIDTH 548 0
DWIDTH 5 0
BBX 5 8 0 0
BITMAP
3700
1E00
7F40
7000
7F00
7000
7000
7F40
ENDCHAR
STARTCHAR uni04D7
ENCODING 1239
SWIDTH 518 0
DWIDTH 5 0
BBX 5 7 0 0
BITMAP
3700
2D00
0000
2E00
BF40
A000
2E00
ENDCHAR
STARTCHAR uni04D8
ENCODING 1240
SWIDTH 675 0
DWIDTH 6 0
BBX 6 6 0 0
BITMAP
2F80
11D0
00A0
BFE0
70D0
2F80
ENDCHAR
STARTCHAR uni04D9
ENCODING 1241
SWIDTH 518 0
DWIDTH 5 0
BBX 5 4 0 0
BITMAP
7E00
0740
BF40
7E00
ENDCHAR
STARTCHAR uni04E2
ENCODING 1250
SWIDTH 676 0
DWIDTH 6 0
BBX 6 7 0 0
BITMAP
1F40
71D0
72D0
77D0
79D0
7CD0
74D0
ENDCHAR
STARTCHAR uni04E3
ENCODING 1251
SWIDTH 583 0
DWIDTH 5 0
BBX 5 6 0 0
BITMAP
2F00
0000
7380
7B80
7A80
7680
ENDCHAR
STARTCHAR uni04E6
ENCODING 1254
SWIDTH 684 0
DWIDTH 6 0
BBX 6 7 0 0
BITMAP
1980
1F80
74D0
A0A0
A0A0
74D0
1F80
ENDCHAR
STARTCHAR uni04E7
ENCODING 1255
SWIDTH 555 0
DWIDTH 5 0
BBX 5 6 0 0
BITMAP
3300
0000
2E00
B380
B380
2E00
ENDCHAR
STARTCHAR uni04E8
ENCODING 1256
SWIDTH 684 0
DWIDTH 6 0
BBX 6 6 0 0
BITMAP
1F80
74D0
BFE0
B0A0
75D0
1F80
ENDCHAR
STARTCHAR uni04E9
ENCODING 1257
SWIDTH 555 0
DWIDTH 5 0
BBX 5 4 0 0
BITMAP
2E00
BF80
A280
2E00
ENDCHAR
STARTCHAR uni04EE
ENCODING 1262
SWIDTH 555 0
DWIDTH 5 0
BBX 5 7 0 0
BITMAP
2F00
A1C0
7240
2B00
1E00
0D00
7800
ENDCHAR
STARTCHAR uni04EF
ENCODING 1263
SWIDTH 521 0
DWIDTH 5 0
BBX 5 8 0 -2
BITMAP
3E00
0000
A340
7300
3A00
1D00
1C00
7400
ENDCHAR
STARTCHAR uni04F2
ENCODING 1266
SWIDTH 555 0
DWIDTH 5 0
BBX 5 8 0 0
BITMAP
0940
1600
A1C0
7240
2B00
1E00
0D00
7800
ENDCHAR
STARTCHAR uni04F3
ENCODING 1267
SWIDTH 521 0
DWIDTH 5 0
BBX 5 9 0 -2
BITMAP
1640
0200
0000
A340
7300
3A00
1D00
1C00
7400
ENDCHAR
STARTCHAR a.sups
ENCODING 7491
SWIDTH 359 0
DWIDTH 3 0
BBX 3 3 0 3
BITMAP
B8
9C
78
ENDCHAR
STARTCHAR b.sups
ENCODING 7495
SWIDTH 385 0
DWIDTH 3 0
BBX 4 5 0 3
BITMAP
90
90
BC
9D
B8
ENDCHAR
STARTCHAR d.sups
ENCODING 7496
SWIDTH 385 0
DWIDTH 3 0
BBX 3 5 0 3
BITMAP
0C
0C
7C
9C
78
ENDCHAR
STARTCHAR e.sups
ENCODING 7497
SWIDTH 346 0
DWIDTH 3 0
BBX 3 3 0 3
BITMAP
78
BC
78
ENDCHAR
STARTCHAR g.sups
ENCODING 7501
SWIDTH 361 0
DWIDTH 3 0
BBX 3 4 0 2
BITMAP
7C
B8
BC
B8
ENDCHAR
STARTCHAR k.sups
ENCODING 7503
SWIDTH 371 0
DWIDTH 3 0
BBX 3 5 0 3
BITMAP
90
90
A8
B4
9C
ENDCHAR
STARTCHAR m.sups
ENCODING 7504
SWIDTH 577 0
DWIDTH 5 0
BBX 5 3 0 3
BITMAP
AF80
9DC0
9CC0
ENDCHAR
STARTCHAR o.sups
ENCODING 7506
SWIDTH 373 0
DWIDTH 3 0
BBX 3 3 0 3
BITMAP
78
9C
78
ENDCHAR
STARTCHAR p.sups
ENCODING 7510
SWIDTH 385 0
DWIDTH 3 0
BBX 4 4 0 2
BITMAP
BC
9D
B8
90
ENDCHAR
STARTCHAR t.sups
ENCODING 7511
SWIDTH 259 0
DWIDTH 2 0
BBX 2 4 0 3
BITMAP
50
F0
50
70
ENDCHAR
STARTCHAR u.sups
ENCODING 7512
SWIDTH 383 0
DWIDTH 3 0
BBX 3 3 0 3
BITMAP
9C
9C
7C
ENDCHAR
STARTCHAR v.sups
ENCODING 7515
SWIDTH 355 0
DWIDTH 3 0
BBX 3 3 0 3
BITMAP
8C
68
34
ENDCHAR
STARTCHAR c.sups
ENCODING 7580
SWIDTH 313 0
DWIDTH 3 0
BBX 3 3 0 3
BITMAP
74
90
74
ENDCHAR
STARTCHAR f.sups
ENCODING 7584
SWIDTH 232 0
DWIDTH 2 0
BBX 3 5 0 3
BITMAP
34
60
F0
50
50
ENDCHAR
STARTCHAR z.sups
ENCODING 7611
SWIDTH 312 0
DWIDTH 3 0
BBX 3 3 0 3
BITMAP
B8
60
B8
ENDCHAR
STARTCHAR uni1E06
ENCODING 7686
SWIDTH 605 0
DWIDTH 5 0
BBX 5 8 0 -2
BITMAP
7F40
7280
7F40
71C0
71C0
7F40
0000
2F00
ENDCHAR
STARTCHAR uni1E07
ENCODING 7687
SWIDTH 573 0
DWIDTH 5 0
BBX 5 8 0 -2
BITMAP
7000
7000
7F40
7280
7280
7F40
0000
2F00
ENDCHAR
STARTCHAR uni1E0C
ENCODING 7692
SWIDTH 635 0
DWIDTH 6 0
BBX 6 8 0 -2
BITMAP
7E40
72C0
70D0
70D0
72C0
7E40
0000
0900
ENDCHAR
STARTCHAR uni1E0D
ENCODING 7693
SWIDTH 573 0
DWIDTH 5 0
BBX 5 8 0 -2
BITMAP
0280
0280
2F80
B280
A380
2E80
0000
0900
ENDCHAR
STARTCHAR uni1E0E
ENCODING 7694
SWIDTH 635 0
DWIDTH 6 0
BBX 6 8 0 -2
BITMAP
7E40
72C0
70D0
70D0
72C0
7E40
0000
2F00
ENDCHAR
STARTCHAR uni1E0F
ENCODING 7695
SWIDTH 573 0
DWIDTH 5 0
BBX 5 8 0 -2
BITMAP
0280
0280
2F80
B280
A380
2E80
0000
2F00
ENDCHAR
STARTCHAR uni1E16
ENCODING 7702
SWIDTH 548 0
DWIDTH 5 0
BBX 5 10 0 0
BITMAP
0600
0900
0000
2F00
7F40
7000
7F00
7000
7000
7F40
ENDCHAR
STARTCHAR uni1E17
ENCODING 7703
SWIDTH 518 0
DWIDTH 5 0
BBX 5 8 0 0
BITMAP
0900
0000
3E00
0000
2E00
BF40
A000
2E00
ENDCHAR
STARTCHAR uni1E20
ENCODING 7712
SWIDTH 638 0
DWIDTH 6 0
BBX 6 7 0 0
BITMAP
0F80
1F80
7440
B000
A3D0
74D0
1F80
ENDCHAR
STARTCHAR uni1E21
ENCODING 7713
SWIDTH 534 0
DWIDTH 5 0
BBX 5 8 0 -2
BITMAP
2F00
0000
7F80
A700
7E00
7F40
A280
7E00
ENDCHAR
STARTCHAR uni1E24
ENCODING 7716
SWIDTH 674 0
DWIDTH 6 0
BBX 6 8 0 -2
BITMAP
70D0
70D0
7FD0
70D0
70D0
70D0
0000
0600
ENDCHAR
STARTCHAR uni1E25
ENCODING 7717
SWIDTH 571 0
DWIDTH 5 0
BBX 5 8 0 -2
BITMAP
7000
7000
7B40
7280
7280
7280
0000
0D00
ENDCHAR
STARTCHAR uni1E2A
ENCODING 7722
SWIDTH 674 0
DWIDTH 6 0
BBX 6 8 0 -2
BITMAP
70D0
70D0
7FD0
70D0
70D0
70D0
1540
0F00
ENDCHAR
STARTCHAR uni1E2B
ENCODING 7723
SWIDTH 571 0
DWIDTH 5 0
BBX 5 8 0 -2
BITMAP
7000
7000
7B40
7280
7280
7280
2200
1E00
ENDCHAR
STARTCHAR uni1E32
ENCODING 7730
SWIDTH 614 0
DWIDTH 6 0
BBX 6 8 0 -2
BITMAP
72C0
7740
7E00
7B00
7280
71D0
0000
0A00
ENDCHAR
STARTCHAR uni1E33
ENCODING 7731
SWIDTH 548 0
DWIDTH 5 0
BBX 5 8 0 -2
BITMAP
7000
7000
7740
7D00
7A00
7380
0000
0900
ENDCHAR
STARTCHAR uni1E34
ENCODING 7732
SWIDTH 614 0
DWIDTH 6 0
BBX 6 8 0 -2
BITMAP
72C0
7740
7E00
7B00
7280
71D0
0000
1F40
ENDCHAR
STARTCHAR uni1E35
ENCODING 7733
SWIDTH 548 0
DWIDTH 5 0
BBX 5 8 0 -2
BITMAP
7000
7000
7740
7D00
7A00
7380
0000
2F00
ENDCHAR
STARTCHAR uni1E36
ENCODING 7734
SWIDTH 518 0
DWIDTH 5 0
BBX 5 8 0 -2
BITMAP
7000
7000
7000
7000
7000
7F40
0000
0D00
ENDCHAR
STARTCHAR uni1E37
ENCODING 7735
SWIDTH 286 0
DWIDTH 3 0
BBX 3 8 0 -2
BITMAP
70
70
70
70
70
74
00
24
ENDCHAR
STARTCHAR uni1E38
ENCODING 7736
SWIDTH 518 0
DWIDTH 5 0
BBX 5 9 0 -2
BITMAP
F800
7000
7000
7000
7000
7000
7F40
0000
0D00
ENDCHAR
STARTCHAR uni1E39
ENCODING 7737
SWIDTH 286 0
DWIDTH 3 0
BBX 3 10 0 -2
BITMAP
F8
00
70
70
70
70
70
74
00
24
ENDCHAR
STARTCHAR uni1E3A
ENCODING 7738
SWIDTH 518 0
DWIDTH 5 0
BBX 5 8 0 -2
BITMAP
7000
7000
7000
7000
7000
7F40
0000
2F00
ENDCHAR
STARTCHAR uni1E3B
ENCODING 7739
SWIDTH 286 0
DWIDTH 3 0
BBX 3 8 0 -2
BITMAP
70
70
70
70
70
74
00
BC
ENDCHAR
STARTCHAR uni1E3E
ENCODING 7742
SWIDTH 762 0
DWIDTH 7 0
BBX 7 8 0 0
BITMAP
0180
0240
7474
78B4
6DF4
7AB4
7774
7134
ENDCHAR
STARTCHAR uni1E3F
ENCODING 7743
SWIDTH 857 0
DWIDTH 8 0
BBX 8 7 0 0
BITMAP
0090
0180
0000
7FB8
739C
728D
728D
ENDCHAR
STARTCHAR uni1E40
ENCODING 7744
SWIDTH 762 0
DWIDTH 7 0
BBX 7 7 0 0
BITMAP
0700
7474
78B4
6DF4
7AB4
7774
7134
ENDCHAR
STARTCHAR uni1E41
ENCODING 7745
SWIDTH 857 0
DWIDTH 8 0
BBX 8 6 0 0
BITMAP
0240
0000
7FB8
739C
728D
728D
ENDCHAR
STARTCHAR uni1E42
ENCODING 7746
SWIDTH 762 0
DWIDTH 7 0
BBX 7 8 0 -2
BITMAP
7474
78B4
6DF4
7AB4
7774
7134
0000
0300
ENDCHAR
STARTCHAR uni1E43
ENCODING 7747
SWIDTH 857 0
DWIDTH 8 0
BBX 8 6 0 -2
BITMAP
7FB8
739C
728D
728D
0000
0240
ENDCHAR
STARTCHAR uni1E44
ENCODING 7748
SWIDTH 665 0
DWIDTH 6 0
BBX 6 7 0 0
BITMAP
0A00
74D0
78D0
79D0
76D0
72D0
71D0
ENDCHAR
STARTCHAR uni1E45
ENCODING 7749
SWIDTH 572 0
DWIDTH 5 0
BBX 5 6 0 0
BITMAP
0900
0000
7B40
7280
7280
7280
ENDCHAR
STARTCHAR uni1E46
ENCODING 7750
SWIDTH 665 0
DWIDTH 6 0
BBX 6 8 0 -2
BITMAP
74D0
78D0
79D0
76D0
72D0
71D0
0000
0600
ENDCHAR
STARTCHAR uni1E47
ENCODING 7751
SWIDTH 572 0
DWIDTH 5 0
BBX 5 6 0 -2
BITMAP
7B40
7280
7280
7280
0000
0D00
ENDCHAR
STARTCHAR uni1E48
ENCODING 7752
SWIDTH 665 0
DWIDTH 6 0
BBX 6 8 0 -2
BITMAP
74D0
78D0
79D0
76D0
72D0
71D0
0000
1F40
ENDCHAR
STARTCHAR uni1E49
ENCODING 7753
SWIDTH 572 0
DWIDTH 5 0
BBX 5 6 0 -2
BITMAP
7B40
7280
7280
7280
0000
2F00
ENDCHAR
STARTCHAR uni1E52
ENCODING 7762
SWIDTH 684 0
DWIDTH 6 0
BBX 6 10 0 0
BITMAP
0200
0600
0000
1F40
1F80
74D0
A0A0
A0A0
74D0
1F80
ENDCHAR
STARTCHAR uni1E53
ENCODING 7763
SWIDTH 555 0
DWIDTH 5 0
BBX 5 8 0 0
BITMAP
0900
0000
2E00
0000
2E00
B380
B380
2E00
ENDCHAR
STARTCHAR uni1E58
ENCODING 7768
SWIDTH 613 0
DWIDTH 6 0
BBX 5 7 0 0
BITMAP
0900
7F40
71C0
71C0
7F40
7340
71C0
ENDCHAR
STARTCHAR uni1E59
ENCODING 7769
SWIDTH 398 0
DWIDTH 4 0
BBX 4 6 0 0
BITMAP
18
00
69
74
70
70
ENDCHAR
STARTCHAR uni1E5A
ENCODING 7770
SWIDTH 613 0
DWIDTH 6 0
BBX 5 8 0 -2
BITMAP
7F40
71C0
71C0
7F40
7340
71C0
0000
0900
ENDCHAR
STARTCHAR uni1E5B
ENCODING 7771
SWIDTH 398 0
DWIDTH 4 0
BBX 4 6 0 -2
BITMAP
69
74
70
70
00
60
ENDCHAR
STARTCHAR uni1E5C
ENCODING 7772
SWIDTH 613 0
DWIDTH 6 0
BBX 5 9 0 -2
BITMAP
2F00
7F40
71C0
71C0
7F40
7340
71C0
0000
0900
ENDCHAR
STARTCHAR uni1E5D
ENCODING 7773
SWIDTH 398 0
DWIDTH 4 0
BBX 4 8 0 -2
BITMAP
3E
00
69
74
70
70
00
60
ENDCHAR
STARTCHAR uni1E5E
ENCODING 7774
SWIDTH 613 0
DWIDTH 6 0
BBX 5 8 0 -2
BITMAP
7F40
71C0
71C0
7F40
7340
71C0
0000
1F40
ENDCHAR
STARTCHAR uni1E5F
ENCODING 7775
SWIDTH 398 0
DWIDTH 4 0
BBX 4 6 0 -2
BITMAP
69
74
70
70
00
F8
ENDCHAR
STARTCHAR uni1E60
ENCODING 7776
SWIDTH 556 0
DWIDTH 5 0
BBX 5 7 0 0
BITMAP
0D00
2E40
7100
7900
1B40
1280
6E00
ENDCHAR
STARTCHAR uni1E61
ENCODING 7777
SWIDTH 443 0
DWIDTH 4 0
BBX 4 6 0 0
BITMAP
18
00
7D
74
5A
7D
ENDCHAR
STARTCHAR uni1E62
ENCODING 7778
SWIDTH 556 0
DWIDTH 5 0
BBX 5 8 0 -2
BITMAP
2E40
7100
7900
1B40
1280
6E00
0000
0C00
ENDCHAR
STARTCHAR uni1E63
ENCODING 7779
SWIDTH 443 0
DWIDTH 4 0
BBX 4 6 0 -2
BITMAP
7D
74
5A
7D
00
18
ENDCHAR
STARTCHAR uni1E6C
ENCODING 7788
SWIDTH 556 0
DWIDTH 5 0
BBX 5 8 0 -2
BITMAP
BF80
0D00
0D00
0D00
0D00
0D00
0000
0C00
ENDCHAR
STARTCHAR uni1E6D
ENCODING 7789
SWIDTH 383 0
DWIDTH 3 0
BBX 4 8 0 -2
BITMAP
30
30
BC
70
74
2D
00
18
ENDCHAR
STARTCHAR uni1E6E
ENCODING 7790
SWIDTH 556 0
DWIDTH 5 0
BBX 5 8 0 -2
BITMAP
BF80
0D00
0D00
0D00
0D00
0D00
0000
2E00
ENDCHAR
STARTCHAR uni1E6F
ENCODING 7791
SWIDTH 383 0
DWIDTH 3 0
BBX 4 8 0 -2
BITMAP
30
30
BC
70
74
2D
00
7D
ENDCHAR
STARTCHAR Wgrave
ENCODING 7808
SWIDTH 813 0
DWIDTH 7 0
BBX 7 8 0 0
BITMAP
0900
0600
A34C
A79C
7698
79E8
3CB4
3CB4
ENDCHAR
STARTCHAR wgrave
ENCODING 7809
SWIDTH 776 0
DWIDTH 7 0
BBX 7 7 0 0
BITMAP
0900
0600
0000
A768
7764
39B0
2CF0
ENDCHAR
STARTCHAR Wacute
ENCODING 7810
SWIDTH 813 0
DWIDTH 7 0
BBX 7 8 0 0
BITMAP
0180
0240
A34C
A79C
7698
79E8
3CB4
3CB4
ENDCHAR
STARTCHAR wacute
ENCODING 7811
SWIDTH 776 0
DWIDTH 7 0
BBX 7 7 0 0
BITMAP
0180
0240
0000
A768
7764
39B0
2CF0
ENDCHAR
STARTCHAR Wdieresis
ENCODING 7812
SWIDTH 813 0
DWIDTH 7 0
BBX 7 7 0 0
BITMAP
0880
A34C
A79C
7698
79E8
3CB4
3CB4
ENDCHAR
STARTCHAR wdieresis
ENCODING 7813
SWIDTH 776 0
DWIDTH 7 0
BBX 7 6 0 0
BITMAP
0CC0
0000
A768
7764
39B0
2CF0
ENDCHAR
STARTCHAR uni1E8E
ENCODING 7822
SWIDTH 525 0
DWIDTH 5 0
BBX 5 7 0 0
BITMAP
1C00
E280
7700
3A00
1D00
1C00
1C00
ENDCHAR
STARTCHAR uni1E8F
ENCODING 7823
SWIDTH 521 0
DWIDTH 5 0
BBX 5 8 0 -2
BITMAP
1C00
0000
A340
7300
3A00
1D00
1C00
7400
ENDCHAR
STARTCHAR uni1E92
ENCODING 7826
SWIDTH 541 0
DWIDTH 5 0
BBX 5 8 0 -2
BITMAP
7F80
0740
0E00
2C00
7400
BF80
0000
0C00
ENDCHAR
STARTCHAR uni1E93
ENCODING 7827
SWIDTH 460 0
DWIDTH 4 0
BBX 4 6 0 -2
BITMAP
7F
1D
74
BF
00
18
ENDCHAR
STARTCHAR uni1E94
ENCODING 7828
SWIDTH 541 0
DWIDTH 5 0
BBX 5 8 0 -2
BITMAP
7F80
0740
0E00
2C00
7400
BF80
0000
2F00
ENDCHAR
STARTCHAR uni1E95
ENCODING 7829
SWIDTH 460 0
DWIDTH 4 0
BBX 4 6 0 -2
BITMAP
7F
1D
74
BF
00
3E
ENDCHAR
STARTCHAR uni1E96
ENCODING 7830
SWIDTH 571 0
DWIDTH 5 0
BBX 5 8 0 -2
BITMAP
7000
7000
7B40
7280
7280
7280
0000
2F00
ENDCHAR
STARTCHAR uni1E97
ENCODING 7831
SWIDTH 383 0
DWIDTH 3 0
BBX 4 7 0 0
BITMAP
CC
30
30
BC
70
74
2D
ENDCHAR
STARTCHAR uni1E9E
ENCODING 7838
SWIDTH 705 0
DWIDTH 6 0
BBX 6 6 0 0
BITMAP
1F80
34D0
7280
71E0
7070
77D0
ENDCHAR
STARTCHAR uni1EA0
ENCODING 7840
SWIDTH 573 0
DWIDTH 5 0
BBX 5 8 0 -2
BITMAP
1E00
2B00
3700
7340
BF80
D1C0
0000
0C00
ENDCHAR
STARTCHAR uni1EA1
ENCODING 7841
SWIDTH 527 0
DWIDTH 5 0
BBX 5 6 0 -2
BITMAP
6E00
3F40
A740
7B40
0000
1800
ENDCHAR
STARTCHAR uni1EA2
ENCODING 7842
SWIDTH 573 0
DWIDTH 5 0
BBX 5 8 0 0
BITMAP
1C00
0900
1E00
2B00
3700
7340
BF80
D1C0
ENDCHAR
STARTCHAR uni1EA3
ENCODING 7843
SWIDTH 527 0
DWIDTH 5 0
BBX 5 7 0 0
BITMAP
1800
0D00
0000
6E00
3F40
A740
7B40
ENDCHAR
STARTCHAR uni1EA4
ENCODING 7844
SWIDTH 573 0
DWIDTH 5 0
BBX 5 8 0 0
BITMAP
1D40
2600
1E00
2B00
3700
7340
BF80
D1C0
ENDCHAR
STARTCHAR uni1EA5
ENCODING 7845
SWIDTH 527 0
DWIDTH 5 0
BBX 5 8 0 0
BITMAP
0080
1D40
2600
0100
6E00
3F40
A740
7B40
ENDCHAR
STARTCHAR uni1EA6
ENCODING 7846
SWIDTH 573 0
DWIDTH 5 0
BBX 5 8 0 0
BITMAP
5D00
2600
1E00
2B00
3700
7340
BF80
D1C0
ENDCHAR
STARTCHAR uni1EA7
ENCODING 7847
SWIDTH 527 0
DWIDTH 5 0
BBX 5 8 0 0
BITMAP
8000
5D00
2600
0100
6E00
3F40
A740
7B40
ENDCHAR
STARTCHAR uni1EA8
ENCODING 7848
SWIDTH 573 0
DWIDTH 5 0
BBX 5 10 0 0
BITMAP
0240
0080
1E40
2600
1E00
2B00
3700
7340
BF80
D1C0
ENDCHAR
STARTCHAR uni1EA9
ENCODING 7849
SWIDTH 527 0
DWIDTH 5 0
BBX 5 9 0 0
BITMAP
0240
0180
1E40
2600
0100
6E00
3F40
A740
7B40
ENDCHAR
STARTCHAR uni1EAA
ENCODING 7850
SWIDTH 573 0
DWIDTH 5 0
BBX 5 11 0 0
BITMAP
1600
2A00
0000
1D00
2600
1E00
2B00
3700
7340
BF80
D1C0
ENDCHAR
STARTCHAR uni1EAB
ENCODING 7851
SWIDTH 527 0
DWIDTH 5 0
BBX 5 9 0 0
BITMAP
1600
2900
1000
1D00
2600
7F00
3F40
A740
7B40
ENDCHAR
STARTCHAR uni1EAC
ENCODING 7852
SWIDTH 573 0
DWIDTH 5 0
BBX 5 9 0 -2
BITMAP
2A00
1E00
2B00
3700
7340
BF80
D1C0
0000
0C00
ENDCHAR
STARTCHAR uni1EAD
ENCODING 7853
SWIDTH 527 0
DWIDTH 5 0
BBX 5 9 0 -2
BITMAP
2D00
2600
0000
6E00
3F40
A740
7B40
0000
1800
ENDCHAR
STARTCHAR uni1EAE
ENCODING 7854
SWIDTH 573 0
DWIDTH 5 0
BBX 5 10 0 0
BITMAP
0500
0900
2200
1D00
1E00
2B00
3700
7340
BF80
D1C0
ENDCHAR
STARTCHAR uni1EAF
ENCODING 7855
SWIDTH 527 0
DWIDTH 5 0
BBX 5 9 0 0
BITMAP
0500
0800
2200
2D00
0000
6E00
3F40
A740
7B40
ENDCHAR
STARTCHAR uni1EB0
ENCODING 7856
SWIDTH 573 0
DWIDTH 5 0
BBX 5 10 0 0
BITMAP
1400
0800
2200
1D00
1E00
2B00
3700
7340
BF80
D1C0
ENDCHAR
STARTCHAR uni1EB1
ENCODING 7857
SWIDTH 527 0
DWIDTH 5 0
BBX 5 9 0 0
BITMAP
1400
0800
2200
2D00
0000
6E00
3F40
A740
7B40
ENDCHAR
STARTCHAR uni1EB2
ENCODING 7858
SWIDTH 573 0
DWIDTH 5 0
BBX 5 11 0 0
BITMAP
0C00
0900
0800
2200
1D00
1E00
2B00
3700
7340
BF80
D1C0
ENDCHAR
STARTCHAR uni1EB3
ENCODING 7859
SWIDTH 527 0
DWIDTH 5 0
BBX 5 10 0 0
BITMAP
1800
0900
0800
2200
2D00
0000
6E00
3F40
A740
7B40
ENDCHAR
STARTCHAR uni1EB4
ENCODING 7860
SWIDTH 573 0
DWIDTH 5 0
BBX 5 11 0 0
BITMAP
1600
2A00
1000
2200
1D00
1E00
2B00
3700
7340
BF80
D1C0
ENDCHAR
STARTCHAR uni1EB5
ENCODING 7861
SWIDTH 527 0
DWIDTH 5 0
BBX 5 10 0 0
BITMAP
1600
2A00
1000
2200
1D00
0000
6E00
3F40
A740
7B40
ENDCHAR
STARTCHAR uni1EB6
ENCODING 7862
SWIDTH 573 0
DWIDTH 5 0
BBX 5 10 0 -2
BITMAP
2200
1E00
1E00
2B00
3700
7340
BF80
D1C0
0000
0C00
ENDCHAR
STARTCHAR uni1EB7
ENCODING 7863
SWIDTH 527 0
DWIDTH 5 0
BBX 5 9 0 -2
BITMAP
3300
2D00
0000
6E00
3F40
A740
7B40
0000
1800
ENDCHAR
STARTCHAR uni1EB8
ENCODING 7864
SWIDTH 548 0
DWIDTH 5 0
BBX 5 8 0 -2
BITMAP
7F40
7000
7F00
7000
7000
7F40
0000
0900
ENDCHAR
STARTCHAR uni1EB9
ENCODING 7865
SWIDTH 518 0
DWIDTH 5 0
BBX 5 6 0 -2
BITMAP
2E00
BF40
A000
2E00
0000
0C00
ENDCHAR
STARTCHAR uni1EBA
ENCODING 7866
SWIDTH 548 0
DWIDTH 5 0
BBX 5 8 0 0
BITMAP
0D00
0900
7F40
7000
7F00
7000
7000
7F40
ENDCHAR
STARTCHAR uni1EBB
ENCODING 7867
SWIDTH 518 0
DWIDTH 5 0
BBX 5 7 0 0
BITMAP
1800
0D00
0000
2E00
BF40
A000
2E00
ENDCHAR
STARTCHAR uni1EBC
ENCODING 7868
SWIDTH 548 0
DWIDTH 5 0
BBX 5 9 0 0
BITMAP
0100
2A40
2500
7F40
7000
7F00
7000
7000
7F40
ENDCHAR
STARTCHAR uni1EBD
ENCODING 7869
SWIDTH 518 0
DWIDTH 5 0
BBX 5 8 0 0
BITMAP
0100
3B00
6500
0000
2E00
BF40
A000
2E00
ENDCHAR
STARTCHAR uni1EBE
ENCODING 7870
SWIDTH 548 0
DWIDTH 5 0
BBX 5 8 0 0
BITMAP
1E40
2600
7F40
7000
7F00
7000
7000
7F40
ENDCHAR
STARTCHAR uni1EBF
ENCODING 7871
SWIDTH 518 0
DWIDTH 5 0
BBX 5 8 0 0
BITMAP
0080
1D40
2600
0100
2E00
BF40
A000
2E00
ENDCHAR
STARTCHAR uni1EC0
ENCODING 7872
SWIDTH 548 0
DWIDTH 5 0
BBX 5 8 0 0
BITMAP
5D00
2600
7F40
7000
7F00
7000
7000
7F40
ENDCHAR
STARTCHAR uni1EC1
ENCODING 7873
SWIDTH 518 0
DWIDTH 5 0
BBX 5 8 0 0
BITMAP
8000
5C00
2600
0100
2E00
BF40
A000
2E00
ENDCHAR
STARTCHAR uni1EC2
ENCODING 7874
SWIDTH 548 0
DWIDTH 5 0
BBX 5 10 0 0
BITMAP
0180
00C0
1E80
2600
7F40
7000
7F00
7000
7000
7F40
ENDCHAR
STARTCHAR uni1EC3
ENCODING 7875
SWIDTH 518 0
DWIDTH 5 0
BBX 5 9 0 0
BITMAP
0240
0180
1E40
2600
0100
2E00
BF40
A000
2E00
ENDCHAR
STARTCHAR uni1EC4
ENCODING 7876
SWIDTH 548 0
DWIDTH 5 0
BBX 5 11 0 0
BITMAP
1600
2A00
0000
1D00
2600
7F40
7000
7F00
7000
7000
7F40
ENDCHAR
STARTCHAR uni1EC5
ENCODING 7877
SWIDTH 518 0
DWIDTH 5 0
BBX 5 9 0 0
BITMAP
1600
2900
1000
1C00
2600
3F00
BF40
A000
2E00
ENDCHAR
STARTCHAR uni1EC6
ENCODING 7878
SWIDTH 548 0
DWIDTH 5 0
BBX 5 9 0 -2
BITMAP
2A00
7F40
7000
7F00
7000
7000
7F40
0000
0900
ENDCHAR
STARTCHAR uni1EC7
ENCODING 7879
SWIDTH 518 0
DWIDTH 5 0
BBX 5 9 0 -2
BITMAP
2D00
2600
0000
2E00
BF40
A000
2E00
0000
0C00
ENDCHAR
STARTCHAR uni1EC8
ENCODING 7880
SWIDTH 301 0
DWIDTH 3 0
BBX 2 8 0 0
BITMAP
60
30
70
70
70
70
70
70
ENDCHAR
STARTCHAR uni1EC9
ENCODING 7881
SWIDTH 276 0
DWIDTH 2 0
BBX 2 7 0 0
BITMAP
A0
30
00
70
70
70
70
ENDCHAR
STARTCHAR uni1ECA
ENCODING 7882
SWIDTH 301 0
DWIDTH 3 0
BBX 2 8 0 -2
BITMAP
70
70
70
70
70
70
00
60
ENDCHAR
STARTCHAR uni1ECB
ENCODING 7883
SWIDTH 276 0
DWIDTH 2 0
BBX 2 9 0 -2
BITMAP
10
60
00
70
70
70
70
00
60
ENDCHAR
STARTCHAR uni1ECC
ENCODING 7884
SWIDTH 684 0
DWIDTH 6 0
BBX 6 8 0 -2
BITMAP
1F80
74D0
A0A0
A0A0
74D0
1F80
0000
0600
ENDCHAR
STARTCHAR uni1ECD
ENCODING 7885
SWIDTH 555 0
DWIDTH 5 0
BBX 5 6 0 -2
BITMAP
2E00
B380
B380
2E00
0000
0C00
ENDCHAR
STARTCHAR uni1ECE
ENCODING 7886
SWIDTH 684 0
DWIDTH 6 0
BBX 6 8 0 0
BITMAP
0A00
0600
1F80
74D0
A0A0
A0A0
74D0
1F80
ENDCHAR
STARTCHAR uni1ECF
ENCODING 7887
SWIDTH 555 0
DWIDTH 5 0
BBX 5 7 0 0
BITMAP
1C00
0900
0000
2E00
B380
B380
2E00
ENDCHAR
STARTCHAR uni1ED0
ENCODING 7888
SWIDTH 684 0
DWIDTH 6 0
BBX 6 8 0 0
BITMAP
0B80
0A40
1F80
74D0
A0A0
A0A0
74D0
1F80
ENDCHAR
STARTCHAR uni1ED1
ENCODING 7889
SWIDTH 555 0
DWIDTH 5 0
BBX 5 8 0 0
BITMAP
0080
1D40
2600
0100
2E00
B380
B380
2E00
ENDCHAR
STARTCHAR uni1ED2
ENCODING 7890
SWIDTH 684 0
DWIDTH 6 0
BBX 6 8 0 0
BITMAP
2B00
0A40
1F80
74D0
A0A0
A0A0
74D0
1F80
ENDCHAR
STARTCHAR uni1ED3
ENCODING 7891
SWIDTH 555 0
DWIDTH 5 0
BBX 5 8 0 0
BITMAP
8000
5D00
2600
0100
2E00
B380
B380
2E00
ENDCHAR
STARTCHAR uni1ED4
ENCODING 7892
SWIDTH 684 0
DWIDTH 6 0
BBX 6 10 0 0
BITMAP
00C0
0090
0B80
0A40
1F80
74D0
A0A0
A0A0
74D0
1F80
ENDCHAR
STARTCHAR uni1ED5
ENCODING 7893
SWIDTH 555 0
DWIDTH 5 0
BBX 5 9 0 0
BITMAP
0240
0180
1E40
2600
0100
2E00
B380
B380
2E00
ENDCHAR
STARTCHAR uni1ED6
ENCODING 7894
SWIDTH 684 0
DWIDTH 6 0
BBX 6 11 0 0
BITMAP
0940
1B40
0000
0B00
0A40
1F80
74D0
A0A0
A0A0
74D0
1F80
ENDCHAR
STARTCHAR uni1ED7
ENCODING 7895
SWIDTH 555 0
DWIDTH 5 0
BBX 5 9 0 0
BITMAP
1600
2A00
1000
1D00
2600
3F00
B380
B380
2E00
ENDCHAR
STARTCHAR uni1ED8
ENCODING 7896
SWIDTH 684 0
DWIDTH 6 0
BBX 6 9 0 -2
BITMAP
0A40
1F80
74D0
A0A0
A0A0
74D0
1F80
0000
0600
ENDCHAR
STARTCHAR uni1ED9
ENCODING 7897
SWIDTH 555 0
DWIDTH 5 0
BBX 5 9 0 -2
BITMAP
2E00
2600
0000
2E00
B380
B380
2E00
0000
0C00
ENDCHAR
STARTCHAR uni1EDA
ENCODING 7898
SWIDTH 684 0
DWIDTH 6 0
BBX 6 8 0 0
BITMAP
0250
0670
1FD0
74D0
B0A0
B0A0
74D0
1F80
ENDCHAR
STARTCHAR uni1EDB
ENCODING 7899
SWIDTH 555 0
DWIDTH 5 0
BBX 5 7 0 0
BITMAP
0640
09C0
2F40
7340
A280
7340
2E00
ENDCHAR
STARTCHAR uni1EDC
ENCODING 7900
SWIDTH 684 0
DWIDTH 6 0
BBX 6 8 0 0
BITMAP
1810
0970
1FD0
74D0
B0A0
B0A0
74D0
1F80
ENDCHAR
STARTCHAR uni1EDD
ENCODING 7901
SWIDTH 555 0
DWIDTH 5 0
BBX 5 7 0 0
BITMAP
2440
18C0
2F40
7340
A280
7340
2E00
ENDCHAR
STARTCHAR uni1EDE
ENCODING 7902
SWIDTH 684 0
DWIDTH 6 0
BBX 6 8 0 0
BITMAP
0A10
0670
1FD0
74D0
B0A0
B0A0
74D0
1F80
ENDCHAR
STARTCHAR uni1EDF
ENCODING 7903
SWIDTH 555 0
DWIDTH 5 0
BBX 5 7 0 0
BITMAP
1C40
09C0
2F40
7340
A280
7340
2E00
ENDCHAR
STARTCHAR uni1EE0
ENCODING 7904
SWIDTH 684 0
DWIDTH 6 0
BBX 6 9 0 0
BITMAP
0040
1E90
2670
1FD0
74D0
B0A0
B0A0
74D0
1F80
ENDCHAR
STARTCHAR uni1EE1
ENCODING 7905
SWIDTH 555 0
DWIDTH 5 0
BBX 5 8 0 0
BITMAP
0100
7A40
59C0
2F40
7340
A280
7340
2E00
ENDCHAR
STARTCHAR uni1EE2
ENCODING 7906
SWIDTH 684 0
DWIDTH 6 0
BBX 6 10 0 -2
BITMAP
0010
0070
1FD0
74D0
B0A0
B0A0
74D0
1F80
0000
0600
ENDCHAR
STARTCHAR uni1EE3
ENCODING 7907
SWIDTH 555 0
DWIDTH 5 0
BBX 5 9 0 -2
BITMAP
0040
00C0
2F40
7340
A280
7340
2E00
0000
0C00
ENDCHAR
STARTCHAR uni1EE4
ENCODING 7908
SWIDTH 665 0
DWIDTH 6 0
BBX 6 8 0 -2
BITMAP
70D0
70D0
70D0
70D0
35C0
1F40
0000
0A00
ENDCHAR
STARTCHAR uni1EE5
ENCODING 7909
SWIDTH 568 0
DWIDTH 5 0
BBX 5 6 0 -2
BITMAP
7280
7280
7380
3E80
0000
0900
ENDCHAR
STARTCHAR uni1EE6
ENCODING 7910
SWIDTH 665 0
DWIDTH 6 0
BBX 6 8 0 0
BITMAP
0A00
0600
70D0
70D0
70D0
70D0
35C0
1F40
ENDCHAR
STARTCHAR uni1EE7
ENCODING 7911
SWIDTH 568 0
DWIDTH 5 0
BBX 5 7 0 0
BITMAP
1C00
0900
0000
7280
7280
7380
3E80
ENDCHAR
STARTCHAR uni1EE8
ENCODING 7912
SWIDTH 683 0
DWIDTH 6 0
BBX 7 8 0 0
BITMAP
0254
0624
70F0
70D0
70D0
70D0
35C0
1F40
ENDCHAR
STARTCHAR uni1EE9
ENCODING 7913
SWIDTH 568 0
DWIDTH 5 0
BBX 6 7 0 0
BITMAP
0600
0950
0090
72C0
7280
7380
3E80
ENDCHAR
STARTCHAR uni1EEA
ENCODING 7914
SWIDTH 683 0
DWIDTH 6 0
BBX 7 8 0 0
BITMAP
1814
0924
70F0
70D0
70D0
70D0
35C0
1F40
ENDCHAR
STARTCHAR uni1EEB
ENCODING 7915
SWIDTH 568 0
DWIDTH 5 0
BBX 6 7 0 0
BITMAP
2400
1850
0090
72C0
7280
7380
3E80
ENDCHAR
STARTCHAR uni1EEC
ENCODING 7916
SWIDTH 683 0
DWIDTH 6 0
BBX 7 8 0 0
BITMAP
0A14
0624
70F0
70D0
70D0
70D0
35C0
1F40
ENDCHAR
STARTCHAR uni1EED
ENCODING 7917
SWIDTH 568 0
DWIDTH 5 0
BBX 6 7 0 0
BITMAP
1800
0D50
0090
72C0
7280
7380
3E80
ENDCHAR
STARTCHAR uni1EEE
ENCODING 7918
SWIDTH 683 0
DWIDTH 6 0
BBX 7 9 0 0
BITMAP
0040
1E94
2624
70F0
70D0
70D0
70D0
35C0
1F40
ENDCHAR
STARTCHAR uni1EEF
ENCODING 7919
SWIDTH 568 0
DWIDTH 5 0
BBX 6 8 0 0
BITMAP
0100
3B00
6550
0090
72C0
7280
7380
3E80
ENDCHAR
STARTCHAR uni1EF0
ENCODING 7920
SWIDTH 683 0
DWIDTH 6 0
BBX 7 10 0 -2
BITMAP
0014
0024
70F0
70D0
70D0
70D0
35C0
1F40
0000
0A00
ENDCHAR
STARTCHAR uni1EF1
ENCODING 7921
SWIDTH 568 0
DWIDTH 5 0
BBX 6 8 0 -2
BITMAP
0050
0090
72C0
7280
7380
3E80
0000
0D00
ENDCHAR
STARTCHAR Ygrave
ENCODING 7922
SWIDTH 525 0
DWIDTH 5 0
BBX 5 8 0 0
BITMAP
2400
1800
E280
7700
3A00
1D00
1C00
1C00
ENDCHAR
STARTCHAR ygrave
ENCODING 7923
SWIDTH 521 0
DWIDTH 5 0
BBX 5 9 0 -2
BITMAP
2000
1800
0000
A340
7300
3A00
1D00
1C00
7400
ENDCHAR
STARTCHAR uni1EF4
ENCODING 7924
SWIDTH 525 0
DWIDTH 5 0
BBX 5 8 0 -2
BITMAP
E280
7700
3A00
1D00
1C00
1C00
0000
1C00
ENDCHAR
STARTCHAR uni1EF5
ENCODING 7925
SWIDTH 521 0
DWIDTH 5 0
BBX 5 6 0 -2
BITMAP
A340
7300
3A00
1D00
1C00
7680
ENDCHAR
STARTCHAR uni1EF6
ENCODING 7926
SWIDTH 525 0
DWIDTH 5 0
BBX 5 8 0 0
BITMAP
1800
0C00
E280
7700
3A00
1D00
1C00
1C00
ENDCHAR
STARTCHAR uni1EF7
ENCODING 7927
SWIDTH 521 0
DWIDTH 5 0
BBX 5 9 0 -2
BITMAP
1800
0C00
0000
A340
7300
3A00
1D00
1C00
7400
ENDCHAR
STARTCHAR uni1EF8
ENCODING 7928
SWIDTH 525 0
DWIDTH 5 0
BBX 5 9 0 0
BITMAP
0100
3B00
6500
E280
7700
3A00
1D00
1C00
1C00
ENDCHAR
STARTCHAR uni1EF9
ENCODING 7929
SWIDTH 521 0
DWIDTH 5 0
BBX 5 10 0 -2
BITMAP
0100
3B00
6500
0000
A340
7300
3A00
1D00
1C00
7400
ENDCHAR
STARTCHAR uni1F00
ENCODING 7936
SWIDTH 595 0
DWIDTH 5 0
BBX 6 7 0 0
BITMAP
0D00
0900
0000
2EC0
A380
A340
7ED0
ENDCHAR
STARTCHAR uni1F01
ENCODING 7937
SWIDTH 595 0
DWIDTH 5 0
BBX 6 7 0 0
BITMAP
0900
0C00
0000
2EC0
A380
A340
7ED0
ENDCHAR
STARTCHAR uni1F02
ENCODING 7938
SWIDTH 595 0
DWIDTH 5 0
BBX 6 7 0 0
BITMAP
3600
2600
0000
2EC0
A380
A340
7ED0
ENDCHAR
STARTCHAR uni1F03
ENCODING 7939
SWIDTH 595 0
DWIDTH 5 0
BBX 6 7 0 0
BITMAP
2A00
3200
0000
2EC0
A380
A340
7ED0
ENDCHAR
STARTCHAR uni1F04
ENCODING 7940
SWIDTH 595 0
DWIDTH 5 0
BBX 6 7 0 0
BITMAP
3700
2600
0000
2EC0
A380
A340
7ED0
ENDCHAR
STARTCHAR uni1F05
ENCODING 7941
SWIDTH 595 0
DWIDTH 5 0
BBX 6 7 0 0
BITMAP
2B00
3600
0000
2EC0
A380
A340
7ED0
ENDCHAR
STARTCHAR uni1F06
ENCODING 7942
SWIDTH 595 0
DWIDTH 5 0
BBX 6 8 0 0
BITMAP
1A00
2600
0D00
0400
2EC0
A380
A340
7ED0
ENDCHAR
STARTCHAR uni1F07
ENCODING 7943
SWIDTH 595 0
DWIDTH 5 0
BBX 6 8 0 0
BITMAP
1A00
2600
0900
0800
2EC0
A380
A340
7ED0
ENDCHAR
STARTCHAR uni1F08
ENCODING 7944
SWIDTH 655 0
DWIDTH 6 0
BBX 6 6 0 0
BITMAP
DB40
AE80
5DC0
29D0
3FD0
34A0
ENDCHAR
STARTCHAR uni1F09
ENCODING 7945
SWIDTH 639 0
DWIDTH 6 0
BBX 6 6 0 0
BITMAP
9B00
DE40
5E80
29C0
3FD0
70A0
ENDCHAR
STARTCHAR uni1F0A
ENCODING 7946
SWIDTH 822 0
DWIDTH 7 0
BBX 8 6 0 0
BITMAP
D8E0
9DB0
0274
0368
07FC
0A0D
ENDCHAR
STARTCHAR uni1F0B
ENCODING 7947
SWIDTH 821 0
DWIDTH 7 0
BBX 8 6 0 0
BITMAP
98E0
CDB0
4274
0368
07FC
0A0D
ENDCHAR
STARTCHAR uni1F0C
ENCODING 7948
SWIDTH 812 0
DWIDTH 7 0
BBX 8 6 0 0
BITMAP
DDE0
1AB0
0274
0368
07FC
0A1D
ENDCHAR
STARTCHAR uni1F0D
ENCODING 7949
SWIDTH 811 0
DWIDTH 7 0
BBX 8 6 0 0
BITMAP
9DE0
DAB0
4374
0368
07FC
0A1D
ENDCHAR
STARTCHAR uni1F0E
ENCODING 7950
SWIDTH 679 0
DWIDTH 6 0
BBX 6 6 0 0
BITMAP
FB40
9A80
5DC0
1CD0
2FE0
3470
ENDCHAR
STARTCHAR uni1F0F
ENCODING 7951
SWIDTH 679 0
DWIDTH 6 0
BBX 6 6 0 0
BITMAP
FB40
6A80
5DC0
1CD0
2FE0
3470
ENDCHAR
STARTCHAR uni1F10
ENCODING 7952
SWIDTH 471 0
DWIDTH 4 0
BBX 4 7 0 0
BITMAP
18
0C
00
7E
7D
A0
7E
ENDCHAR
STARTCHAR uni1F11
ENCODING 7953
SWIDTH 471 0
DWIDTH 4 0
BBX 4 7 0 0
BITMAP
1C
18
00
7E
7D
A0
7E
ENDCHAR
STARTCHAR uni1F12
ENCODING 7954
SWIDTH 471 0
DWIDTH 4 0
BBX 4 7 0 0
BITMAP
69
36
00
7E
7D
A0
7E
ENDCHAR
STARTCHAR uni1F13
ENCODING 7955
SWIDTH 471 0
DWIDTH 4 0
BBX 4 7 0 0
BITMAP
39
66
00
7E
7D
A0
7E
ENDCHAR
STARTCHAR uni1F14
ENCODING 7956
SWIDTH 471 0
DWIDTH 4 0
BBX 4 7 0 0
BITMAP
66
35
00
7E
7D
A0
7E
ENDCHAR
STARTCHAR uni1F15
ENCODING 7957
SWIDTH 471 0
DWIDTH 4 0
BBX 4 7 0 0
BITMAP
3A
65
00
7E
7D
A0
7E
ENDCHAR
STARTCHAR uni1F18
ENCODING 7960
SWIDTH 711 0
DWIDTH 6 0
BBX 6 6 0 0
BITMAP
DFE0
9D00
4FD0
0D00
0D00
0FF0
ENDCHAR
STARTCHAR uni1F19
ENCODING 7961
SWIDTH 711 0
DWIDTH 6 0
BBX 6 6 0 0
BITMAP
9FE0
CD00
4FD0
0D00
0D00
0FF0
ENDCHAR
STARTCHAR uni1F1A
ENCODING 7962
SWIDTH 874 0
DWIDTH 8 0
BBX 8 6 0 0
BITMAP
D9FD
9DC0
01FC
01C0
01C0
01FD
ENDCHAR
STARTCHAR uni1F1B
ENCODING 7963
SWIDTH 873 0
DWIDTH 8 0
BBX 8 6 0 0
BITMAP
99FD
CDC0
41FC
01C0
01C0
01FD
ENDCHAR
STARTCHAR uni1F1C
ENCODING 7964
SWIDTH 864 0
DWIDTH 8 0
BBX 8 6 0 0
BITMAP
DDFD
19C0
01FC
01C0
01C0
01FD
ENDCHAR
STARTCHAR uni1F1D
ENCODING 7965
SWIDTH 863 0
DWIDTH 8 0
BBX 8 6 0 0
BITMAP
9DFD
D9C0
41FC
01C0
01C0
01FD
ENDCHAR
STARTCHAR uni1F20
ENCODING 7968
SWIDTH 562 0
DWIDTH 5 0
BBX 5 8 0 -1
BITMAP
0D00
0A00
0000
6B40
7680
7280
7280
0280
ENDCHAR
STARTCHAR uni1F21
ENCODING 7969
SWIDTH 562 0
DWIDTH 5 0
BBX 5 8 0 -1
BITMAP
0A00
0C00
0000
6B40
7680
7280
7280
0280
ENDCHAR
STARTCHAR uni1F22
ENCODING 7970
SWIDTH 562 0
DWIDTH 5 0
BBX 5 8 0 -1
BITMAP
3700
2600
0000
6B40
7680
7280
7280
0280
ENDCHAR
STARTCHAR uni1F23
ENCODING 7971
SWIDTH 562 0
DWIDTH 5 0
BBX 5 8 0 -1
BITMAP
2B00
2200
0000
6B40
7680
7280
7280
0280
ENDCHAR
STARTCHAR uni1F24
ENCODING 7972
SWIDTH 562 0
DWIDTH 5 0
BBX 5 8 0 -1
BITMAP
3700
2600
0000
6B40
7680
7280
7280
0280
ENDCHAR
STARTCHAR uni1F25
ENCODING 7973
SWIDTH 562 0
DWIDTH 5 0
BBX 5 8 0 -1
BITMAP
2B00
2600
0000
6B40
7680
7280
7280
0280
ENDCHAR
STARTCHAR uni1F26
ENCODING 7974
SWIDTH 562 0
DWIDTH 5 0
BBX 5 9 0 -1
BITMAP
1A00
2600
0D00
0500
6B40
7680
7280
7280
0280
ENDCHAR
STARTCHAR uni1F27
ENCODING 7975
SWIDTH 562 0
DWIDTH 5 0
BBX 5 9 0 -1
BITMAP
1A00
2600
0900
0800
6B40
7680
7280
7280
0280
ENDCHAR
STARTCHAR uni1F28
ENCODING 7976
SWIDTH 836 0
DWIDTH 8 0
BBX 7 6 0 0
BITMAP
DD1C
9D1C
4FFC
0D1C
0D1C
0D1C
ENDCHAR
STARTCHAR uni1F29
ENCODING 7977
SWIDTH 836 0
DWIDTH 8 0
BBX 7 6 0 0
BITMAP
9D1C
CD1C
4FFC
0D1C
0D1C
0D1C
ENDCHAR
STARTCHAR uni1F2A
ENCODING 7978
SWIDTH 999 0
DWIDTH 9 0
BBX 9 6 0 0
BITMAP
D9C340
9DC340
01FF40
01C340
01C340
01C340
ENDCHAR
STARTCHAR uni1F2B
ENCODING 7979
SWIDTH 998 0
DWIDTH 9 0
BBX 9 6 0 0
BITMAP
99C340
CDC340
41FF40
01C340
01C340
01C340
ENDCHAR
STARTCHAR uni1F2C
ENCODING 7980
SWIDTH 990 0
DWIDTH 9 0
BBX 9 6 0 0
BITMAP
DDC340
19C340
01FF40
01C340
01C340
01C340
ENDCHAR
STARTCHAR uni1F2D
ENCODING 7981
SWIDTH 988 0
DWIDTH 9 0
BBX 9 6 0 0
BITMAP
9DC340
D9C340
41FF40
01C340
01C340
01C340
ENDCHAR
STARTCHAR uni1F2E
ENCODING 7982
SWIDTH 896 0
DWIDTH 8 0
BBX 8 6 0 0
BITMAP
F70D
970D
57FD
070D
070D
070D
ENDCHAR
STARTCHAR uni1F2F
ENCODING 7983
SWIDTH 896 0
DWIDTH 8 0
BBX 8 6 0 0
BITMAP
F70D
670D
57FD
070D
070D
070D
ENDCHAR
STARTCHAR uni1F30
ENCODING 7984
SWIDTH 301 0
DWIDTH 3 0
BBX 3 7 0 0
BITMAP
A0
30
00
70
70
70
78
ENDCHAR
STARTCHAR uni1F31
ENCODING 7985
SWIDTH 301 0
DWIDTH 3 0
BBX 3 7 0 0
BITMAP
70
A0
00
70
70
70
78
ENDCHAR
STARTCHAR uni1F32
ENCODING 7986
SWIDTH 301 0
DWIDTH 3 0
BBX 4 7 -1 0
BITMAP
69
25
00
1C
1C
1C
1E
ENDCHAR
STARTCHAR uni1F33
ENCODING 7987
SWIDTH 301 0
DWIDTH 3 0
BBX 4 7 -1 0
BITMAP
79
65
00
1C
1C
1C
1E
ENDCHAR
STARTCHAR uni1F34
ENCODING 7988
SWIDTH 301 0
DWIDTH 3 0
BBX 4 7 -1 0
BITMAP
66
29
00
1C
1C
1C
1E
ENDCHAR
STARTCHAR uni1F35
ENCODING 7989
SWIDTH 301 0
DWIDTH 3 0
BBX 4 7 -1 0
BITMAP
7A
69
00
1C
1C
1C
1E
ENDCHAR
STARTCHAR uni1F36
ENCODING 7990
SWIDTH 301 0
DWIDTH 3 0
BBX 3 8 0 0
BITMAP
98
A4
60
20
70
70
70
78
ENDCHAR
STARTCHAR uni1F37
ENCODING 7991
SWIDTH 301 0
DWIDTH 3 0
BBX 3 8 0 0
BITMAP
98
A4
60
50
70
70
70
78
ENDCHAR
STARTCHAR uni1F38
ENCODING 7992
SWIDTH 464 0
DWIDTH 4 0
BBX 4 6 0 0
BITMAP
DD
9D
4D
0D
0D
0D
ENDCHAR
STARTCHAR uni1F39
ENCODING 7993
SWIDTH 464 0
DWIDTH 4 0
BBX 4 6 0 0
BITMAP
9D
CD
4D
0D
0D
0D
ENDCHAR
STARTCHAR uni1F3A
ENCODING 7994
SWIDTH 627 0
DWIDTH 6 0
BBX 5 6 0 0
BITMAP
D9C0
9DC0
01C0
01C0
01C0
01C0
ENDCHAR
STARTCHAR uni1F3B
ENCODING 7995
SWIDTH 626 0
DWIDTH 6 0
BBX 5 6 0 0
BITMAP
99C0
CDC0
41C0
01C0
01C0
01C0
ENDCHAR
STARTCHAR uni1F3C
ENCODING 7996
SWIDTH 617 0
DWIDTH 6 0
BBX 5 6 0 0
BITMAP
DDC0
19C0
01C0
01C0
01C0
01C0
ENDCHAR
STARTCHAR uni1F3D
ENCODING 7997
SWIDTH 616 0
DWIDTH 6 0
BBX 5 6 0 0
BITMAP
9DC0
D9C0
41C0
01C0
01C0
01C0
ENDCHAR
STARTCHAR uni1F3E
ENCODING 7998
SWIDTH 524 0
DWIDTH 5 0
BBX 4 6 0 0
BITMAP
F7
97
57
07
07
07
ENDCHAR
STARTCHAR uni1F3F
ENCODING 7999
SWIDTH 524 0
DWIDTH 5 0
BBX 4 6 0 0
BITMAP
F7
67
57
07
07
07
ENDCHAR
STARTCHAR uni1F40
ENCODING 8000
SWIDTH 553 0
DWIDTH 5 0
BBX 5 7 0 0
BITMAP
1C00
0900
0000
2E00
B380
B380
2E00
ENDCHAR
STARTCHAR uni1F41
ENCODING 8001
SWIDTH 553 0
DWIDTH 5 0
BBX 5 7 0 0
BITMAP
0900
1800
0000
2E00
B380
B380
2E00
ENDCHAR
STARTCHAR uni1F42
ENCODING 8002
SWIDTH 553 0
DWIDTH 5 0
BBX 5 7 0 0
BITMAP
6600
2600
0000
2E00
B380
B380
2E00
ENDCHAR
STARTCHAR uni1F43
ENCODING 8003
SWIDTH 553 0
DWIDTH 5 0
BBX 5 7 0 0
BITMAP
2A00
2200
0000
2E00
B380
B380
2E00
ENDCHAR
STARTCHAR uni1F44
ENCODING 8004
SWIDTH 553 0
DWIDTH 5 0
BBX 5 7 0 0
BITMAP
6600
2500
0000
2E00
B380
B380
2E00
ENDCHAR
STARTCHAR uni1F45
ENCODING 8005
SWIDTH 553 0
DWIDTH 5 0
BBX 5 7 0 0
BITMAP
2A00
2500
0000
2E00
B380
B380
2E00
ENDCHAR
STARTCHAR uni1F48
ENCODING 8008
SWIDTH 827 0
DWIDTH 7 0
BBX 7 6 0 0
BITMAP
D6E0
AE28
5C1C
1C1C
0E28
06E0
ENDCHAR
STARTCHAR uni1F49
ENCODING 8009
SWIDTH 808 0
DWIDTH 7 0
BBX 7 6 0 0
BITMAP
97E0
DD38
5C28
1C28
0D34
07E0
ENDCHAR
STARTCHAR uni1F4A
ENCODING 8010
SWIDTH 984 0
DWIDTH 9 0
BBX 9 6 0 0
BITMAP
D8BD00
9DC740
028340
028340
01C740
00BD00
ENDCHAR
STARTCHAR uni1F4B
ENCODING 8011
SWIDTH 996 0
DWIDTH 9 0
BBX 9 6 0 0
BITMAP
98BD00
CDC740
428340
028340
01C740
00BD00
ENDCHAR
STARTCHAR uni1F4C
ENCODING 8012
SWIDTH 974 0
DWIDTH 9 0
BBX 9 6 0 0
BITMAP
DCB900
1A8700
034340
034340
028700
00B900
ENDCHAR
STARTCHAR uni1F4D
ENCODING 8013
SWIDTH 973 0
DWIDTH 9 0
BBX 9 6 0 0
BITMAP
9CB900
DA8700
434340
034340
028700
00B900
ENDCHAR
STARTCHAR uni1F50
ENCODING 8016
SWIDTH 532 0
DWIDTH 5 0
BBX 5 7 0 0
BITMAP
1800
0C00
0000
A340
A340
A340
2E00
ENDCHAR
STARTCHAR uni1F51
ENCODING 8017
SWIDTH 532 0
DWIDTH 5 0
BBX 5 7 0 0
BITMAP
1C00
1800
0000
A340
A340
A340
2E00
ENDCHAR
STARTCHAR uni1F52
ENCODING 8018
SWIDTH 532 0
DWIDTH 5 0
BBX 5 7 0 0
BITMAP
6A00
3600
0000
A340
A340
A340
2E00
ENDCHAR
STARTCHAR uni1F53
ENCODING 8019
SWIDTH 532 0
DWIDTH 5 0
BBX 5 7 0 0
BITMAP
3A00
6600
0000
A340
A340
A340
2E00
ENDCHAR
STARTCHAR uni1F54
ENCODING 8020
SWIDTH 532 0
DWIDTH 5 0
BBX 5 7 0 0
BITMAP
6600
3500
0000
A340
A340
A340
2E00
ENDCHAR
STARTCHAR uni1F55
ENCODING 8021
SWIDTH 532 0
DWIDTH 5 0
BBX 5 7 0 0
BITMAP
3A00
6500
0000
A340
A340
A340
2E00
ENDCHAR
STARTCHAR uni1F56
ENCODING 8022
SWIDTH 532 0
DWIDTH 5 0
BBX 5 8 0 0
BITMAP
2600
2900
1800
0800
A340
A340
A340
2E00
ENDCHAR
STARTCHAR uni1F57
ENCODING 8023
SWIDTH 532 0
DWIDTH 5 0
BBX 5 8 0 0
BITMAP
2600
2900
1C00
0400
A340
A340
A340
2E00
ENDCHAR
STARTCHAR uni1F59
ENCODING 8025
SWIDTH 731 0
DWIDTH 7 0
BBX 7 6 0 0
BITMAP
AD34
CA70
43A0
02C0
01C0
01C0
ENDCHAR
STARTCHAR uni1F5B
ENCODING 8027
SWIDTH 910 0
DWIDTH 8 0
BBX 8 6 0 0
BITMAP
99C7
CCDA
406C
0038
0028
0028
ENDCHAR
STARTCHAR uni1F5D
ENCODING 8029
SWIDTH 900 0
DWIDTH 8 0
BBX 8 6 0 0
BITMAP
9DC7
D8D9
40AC
0038
0034
0034
ENDCHAR
STARTCHAR uni1F5F
ENCODING 8031
SWIDTH 794 0
DWIDTH 7 0
BBX 7 6 0 0
BITMAP
FB1C
6368
52B0
00E0
00D0
00D0
ENDCHAR
STARTCHAR uni1F60
ENCODING 8032
SWIDTH 746 0
DWIDTH 7 0
BBX 7 7 0 0
BITMAP
0600
0300
0000
7070
A734
A734
3EE0
ENDCHAR
STARTCHAR uni1F61
ENCODING 8033
SWIDTH 746 0
DWIDTH 7 0
BBX 7 7 0 0
BITMAP
0700
0600
0000
7070
A734
A734
3EE0
ENDCHAR
STARTCHAR uni1F62
ENCODING 8034
SWIDTH 746 0
DWIDTH 7 0
BBX 7 7 0 0
BITMAP
1A80
0D80
0000
7070
A734
A734
3EE0
ENDCHAR
STARTCHAR uni1F63
ENCODING 8035
SWIDTH 746 0
DWIDTH 7 0
BBX 7 7 0 0
BITMAP
0E80
1980
0000
7070
A734
A734
3EE0
ENDCHAR
STARTCHAR uni1F64
ENCODING 8036
SWIDTH 746 0
DWIDTH 7 0
BBX 7 7 0 0
BITMAP
1980
0D40
0000
7070
A734
A734
3EE0
ENDCHAR
STARTCHAR uni1F65
ENCODING 8037
SWIDTH 746 0
DWIDTH 7 0
BBX 7 7 0 0
BITMAP
0E80
1940
0000
7070
A734
A734
3EE0
ENDCHAR
STARTCHAR uni1F66
ENCODING 8038
SWIDTH 746 0
DWIDTH 7 0
BBX 7 8 0 0
BITMAP
0980
0A40
0600
0200
7070
A734
A734
3EE0
ENDCHAR
STARTCHAR uni1F67
ENCODING 8039
SWIDTH 746 0
DWIDTH 7 0
BBX 7 8 0 0
BITMAP
0980
0A40
0700
0100
7070
A734
A734
3EE0
ENDCHAR
STARTCHAR uni1F68
ENCODING 8040
SWIDTH 853 0
DWIDTH 8 0
BBX 8 6 0 0
BITMAP
D6E0
AE28
4D1C
0D1C
0A28
1F7D
ENDCHAR
STARTCHAR uni1F69
ENCODING 8041
SWIDTH 835 0
DWIDTH 8 0
BBX 7 6 0 0
BITMAP
97E0
CD28
5C1C
1C2C
0A34
2F7C
ENDCHAR
STARTCHAR uni1F6A
ENCODING 8042
SWIDTH 1018 0
DWIDTH 9 0
BBX 9 6 0 0
BITMAP
D8BD00
9DD740
028280
028380
01D700
03EB80
ENDCHAR
STARTCHAR uni1F6B
ENCODING 8043
SWIDTH 1017 0
DWIDTH 9 0
BBX 9 6 0 0
BITMAP
98BD00
CDD740
428280
028380
01D700
03EB80
ENDCHAR
STARTCHAR uni1F6C
ENCODING 8044
SWIDTH 1008 0
DWIDTH 9 0
BBX 9 6 0 0
BITMAP
DCBD00
19C740
028340
028340
01D700
03DB80
ENDCHAR
STARTCHAR uni1F6D
ENCODING 8045
SWIDTH 1007 0
DWIDTH 9 0
BBX 9 6 0 0
BITMAP
9CBD00
D9C740
428340
028340
01C700
03DB80
ENDCHAR
STARTCHAR uni1F6E
ENCODING 8046
SWIDTH 877 0
DWIDTH 8 0
BBX 8 6 0 0
BITMAP
F6F4
9A1C
5D0D
0E0D
0728
0F7E
ENDCHAR
STARTCHAR uni1F6F
ENCODING 8047
SWIDTH 877 0
DWIDTH 8 0
BBX 8 6 0 0
BITMAP
F6F4
6A1C
5D0D
0E0D
0728
0F7E
ENDCHAR
STARTCHAR uni1F70
ENCODING 8048
SWIDTH 595 0
DWIDTH 5 0
BBX 6 7 0 0
BITMAP
2400
1800
0000
2EC0
A380
A340
7ED0
ENDCHAR
STARTCHAR uni1F71
ENCODING 8049
SWIDTH 595 0
DWIDTH 5 0
BBX 6 7 0 0
BITMAP
0200
0900
0000
2EC0
A380
A340
7ED0
ENDCHAR
STARTCHAR uni1F72
ENCODING 8050
SWIDTH 471 0
DWIDTH 4 0
BBX 4 7 0 0
BITMAP
20
18
00
7E
7D
A0
7E
ENDCHAR
STARTCHAR uni1F73
ENCODING 8051
SWIDTH 471 0
DWIDTH 4 0
BBX 4 7 0 0
BITMAP
06
09
00
7E
7D
A0
7E
ENDCHAR
STARTCHAR uni1F74
ENCODING 8052
SWIDTH 562 0
DWIDTH 5 0
BBX 5 8 0 -1
BITMAP
2400
0800
0000
6B40
7680
7280
7280
0280
ENDCHAR
STARTCHAR uni1F75
ENCODING 8053
SWIDTH 562 0
DWIDTH 5 0
BBX 5 8 0 -1
BITMAP
0240
0A00
0000
6B40
7680
7280
7280
0280
ENDCHAR
STARTCHAR uni1F76
ENCODING 8054
SWIDTH 301 0
DWIDTH 3 0
BBX 4 7 -1 0
BITMAP
60
28
00
1C
1C
1C
1E
ENDCHAR
STARTCHAR uni1F77
ENCODING 8055
SWIDTH 301 0
DWIDTH 3 0
BBX 3 7 0 0
BITMAP
18
20
00
70
70
70
78
ENDCHAR
STARTCHAR uni1F78
ENCODING 8056
SWIDTH 553 0
DWIDTH 5 0
BBX 5 7 0 0
BITMAP
2400
1800
0000
2E00
B380
B380
2E00
ENDCHAR
STARTCHAR uni1F79
ENCODING 8057
SWIDTH 553 0
DWIDTH 5 0
BBX 5 7 0 0
BITMAP
0600
0900
0000
2E00
B380
B380
2E00
ENDCHAR
STARTCHAR uni1F7A
ENCODING 8058
SWIDTH 532 0
DWIDTH 5 0
BBX 5 7 0 0
BITMAP
2000
1800
0000
A340
A340
A340
2E00
ENDCHAR
STARTCHAR uni1F7B
ENCODING 8059
SWIDTH 532 0
DWIDTH 5 0
BBX 5 7 0 0
BITMAP
0600
0900
0000
A340
A340
A340
2E00
ENDCHAR
STARTCHAR uni1F7C
ENCODING 8060
SWIDTH 746 0
DWIDTH 7 0
BBX 7 7 0 0
BITMAP
0800
0600
0000
7070
A734
A734
3EE0
ENDCHAR
STARTCHAR uni1F7D
ENCODING 8061
SWIDTH 746 0
DWIDTH 7 0
BBX 7 7 0 0
BITMAP
0180
0240
0000
7070
A734
A734
3EE0
ENDCHAR
STARTCHAR uni1F80
ENCODING 8064
SWIDTH 595 0
DWIDTH 5 0
BBX 6 9 0 -2
BITMAP
0D00
0900
0000
2EC0
A380
A340
7ED0
0000
0900
ENDCHAR
STARTCHAR uni1F81
ENCODING 8065
SWIDTH 595 0
DWIDTH 5 0
BBX 6 9 0 -2
BITMAP
0900
0C00
0000
2EC0
A380
A340
7ED0
0000
0900
ENDCHAR
STARTCHAR uni1F82
ENCODING 8066
SWIDTH 595 0
DWIDTH 5 0
BBX 6 9 0 -2
BITMAP
3600
2600
0000
2EC0
A380
A340
7ED0
0000
0900
ENDCHAR
STARTCHAR uni1F83
ENCODING 8067
SWIDTH 595 0
DWIDTH 5 0
BBX 6 9 0 -2
BITMAP
2A00
3200
0000
2EC0
A380
A340
7ED0
0000
0900
ENDCHAR
STARTCHAR uni1F84
ENCODING 8068
SWIDTH 595 0
DWIDTH 5 0
BBX 6 9 0 -2
BITMAP
3700
2600
0000
2EC0
A380
A340
7ED0
0000
0900
ENDCHAR
STARTCHAR uni1F85
ENCODING 8069
SWIDTH 595 0
DWIDTH 5 0
BBX 6 9 0 -2
BITMAP
2B00
3600
0000
2EC0
A380
A340
7ED0
0000
0900
ENDCHAR
STARTCHAR uni1F86
ENCODING 8070
SWIDTH 595 0
DWIDTH 5 0
BBX 6 10 0 -2
BITMAP
1A00
2600
0D00
0400
2EC0
A380
A340
7ED0
0000
0900
ENDCHAR
STARTCHAR uni1F87
ENCODING 8071
SWIDTH 595 0
DWIDTH 5 0
BBX 6 10 0 -2
BITMAP
1A00
2600
0900
0800
2EC0
A380
A340
7ED0
0000
0900
ENDCHAR
STARTCHAR uni1F88
ENCODING 8072
SWIDTH 949 0
DWIDTH 9 0
BBX 9 6 0 0
BITMAP
DB4000
AE8000
5DCA00
29DA00
3FDA00
34A740
ENDCHAR
STARTCHAR uni1F89
ENCODING 8073
SWIDTH 933 0
DWIDTH 8 0
BBX 9 6 0 0
BITMAP
9B0000
DE4000
5E8A00
29CA00
3FDA00
70A740
ENDCHAR
STARTCHAR uni1F8A
ENCODING 8074
SWIDTH 1116 0
DWIDTH 10 0
BBX 10 6 0 0
BITMAP
D8E000
9DB000
0274D0
0368D0
07FCD0
0A0DB0
ENDCHAR
STARTCHAR uni1F8B
ENCODING 8075
SWIDTH 1115 0
DWIDTH 10 0
BBX 10 6 0 0
BITMAP
98E000
CDB000
4274D0
0368D0
07FCD0
0A0DB0
ENDCHAR
STARTCHAR uni1F8C
ENCODING 8076
SWIDTH 1106 0
DWIDTH 10 0
BBX 10 6 0 0
BITMAP
DDE000
1AB000
0274C0
0368C0
07FCC0
0A1DA0
ENDCHAR
STARTCHAR uni1F8D
ENCODING 8077
SWIDTH 1105 0
DWIDTH 10 0
BBX 10 6 0 0
BITMAP
9DE000
DAB000
4374C0
0368C0
07FCC0
0A1DA0
ENDCHAR
STARTCHAR uni1F8E
ENCODING 8078
SWIDTH 973 0
DWIDTH 9 0
BBX 9 6 0 0
BITMAP
FB4000
9A8000
5DC700
1CD700
2FE700
347380
ENDCHAR
STARTCHAR uni1F8F
ENCODING 8079
SWIDTH 973 0
DWIDTH 9 0
BBX 9 6 0 0
BITMAP
FB4000
6A8000
5DC700
1CD700
2FE700
347380
ENDCHAR
STARTCHAR uni1F90
ENCODING 8080
SWIDTH 562 0
DWIDTH 5 0
BBX 5 9 0 -2
BITMAP
0D00
0A00
0000
6B40
7680
7280
7280
0280
2000
ENDCHAR
STARTCHAR uni1F91
ENCODING 8081
SWIDTH 562 0
DWIDTH 5 0
BBX 5 9 0 -2
BITMAP
0A00
0C00
0000
6B40
7680
7280
7280
0280
2000
ENDCHAR
STARTCHAR uni1F92
ENCODING 8082
SWIDTH 562 0
DWIDTH 5 0
BBX 5 9 0 -2
BITMAP
3700
2600
0000
6B40
7680
7280
7280
0280
2000
ENDCHAR
STARTCHAR uni1F93
ENCODING 8083
SWIDTH 562 0
DWIDTH 5 0
BBX 5 9 0 -2
BITMAP
2B00
2200
0000
6B40
7680
7280
7280
0280
2000
ENDCHAR
STARTCHAR uni1F94
ENCODING 8084
SWIDTH 562 0
DWIDTH 5 0
BBX 5 9 0 -2
BITMAP
3700
2600
0000
6B40
7680
7280
7280
0280
2000
ENDCHAR
STARTCHAR uni1F95
ENCODING 8085
SWIDTH 562 0
DWIDTH 5 0
BBX 5 9 0 -2
BITMAP
2B00
2600
0000
6B40
7680
7280
7280
0280
2000
ENDCHAR
STARTCHAR uni1F96
ENCODING 8086
SWIDTH 562 0
DWIDTH 5 0
BBX 5 10 0 -2
BITMAP
1A00
2600
0D00
0500
6B40
7680
7280
7280
0280
2000
ENDCHAR
STARTCHAR uni1F97
ENCODING 8087
SWIDTH 562 0
DWIDTH 5 0
BBX 5 10 0 -2
BITMAP
1A00
2600
0900
0800
6B40
7680
7280
7280
0280
2000
ENDCHAR
STARTCHAR uni1F98
ENCODING 8088
SWIDTH 1131 0
DWIDTH 10 0
BBX 10 6 0 0
BITMAP
DD1C00
9D1C00
4FFCD0
0D1CD0
0D1CD0
0D1CB0
ENDCHAR
STARTCHAR uni1F99
ENCODING 8089
SWIDTH 1131 0
DWIDTH 10 0
BBX 10 6 0 0
BITMAP
9D1C00
CD1C00
4FFCD0
0D1CD0
0D1CD0
0D1CB0
ENDCHAR
STARTCHAR uni1F9A
ENCODING 8090
SWIDTH 1294 0
DWIDTH 12 0
BBX 12 6 0 0
BITMAP
D9C340
9DC340
01FF5C
01C358
01C358
01C35E
ENDCHAR
STARTCHAR uni1F9B
ENCODING 8091
SWIDTH 1293 0
DWIDTH 12 0
BBX 12 6 0 0
BITMAP
99C340
CDC340
41FF5C
01C358
01C358
01C35E
ENDCHAR
STARTCHAR uni1F9C
ENCODING 8092
SWIDTH 1284 0
DWIDTH 12 0
BBX 12 6 0 0
BITMAP
DDC340
19C340
01FF68
01C368
01C368
01C35D
ENDCHAR
STARTCHAR uni1F9D
ENCODING 8093
SWIDTH 1283 0
DWIDTH 12 0
BBX 12 6 0 0
BITMAP
9DC340
D9C340
41FF68
01C368
01C368
01C35D
ENDCHAR
STARTCHAR uni1F9E
ENCODING 8094
SWIDTH 1190 0
DWIDTH 11 0
BBX 11 6 0 0
BITMAP
F70D00
970D00
57FD70
070D70
070D70
070D38
ENDCHAR
STARTCHAR uni1F9F
ENCODING 8095
SWIDTH 1190 0
DWIDTH 11 0
BBX 11 6 0 0
BITMAP
F70D00
670D00
57FD70
070D70
070D70
070D38
ENDCHAR
STARTCHAR uni1FA0
ENCODING 8096
SWIDTH 746 0
DWIDTH 7 0
BBX 7 9 0 -2
BITMAP
0600
0300
0000
7070
A734
A734
3EE0
0000
0300
ENDCHAR
STARTCHAR uni1FA1
ENCODING 8097
SWIDTH 746 0
DWIDTH 7 0
BBX 7 9 0 -2
BITMAP
0700
0600
0000
7070
A734
A734
3EE0
0000
0300
ENDCHAR
STARTCHAR uni1FA2
ENCODING 8098
SWIDTH 746 0
DWIDTH 7 0
BBX 7 9 0 -2
BITMAP
1A80
0D80
0000
7070
A734
A734
3EE0
0000
0300
ENDCHAR
STARTCHAR uni1FA3
ENCODING 8099
SWIDTH 746 0
DWIDTH 7 0
BBX 7 9 0 -2
BITMAP
0E80
1980
0000
7070
A734
A734
3EE0
0000
0300
ENDCHAR
STARTCHAR uni1FA4
ENCODING 8100
SWIDTH 746 0
DWIDTH 7 0
BBX 7 9 0 -2
BITMAP
1980
0D40
0000
7070
A734
A734
3EE0
0000
0300
ENDCHAR
STARTCHAR uni1FA5
ENCODING 8101
SWIDTH 746 0
DWIDTH 7 0
BBX 7 9 0 -2
BITMAP
0E80
1940
0000
7070
A734
A734
3EE0
0000
0300
ENDCHAR
STARTCHAR uni1FA6
ENCODING 8102
SWIDTH 746 0
DWIDTH 7 0
BBX 7 10 0 -2
BITMAP
0980
0A40
0600
0200
7070
A734
A734
3EE0
0000
0300
ENDCHAR
STARTCHAR uni1FA7
ENCODING 8103
SWIDTH 746 0
DWIDTH 7 0
BBX 7 10 0 -2
BITMAP
0980
0A40
0700
0100
7070
A734
A734
3EE0
0000
0300
ENDCHAR
STARTCHAR uni1FA8
ENCODING 8104
SWIDTH 1147 0
DWIDTH 10 0
BBX 11 6 0 0
BITMAP
D6E000
AE2800
4D1CA0
0D1CA0
0A28A0
1F7D74
ENDCHAR
STARTCHAR uni1FA9
ENCODING 8105
SWIDTH 1129 0
DWIDTH 10 0
BBX 10 6 0 0
BITMAP
97E000
CD2800
5C1CD0
1C2CD0
0A34D0
2F7CB0
ENDCHAR
STARTCHAR uni1FAA
ENCODING 8106
SWIDTH 1313 0
DWIDTH 12 0
BBX 12 6 0 0
BITMAP
D8BD00
9DD740
02829C
02839C
01D71C
03EB8E
ENDCHAR
STARTCHAR uni1FAB
ENCODING 8107
SWIDTH 1311 0
DWIDTH 12 0
BBX 12 6 0 0
BITMAP
98BD00
CDD740
42829C
02839C
01D71C
03EB8E
ENDCHAR
STARTCHAR uni1FAC
ENCODING 8108
SWIDTH 1303 0
DWIDTH 12 0
BBX 12 6 0 0
BITMAP
DCBD00
19C740
02835C
02835C
01D71C
03DB8E
ENDCHAR
STARTCHAR uni1FAD
ENCODING 8109
SWIDTH 1302 0
DWIDTH 12 0
BBX 12 6 0 0
BITMAP
9CBD00
D9C740
42835C
02835C
01C71C
03DB8E
ENDCHAR
STARTCHAR uni1FAE
ENCODING 8110
SWIDTH 1172 0
DWIDTH 11 0
BBX 11 6 0 0
BITMAP
F6F400
9A1C00
5D0DA0
0E0DA0
0728A0
0F7E74
ENDCHAR
STARTCHAR uni1FAF
ENCODING 8111
SWIDTH 1172 0
DWIDTH 11 0
BBX 11 6 0 0
BITMAP
F6F400
6A1C00
5D0DA0
0E0DA0
0728A0
0F7E74
ENDCHAR
STARTCHAR uni1FB0
ENCODING 8112
SWIDTH 595 0
DWIDTH 5 0
BBX 6 7 0 0
BITMAP
2200
1E00
0000
2EC0
A380
A340
7ED0
ENDCHAR
STARTCHAR uni1FB1
ENCODING 8113
SWIDTH 595 0
DWIDTH 5 0
BBX 6 6 0 0
BITMAP
2F00
0000
2EC0
A380
A340
7ED0
ENDCHAR
STARTCHAR uni1FB2
ENCODING 8114
SWIDTH 595 0
DWIDTH 5 0
BBX 6 9 0 -2
BITMAP
2400
1800
0000
2EC0
A380
A340
7ED0
0000
0900
ENDCHAR
STARTCHAR uni1FB3
ENCODING 8115
SWIDTH 595 0
DWIDTH 5 0
BBX 6 6 0 -2
BITMAP
2EC0
A380
A340
7ED0
0000
0900
ENDCHAR
STARTCHAR uni1FB4
ENCODING 8116
SWIDTH 595 0
DWIDTH 5 0
BBX 6 9 0 -2
BITMAP
0200
0900
0000
2EC0
A380
A340
7ED0
0000
0900
ENDCHAR
STARTCHAR uni1FB6
ENCODING 8118
SWIDTH 595 0
DWIDTH 5 0
BBX 6 7 0 0
BITMAP
2A40
2600
0000
2EC0
A380
A340
7ED0
ENDCHAR
STARTCHAR uni1FB7
ENCODING 8119
SWIDTH 595 0
DWIDTH 5 0
BBX 6 9 0 -2
BITMAP
2A40
2600
0000
2EC0
A380
A340
7ED0
0000
0900
ENDCHAR
STARTCHAR uni1FB8
ENCODING 8120
SWIDTH 573 0
DWIDTH 5 0
BBX 5 8 0 0
BITMAP
2200
1E00
1E00
2B00
3700
7340
BF80
D1C0
ENDCHAR
STARTCHAR uni1FB9
ENCODING 8121
SWIDTH 573 0
DWIDTH 5 0
BBX 5 7 0 0
BITMAP
2F00
1E00
2B00
3700
7340
BF80
D1C0
ENDCHAR
STARTCHAR uni1FBA
ENCODING 8122
SWIDTH 622 0
DWIDTH 6 0
BBX 6 6 0 0
BITMAP
CF00
9F40
2A80
35C0
3FD0
70E0
ENDCHAR
STARTCHAR uni1FBB
ENCODING 8123
SWIDTH 622 0
DWIDTH 6 0
BBX 6 6 0 0
BITMAP
9F00
DF40
2A80
35C0
3FD0
70E0
ENDCHAR
STARTCHAR uni1FBC
ENCODING 8124
SWIDTH 867 0
DWIDTH 8 0
BBX 8 6 0 0
BITMAP
1E00
2B00
371C
735C
BF9C
D1CE
ENDCHAR
STARTCHAR uni1FBD
ENCODING 8125
SWIDTH 555 0
DWIDTH 5 0
BBX 3 2 1 5
BITMAP
70
24
ENDCHAR
STARTCHAR uni1FBE
ENCODING 8126
SWIDTH 301 0
DWIDTH 3 0
BBX 3 4 0 0
BITMAP
70
70
70
38
ENDCHAR
STARTCHAR uni1FBF
ENCODING 8127
SWIDTH 555 0
DWIDTH 5 0
BBX 3 2 1 5
BITMAP
70
24
ENDCHAR
STARTCHAR uni1FC0
ENCODING 8128
SWIDTH 555 0
DWIDTH 5 0
BBX 3 3 1 5
BITMAP
04
AC
94
ENDCHAR
STARTCHAR uni1FC1
ENCODING 8129
SWIDTH 555 0
DWIDTH 5 0
BBX 3 3 1 5
BITMAP
A8
A8
88
ENDCHAR
STARTCHAR uni1FC2
ENCODING 8130
SWIDTH 562 0
DWIDTH 5 0
BBX 5 9 0 -2
BITMAP
2400
0800
0000
6B40
7680
7280
7280
0280
2000
ENDCHAR
STARTCHAR uni1FC3
ENCODING 8131
SWIDTH 562 0
DWIDTH 5 0
BBX 5 6 0 -2
BITMAP
6B40
7680
7280
7280
0280
2000
ENDCHAR
STARTCHAR uni1FC4
ENCODING 8132
SWIDTH 562 0
DWIDTH 5 0
BBX 5 9 0 -2
BITMAP
0240
0A00
0000
6B40
7680
7280
7280
0280
2000
ENDCHAR
STARTCHAR uni1FC6
ENCODING 8134
SWIDTH 562 0
DWIDTH 5 0
BBX 5 8 0 -1
BITMAP
2E40
2600
0000
6B40
7680
7280
7280
0280
ENDCHAR
STARTCHAR uni1FC7
ENCODING 8135
SWIDTH 562 0
DWIDTH 5 0
BBX 5 9 0 -2
BITMAP
2E40
2600
0000
6B40
7680
7280
7280
0280
2000
ENDCHAR
STARTCHAR uni1FC8
ENCODING 8136
SWIDTH 667 0
DWIDTH 6 0
BBX 6 6 0 0
BITMAP
DFD0
9C00
1FC0
1C00
1C00
1FE0
ENDCHAR
STARTCHAR uni1FC9
ENCODING 8137
SWIDTH 667 0
DWIDTH 6 0
BBX 6 6 0 0
BITMAP
DFD0
DC00
1FC0
1C00
1C00
1FE0
ENDCHAR
STARTCHAR uni1FCA
ENCODING 8138
SWIDTH 792 0
DWIDTH 7 0
BBX 7 6 0 0
BITMAP
DC34
9C34
1FF4
1C34
1C34
1C34
ENDCHAR
STARTCHAR uni1FCB
ENCODING 8139
SWIDTH 792 0
DWIDTH 7 0
BBX 7 6 0 0
BITMAP
DC34
DC34
1FF4
1C34
1C34
1C34
ENDCHAR
STARTCHAR uni1FCC
ENCODING 8140
SWIDTH 968 0
DWIDTH 9 0
BBX 9 6 0 0
BITMAP
70D000
70D000
7FD700
70D700
70D700
70D380
ENDCHAR
STARTCHAR uni1FCD
ENCODING 8141
SWIDTH 555 0
DWIDTH 5 0
BBX 4 2 0 5
BITMAP
66
26
ENDCHAR
STARTCHAR uni1FCE
ENCODING 8142
SWIDTH 555 0
DWIDTH 5 0
BBX 4 2 0 5
BITMAP
66
25
ENDCHAR
STARTCHAR uni1FCF
ENCODING 8143
SWIDTH 555 0
DWIDTH 5 0
BBX 3 4 1 4
BITMAP
A8
A8
30
20
ENDCHAR
STARTCHAR uni1FD0
ENCODING 8144
SWIDTH 301 0
DWIDTH 3 0
BBX 4 7 -1 0
BITMAP
66
2D
00
1C
1C
1C
1E
ENDCHAR
STARTCHAR uni1FD1
ENCODING 8145
SWIDTH 301 0
DWIDTH 3 0
BBX 3 6 0 0
BITMAP
F8
00
70
70
70
78
ENDCHAR
STARTCHAR uni1FD2
ENCODING 8146
SWIDTH 301 0
DWIDTH 3 0
BBX 4 7 -1 0
BITMAP
14
5A
00
1C
1C
1C
1E
ENDCHAR
STARTCHAR uni1FD3
ENCODING 8147
SWIDTH 301 0
DWIDTH 3 0
BBX 4 7 -1 0
BITMAP
0C
66
00
1C
1C
1C
1E
ENDCHAR
STARTCHAR uni1FD6
ENCODING 8150
SWIDTH 301 0
DWIDTH 3 0
BBX 4 8 -1 0
BITMAP
01
3A
59
00
1C
1C
1C
1E
ENDCHAR
STARTCHAR uni1FD7
ENCODING 8151
SWIDTH 301 0
DWIDTH 3 0
BBX 3 8 0 0
BITMAP
D8
A4
98
00
70
70
70
78
ENDCHAR
STARTCHAR uni1FD8
ENCODING 8152
SWIDTH 301 0
DWIDTH 3 0
BBX 3 8 0 0
BITMAP
88
B4
70
70
70
70
70
70
ENDCHAR
STARTCHAR uni1FD9
ENCODING 8153
SWIDTH 301 0
DWIDTH 3 0
BBX 3 7 0 0
BITMAP
F8
70
70
70
70
70
70
ENDCHAR
STARTCHAR uni1FDA
ENCODING 8154
SWIDTH 420 0
DWIDTH 4 0
BBX 3 6 0 0
BITMAP
DC
9C
1C
1C
1C
1C
ENDCHAR
STARTCHAR uni1FDB
ENCODING 8155
SWIDTH 420 0
DWIDTH 4 0
BBX 3 6 0 0
BITMAP
DC
DC
1C
1C
1C
1C
ENDCHAR
STARTCHAR uni1FDD
ENCODING 8157
SWIDTH 555 0
DWIDTH 5 0
BBX 3 2 1 5
BITMAP
A8
88
ENDCHAR
STARTCHAR uni1FDE
ENCODING 8158
SWIDTH 555 0
DWIDTH 5 0
BBX 3 2 1 5
BITMAP
A8
94
ENDCHAR
STARTCHAR uni1FDF
ENCODING 8159
SWIDTH 555 0
DWIDTH 5 0
BBX 3 4 1 4
BITMAP
A8
A8
30
20
ENDCHAR
STARTCHAR uni1FE0
ENCODING 8160
SWIDTH 532 0
DWIDTH 5 0
BBX 5 7 0 0
BITMAP
2200
2D00
0000
A340
A340
A340
2E00
ENDCHAR
STARTCHAR uni1FE1
ENCODING 8161
SWIDTH 532 0
DWIDTH 5 0
BBX 5 6 0 0
BITMAP
3E00
0000
A340
A340
A340
2E00
ENDCHAR
STARTCHAR uni1FE2
ENCODING 8162
SWIDTH 532 0
DWIDTH 5 0
BBX 5 7 0 0
BITMAP
1800
6A00
0000
A340
A340
A340
2E00
ENDCHAR
STARTCHAR uni1FE3
ENCODING 8163
SWIDTH 532 0
DWIDTH 5 0
BBX 5 7 0 0
BITMAP
0C00
6A00
0000
A340
A340
A340
2E00
ENDCHAR
STARTCHAR uni1FE4
ENCODING 8164
SWIDTH 569 0
DWIDTH 5 0
BBX 5 8 0 -1
BITMAP
0D00
0900
0000
2F40
7280
7280
7F00
7000
ENDCHAR
STARTCHAR uni1FE5
ENCODING 8165
SWIDTH 569 0
DWIDTH 5 0
BBX 5 8 0 -1
BITMAP
0900
0C00
0000
2F40
7280
7280
7F00
7000
ENDCHAR
STARTCHAR uni1FE6
ENCODING 8166
SWIDTH 532 0
DWIDTH 5 0
BBX 5 8 0 0
BITMAP
0100
3B00
6500
0000
A340
A340
A340
2E00
ENDCHAR
STARTCHAR uni1FE7
ENCODING 8167
SWIDTH 532 0
DWIDTH 5 0
BBX 5 8 0 0
BITMAP
2600
2900
2200
0000
A340
A340
A340
2E00
ENDCHAR
STARTCHAR uni1FE8
ENCODING 8168
SWIDTH 525 0
DWIDTH 5 0
BBX 5 8 0 0
BITMAP
2200
2D00
E280
7700
3A00
1D00
1C00
1C00
ENDCHAR
STARTCHAR uni1FE9
ENCODING 8169
SWIDTH 525 0
DWIDTH 5 0
BBX 5 7 0 0
BITMAP
3E00
E280
7700
3A00
1D00
1C00
1C00
ENDCHAR
STARTCHAR uni1FEA
ENCODING 8170
SWIDTH 704 0
DWIDTH 6 0
BBX 7 6 0 0
BITMAP
DC74
8AA0
07D0
0380
0280
0280
ENDCHAR
STARTCHAR uni1FEB
ENCODING 8171
SWIDTH 704 0
DWIDTH 6 0
BBX 7 6 0 0
BITMAP
DC74
CAA0
07D0
0380
0280
0280
ENDCHAR
STARTCHAR uni1FEC
ENCODING 8172
SWIDTH 759 0
DWIDTH 7 0
BBX 7 6 0 0
BITMAP
9FE0
CD34
4D34
0FE0
0D00
0D00
ENDCHAR
STARTCHAR uni1FED
ENCODING 8173
SWIDTH 555 0
DWIDTH 5 0
BBX 3 2 1 5
BITMAP
20
A8
ENDCHAR
STARTCHAR uni1FEE
ENCODING 8174
SWIDTH 555 0
DWIDTH 5 0
BBX 3 2 1 5
BITMAP
20
A8
ENDCHAR
STARTCHAR uni1FEF
ENCODING 8175
SWIDTH 555 0
DWIDTH 5 0
BBX 2 2 1 5
BITMAP
60
30
ENDCHAR
STARTCHAR uni1FF2
ENCODING 8178
SWIDTH 746 0
DWIDTH 7 0
BBX 7 9 0 -2
BITMAP
0800
0600
0000
7070
A734
A734
3EE0
0000
0300
ENDCHAR
STARTCHAR uni1FF3
ENCODING 8179
SWIDTH 746 0
DWIDTH 7 0
BBX 7 6 0 -2
BITMAP
7070
A734
A734
3EE0
0000
0300
ENDCHAR
STARTCHAR uni1FF4
ENCODING 8180
SWIDTH 746 0
DWIDTH 7 0
BBX 7 9 0 -2
BITMAP
0180
0240
0000
7070
A734
A734
3EE0
0000
0300
ENDCHAR
STARTCHAR uni1FF6
ENCODING 8182
SWIDTH 746 0
DWIDTH 7 0
BBX 7 8 0 0
BITMAP
0040
0EC0
1940
0000
7070
A734
A734
3EE0
ENDCHAR
STARTCHAR uni1FF7
ENCODING 8183
SWIDTH 746 0
DWIDTH 7 0
BBX 7 10 0 -2
BITMAP
0040
0EC0
1940
0000
7070
A734
A734
3EE0
0000
0300
ENDCHAR
STARTCHAR uni1FF8
ENCODING 8184
SWIDTH 790 0
DWIDTH 7 0
BBX 7 6 0 0
BITMAP
C7E0
9D74
2828
2828
1D74
07E0
ENDCHAR
STARTCHAR uni1FF9
ENCODING 8185
SWIDTH 777 0
DWIDTH 7 0
BBX 7 6 0 0
BITMAP
CBD0
DC74
2834
2834
1C74
0BD0
ENDCHAR
STARTCHAR uni1FFA
ENCODING 8186
SWIDTH 811 0
DWIDTH 7 0
BBX 7 6 0 0
BITMAP
C7E0
9D34
1C28
1C28
0D74
2EBC
ENDCHAR
STARTCHAR uni1FFB
ENCODING 8187
SWIDTH 803 0
DWIDTH 7 0
BBX 7 6 0 0
BITMAP
C7E0
9D74
2828
2C28
0D74
2EB8
ENDCHAR
STARTCHAR uni1FFC
ENCODING 8188
SWIDTH 1005 0
DWIDTH 9 0
BBX 9 6 0 0
BITMAP
1F8000
34E000
70A340
70A340
34D340
B9F2C0
ENDCHAR
STARTCHAR uni1FFD
ENCODING 8189
SWIDTH 555 0
DWIDTH 5 0
BBX 2 2 2 5
BITMAP
90
C0
ENDCHAR
STARTCHAR uni1FFE
ENCODING 8190
SWIDTH 555 0
DWIDTH 5 0
BBX 3 2 1 5
BITMAP
24
60
ENDCHAR
STARTCHAR uni2007
ENCODING 8199
SWIDTH 528 0
DWIDTH 5 0
BBX 1 1 0 0
BITMAP
00
ENDCHAR
STARTCHAR figuredash
ENCODING 8210
SWIDTH 528 0
DWIDTH 5 0
BBX 5 1 0 2
BITMAP
BF40
ENDCHAR
STARTCHAR endash
ENCODING 8211
SWIDTH 480 0
DWIDTH 4 0
BBX 4 1 0 2
BITMAP
BF
ENDCHAR
STARTCHAR emdash
ENCODING 8212
SWIDTH 800 0
DWIDTH 7 0
BBX 7 1 0 2
BITMAP
BFF8
ENDCHAR
STARTCHAR uni2015
ENCODING 8213
SWIDTH 800 0
DWIDTH 7 0
BBX 7 1 0 2
BITMAP
BFF8
ENDCHAR
STARTCHAR uni2016
ENCODING 8214
SWIDTH 452 0
DWIDTH 4 0
BBX 4 9 0 -2
BITMAP
69
69
69
69
69
69
69
69
69
ENDCHAR
STARTCHAR quoteleft
ENCODING 8216
SWIDTH 300 0
DWIDTH 3 0
BBX 2 3 0 3
BITMAP
10
50
60
ENDCHAR
STARTCHAR quoteright
ENCODING 8217
SWIDTH 300 0
DWIDTH 3 0
BBX 2 3 0 3
BITMAP
70
20
10
ENDCHAR
STARTCHAR quotesinglbase
ENCODING 8218
SWIDTH 300 0
DWIDTH 3 0
BBX 2 3 0 -2
BITMAP
70
20
10
ENDCHAR
STARTCHAR quotedblleft
ENCODING 8220
SWIDTH 536 0
DWIDTH 5 0
BBX 4 3 0 3
BITMAP
11
56
67
ENDCHAR
STARTCHAR quotedblright
ENCODING 8221
SWIDTH 536 0
DWIDTH 5 0
BBX 5 3 0 3
BITMAP
7740
2240
1100
ENDCHAR
STARTCHAR quotedblbase
ENCODING 8222
SWIDTH 536 0
DWIDTH 5 0
BBX 5 3 0 -2
BITMAP
7740
2240
1100
ENDCHAR
STARTCHAR dagger
ENCODING 8224
SWIDTH 510 0
DWIDTH 5 0
BBX 4 7 0 -1
BITMAP
18
6D
6E
18
18
18
18
ENDCHAR
STARTCHAR daggerdbl
ENCODING 8225
SWIDTH 510 0
DWIDTH 5 0
BBX 4 7 0 -1
BITMAP
18
6D
6D
18
5D
6E
18
ENDCHAR
STARTCHAR bullet
ENCODING 8226
SWIDTH 345 0
DWIDTH 3 0
BBX 3 3 0 1
BITMAP
74
B8
74
ENDCHAR
STARTCHAR ellipsis
ENCODING 8230
SWIDTH 977 0
DWIDTH 9 0
BBX 7 2 1 0
BITMAP
C31C
C31C
ENDCHAR
STARTCHAR uni202F
ENCODING 8239
SWIDTH 125 0
DWIDTH 1 0
BBX 1 1 0 0
BITMAP
00
ENDCHAR
STARTCHAR perthousand
ENCODING 8240
SWIDTH 1249 0
DWIDTH 11 0
BBX 11 6 0 0
BITMAP
786000
9C8000
9DA874
7A69DC
0569DC
083C74
ENDCHAR
STARTCHAR uni2032
ENCODING 8242
SWIDTH 300 0
DWIDTH 3 0
BBX 2 3 0 3
BITMAP
30
70
60
ENDCHAR
STARTCHAR uni2033
ENCODING 8243
SWIDTH 537 0
DWIDTH 5 0
BBX 5 3 0 3
BITMAP
3340
7300
6300
ENDCHAR
STARTCHAR uni2035
ENCODING 8245
SWIDTH 300 0
DWIDTH 3 0
BBX 2 3 0 3
BITMAP
60
70
30
ENDCHAR
STARTCHAR guilsinglleft
ENCODING 8249
SWIDTH 292 0
DWIDTH 3 0
BBX 2 4 0 0
BITMAP
20
50
50
20
ENDCHAR
STARTCHAR guilsinglright
ENCODING 8250
SWIDTH 292 0
DWIDTH 3 0
BBX 2 4 0 0
BITMAP
50
20
20
50
ENDCHAR
STARTCHAR uni203C
ENCODING 8252
SWIDTH 614 0
DWIDTH 6 0
BBX 4 7 1 0
BITMAP
DA
CA
CA
C5
00
CA
CA
ENDCHAR
STARTCHAR uni203D
ENCODING 8253
SWIDTH 480 0
DWIDTH 4 0
BBX 4 6 0 0
BITMAP
7D
6B
2E
18
00
28
ENDCHAR
STARTCHAR uni203E
ENCODING 8254
SWIDTH 500 0
DWIDTH 5 0
BBX 5 1 0 5
BITMAP
FF40
ENDCHAR
STARTCHAR uni203F
ENCODING 8255
SWIDTH 0 0
DWIDTH 0 0
BBX 8 2 -4 -2
BITMAP
9006
2BE8
ENDCHAR
STARTCHAR fraction
ENCODING 8260
SWIDTH 96 0
DWIDTH 1 0
BBX 4 6 -2 0
BITMAP
02
06
08
18
20
50
ENDCHAR
STARTCHAR uni2047
ENCODING 8263
SWIDTH 873 0
DWIDTH 8 0
BBX 8 6 0 0
BITMAP
7DBD
0A0D
1824
0000
2834
2834
ENDCHAR
STARTCHAR uni2048
ENCODING 8264
SWIDTH 750 0
DWIDTH 7 0
BBX 6 7 0 0
BITMAP
0060
7D60
0A60
1860
0000
2860
2860
ENDCHAR
STARTCHAR uni2049
ENCODING 8265
SWIDTH 750 0
DWIDTH 7 0
BBX 6 7 1 0
BITMAP
D000
CBC0
C4D0
C340
0000
C300
C300
ENDCHAR
STARTCHAR zero.sups
ENCODING 8304
SWIDTH 376 0
DWIDTH 3 0
BBX 3 4 0 3
BITMAP
78
9C
9C
78
ENDCHAR
STARTCHAR i.sups
ENCODING 8305
SWIDTH 188 0
DWIDTH 2 0
BBX 2 5 0 3
BITMAP
90
00
90
90
90
ENDCHAR
STARTCHAR four.sups
ENCODING 8308
SWIDTH 376 0
DWIDTH 3 0
BBX 4 4 0 3
BITMAP
28
68
BD
08
ENDCHAR
STARTCHAR five.sups
ENCODING 8309
SWIDTH 376 0
DWIDTH 3 0
BBX 3 4 0 3
BITMAP
7C
60
B8
78
ENDCHAR
STARTCHAR six.sups
ENCODING 8310
SWIDTH 376 0
DWIDTH 3 0
BBX 3 4 0 3
BITMAP
78
90
B8
78
ENDCHAR
STARTCHAR seven.sups
ENCODING 8311
SWIDTH 376 0
DWIDTH 3 0
BBX 3 4 0 3
BITMAP
BC
18
24
30
ENDCHAR
STARTCHAR eight.sups
ENCODING 8312
SWIDTH 376 0
DWIDTH 3 0
BBX 3 4 0 3
BITMAP
78
6C
78
78
ENDCHAR
STARTCHAR nine.sups
ENCODING 8313
SWIDTH 376 0
DWIDTH 3 0
BBX 3 4 0 3
BITMAP
78
9C
7C
74
ENDCHAR
STARTCHAR parenleft.sups
ENCODING 8317
SWIDTH 268 0
DWIDTH 2 0
BBX 2 5 0 2
BITMAP
20
60
60
60
20
ENDCHAR
STARTCHAR parenright.sups
ENCODING 8318
SWIDTH 268 0
DWIDTH 2 0
BBX 2 5 0 2
BITMAP
50
60
20
60
50
ENDCHAR
STARTCHAR n.sups
ENCODING 8319
SWIDTH 384 0
DWIDTH 3 0
BBX 3 3 0 3
BITMAP
AC
9C
98
ENDCHAR
STARTCHAR zero.subs
ENCODING 8320
SWIDTH 376 0
DWIDTH 3 0
BBX 3 4 0 -2
BITMAP
78
9C
9C
78
ENDCHAR
STARTCHAR one.subs
ENCODING 8321
SWIDTH 376 0
DWIDTH 3 0
BBX 3 4 0 -2
BITMAP
74
24
24
24
ENDCHAR
STARTCHAR two.subs
ENCODING 8322
SWIDTH 376 0
DWIDTH 3 0
BBX 3 4 0 -2
BITMAP
78
18
24
BC
ENDCHAR
STARTCHAR three.subs
ENCODING 8323
SWIDTH 376 0
DWIDTH 3 0
BBX 3 4 0 -2
BITMAP
78
1C
68
78
ENDCHAR
STARTCHAR four.subs
ENCODING 8324
SWIDTH 376 0
DWIDTH 3 0
BBX 4 4 0 -2
BITMAP
28
68
BD
08
ENDCHAR
STARTCHAR five.subs
ENCODING 8325
SWIDTH 376 0
DWIDTH 3 0
BBX 3 4 0 -2
BITMAP
7C
60
B8
78
ENDCHAR
STARTCHAR six.subs
ENCODING 8326
SWIDTH 376 0
DWIDTH 3 0
BBX 3 4 0 -2
BITMAP
78
90
B8
78
ENDCHAR
STARTCHAR seven.subs
ENCODING 8327
SWIDTH 376 0
DWIDTH 3 0
BBX 3 4 0 -2
BITMAP
BC
18
24
30
ENDCHAR
STARTCHAR eight.subs
ENCODING 8328
SWIDTH 376 0
DWIDTH 3 0
BBX 3 4 0 -2
BITMAP
78
6C
78
78
ENDCHAR
STARTCHAR nine.subs
ENCODING 8329
SWIDTH 376 0
DWIDTH 3 0
BBX 3 4 0 -2
BITMAP
78
9C
7C
74
ENDCHAR
STARTCHAR parenleft.subs
ENCODING 8333
SWIDTH 268 0
DWIDTH 2 0
BBX 2 5 0 -3
BITMAP
20
60
60
60
20
ENDCHAR
STARTCHAR parenright.subs
ENCODING 8334
SWIDTH 268 0
DWIDTH 2 0
BBX 2 5 0 -3
BITMAP
50
60
20
60
50
ENDCHAR
STARTCHAR uni0259.sups
ENCODING 8340
SWIDTH 346 0
DWIDTH 3 0
BBX 3 3 0 3
BITMAP
74
BC
74
ENDCHAR
STARTCHAR colonmonetary
ENCODING 8353
SWIDTH 528 0
DWIDTH 5 0
BBX 5 8 0 -1
BITMAP
0500
1F40
7A00
7500
7900
7A00
2F40
1800
ENDCHAR
STARTCHAR lira
ENCODING 8356
SWIDTH 528 0
DWIDTH 5 0
BBX 5 6 0 0
BITMAP
1F40
3400
BE00
2400
BE00
BF40
ENDCHAR
STARTCHAR uni20A6
ENCODING 8358
SWIDTH 528 0
DWIDTH 5 0
BBX 5 6 0 0
BITMAP
7300
7700
FF80
6A00
FF80
6700
ENDCHAR
STARTCHAR peseta
ENCODING 8359
SWIDTH 528 0
DWIDTH 5 0
BBX 5 6 0 0
BITMAP
7E00
FF80
7700
7D00
7000
7000
ENDCHAR
STARTCHAR uni20A9
ENCODING 8361
SWIDTH 528 0
DWIDTH 5 0
BBX 6 6 -1 0
BITMAP
2050
2760
2B90
7FF0
1ED0
1DC0
ENDCHAR
STARTCHAR dong
ENCODING 8363
SWIDTH 528 0
DWIDTH 5 0
BBX 5 7 0 0
BITMAP
0100
1F80
1B00
7B00
7B00
1600
7F40
ENDCHAR
STARTCHAR Euro
ENCODING 8364
SWIDTH 528 0
DWIDTH 5 0
BBX 5 6 0 0
BITMAP
1F40
3400
BA00
7000
BA00
2F40
ENDCHAR
STARTCHAR uni20AE
ENCODING 8366
SWIDTH 528 0
DWIDTH 5 0
BBX 5 6 0 0
BITMAP
BF40
1E00
2C00
1E00
2C00
1C00
ENDCHAR
STARTCHAR uni20B1
ENCODING 8369
SWIDTH 528 0
DWIDTH 5 0
BBX 5 6 0 0
BITMAP
7D00
BB40
BB40
7A00
7800
7000
ENDCHAR
STARTCHAR uni20B2
ENCODING 8370
SWIDTH 528 0
DWIDTH 5 0
BBX 5 7 0 -1
BITMAP
2F40
7500
A000
A740
6240
2240
0900
ENDCHAR
STARTCHAR uni20B4
ENCODING 8372
SWIDTH 528 0
DWIDTH 5 0
BBX 5 6 0 0
BITMAP
2D00
1700
AB40
2D00
BB40
2E00
ENDCHAR
STARTCHAR uni20B5
ENCODING 8373
SWIDTH 528 0
DWIDTH 5 0
BBX 5 8 0 -1
BITMAP
0500
1F40
7900
7500
7500
7900
1F40
0500
ENDCHAR
STARTCHAR uni20B8
ENCODING 8376
SWIDTH 528 0
DWIDTH 5 0
BBX 5 6 0 0
BITMAP
6A40
6E40
1C00
1C00
1C00
1C00
ENDCHAR
STARTCHAR uni20B9
ENCODING 8377
SWIDTH 528 0
DWIDTH 5 0
BBX 5 6 0 0
BITMAP
7E00
0D00
7F40
0D00
7800
1D00
ENDCHAR
STARTCHAR uni20BA
ENCODING 8378
SWIDTH 528 0
DWIDTH 5 0
BBX 5 6 0 0
BITMAP
7000
7900
B400
7A40
B740
7D00
ENDCHAR
STARTCHAR uni20BD
ENCODING 8381
SWIDTH 528 0
DWIDTH 5 0
BBX 4 6 0 0
BITMAP
7E
77
BA
B9
70
70
ENDCHAR
STARTCHAR uni2113
ENCODING 8467
SWIDTH 470 0
DWIDTH 4 0
BBX 4 6 0 0
BITMAP
1E
37
3A
38
B5
2E
ENDCHAR
STARTCHAR uni2116
ENCODING 8470
SWIDTH 967 0
DWIDTH 9 0
BBX 9 6 0 0
BITMAP
74DF40
79DA80
7DCF40
76C000
73CF40
A2C000
ENDCHAR
STARTCHAR uni2117
ENCODING 8471
SWIDTH 750 0
DWIDTH 7 0
BBX 7 6 0 0
BITMAP
1B90
6FE0
8DD4
8F94
6C60
1B80
ENDCHAR
STARTCHAR uni2120
ENCODING 8480
SWIDTH 682 0
DWIDTH 6 0
BBX 6 3 0 3
BITMAP
7770
77A0
B6A0
ENDCHAR
STARTCHAR trademark
ENCODING 8482
SWIDTH 682 0
DWIDTH 6 0
BBX 6 4 0 3
BITMAP
F400
E270
63A0
6240
ENDCHAR
STARTCHAR uni2126
ENCODING 8486
SWIDTH 711 0
DWIDTH 6 0
BBX 6 6 0 0
BITMAP
1F80
34E0
70A0
70A0
34D0
B9F0
ENDCHAR
STARTCHAR estimated
ENCODING 8494
SWIDTH 800 0
DWIDTH 7 0
BBX 7 6 0 0
BITMAP
1B90
2420
6018
7FF8
2000
1BD0
ENDCHAR
STARTCHAR uni2150
ENCODING 8528
SWIDTH 837 0
DWIDTH 8 0
BBX 8 6 0 0
BITMAP
7480
2480
26BD
260C
0824
1424
ENDCHAR
STARTCHAR uni2151
ENCODING 8529
SWIDTH 837 0
DWIDTH 8 0
BBX 7 6 0 0
BITMAP
7490
2480
2678
2658
087C
1878
ENDCHAR
STARTCHAR uni2152
ENCODING 8530
SWIDTH 1155 0
DWIDTH 10 0
BBX 10 6 0 0
BITMAP
749000
248000
2679E0
161A70
081A70
1815E0
ENDCHAR
STARTCHAR onethird
ENCODING 8531
SWIDTH 837 0
DWIDTH 8 0
BBX 7 6 0 0
BITMAP
7480
2480
2678
261C
0828
147C
ENDCHAR
STARTCHAR twothirds
ENCODING 8532
SWIDTH 849 0
DWIDTH 8 0
BBX 7 6 0 0
BITMAP
7860
1880
25B8
BE0C
052C
083C
ENDCHAR
STARTCHAR uni2155
ENCODING 8533
SWIDTH 837 0
DWIDTH 8 0
BBX 7 6 0 0
BITMAP
7480
2480
267C
2620
087C
1478
ENDCHAR
STARTCHAR uni2156
ENCODING 8534
SWIDTH 849 0
DWIDTH 8 0
BBX 7 6 0 0
BITMAP
7860
1880
25BC
BE20
057C
083C
ENDCHAR
STARTCHAR uni2157
ENCODING 8535
SWIDTH 849 0
DWIDTH 8 0
BBX 7 6 0 0
BITMAP
7860
1C80
697C
7A20
057C
083C
ENDCHAR
STARTCHAR uni2158
ENCODING 8536
SWIDTH 892 0
DWIDTH 8 0
BBX 8 6 0 0
BITMAP
2820
6850
BDAE
0960
023D
092D
ENDCHAR
STARTCHAR uni2159
ENCODING 8537
SWIDTH 837 0
DWIDTH 8 0
BBX 7 6 0 0
BITMAP
7490
2480
2678
26A0
08BC
1878
ENDCHAR
STARTCHAR uni215A
ENCODING 8538
SWIDTH 849 0
DWIDTH 8 0
BBX 7 6 0 0
BITMAP
7C60
6080
B9AC
7A60
057C
083C
ENDCHAR
STARTCHAR oneeighth
ENCODING 8539
SWIDTH 837 0
DWIDTH 8 0
BBX 7 6 0 0
BITMAP
7490
2480
2678
266C
0838
187C
ENDCHAR
STARTCHAR threeeighths
ENCODING 8540
SWIDTH 849 0
DWIDTH 8 0
BBX 7 6 0 0
BITMAP
7860
1C80
69B8
7A68
053C
087C
ENDCHAR
STARTCHAR fiveeighths
ENCODING 8541
SWIDTH 849 0
DWIDTH 8 0
BBX 7 6 0 0
BITMAP
7C60
6080
B9B8
7A68
053C
087C
ENDCHAR
STARTCHAR seveneighths
ENCODING 8542
SWIDTH 829 0
DWIDTH 7 0
BBX 7 6 0 0
BITMAP
BC80
1980
3278
356C
0878
1478
ENDCHAR
STARTCHAR uni2189
ENCODING 8585
SWIDTH 849 0
DWIDTH 8 0
BBX 7 6 0 0
BITMAP
7860
9C80
9DB8
7A0C
052C
083C
ENDCHAR
STARTCHAR uni2190
ENCODING 8592
SWIDTH 617 0
DWIDTH 6 0
BBX 6 5 0 0
BITMAP
0800
2800
BFD0
2800
0800
ENDCHAR
STARTCHAR arrowup
ENCODING 8593
SWIDTH 617 0
DWIDTH 6 0
BBX 5 5 0 0
BITMAP
0900
2F40
6980
0900
0900
ENDCHAR
STARTCHAR uni2192
ENCODING 8594
SWIDTH 617 0
DWIDTH 6 0
BBX 5 5 0 0
BITMAP
0500
0340
BFC0
0340
0500
ENDCHAR
STARTCHAR arrowdown
ENCODING 8595
SWIDTH 617 0
DWIDTH 6 0
BBX 5 5 0 0
BITMAP
0900
0900
6980
2F40
0900
ENDCHAR
STARTCHAR partialdiff
ENCODING 8706
SWIDTH 577 0
DWIDTH 5 0
BBX 5 6 0 0
BITMAP
2E00
1280
2E80
6280
6340
2E00
ENDCHAR
STARTCHAR uni2206
ENCODING 8710
SWIDTH 640 0
DWIDTH 6 0
BBX 6 6 0 0
BITMAP
0F00
1B40
2680
35C0
70D0
BFD0
ENDCHAR
STARTCHAR product
ENCODING 8719
SWIDTH 710 0
DWIDTH 6 0
BBX 6 7 0 -1
BITMAP
7FE0
70A0
70A0
70A0
70A0
70A0
6050
ENDCHAR
STARTCHAR summation
ENCODING 8721
SWIDTH 534 0
DWIDTH 5 0
BBX 5 7 0 -1
BITMAP
BF80
7400
2800
0D00
2800
7400
BF80
ENDCHAR
STARTCHAR minus
ENCODING 8722
SWIDTH 528 0
DWIDTH 5 0
BBX 5 1 0 2
BITMAP
BF40
ENDCHAR
STARTCHAR uni2215
ENCODING 8725
SWIDTH 96 0
DWIDTH 1 0
BBX 4 6 -2 0
BITMAP
02
06
08
18
20
50
ENDCHAR
STARTCHAR uni2219
ENCODING 8729
SWIDTH 529 0
DWIDTH 5 0
BBX 2 2 1 2
BITMAP
70
70
ENDCHAR
STARTCHAR radical
ENCODING 8730
SWIDTH 588 0
DWIDTH 5 0
BBX 6 8 0 -1
BITMAP
0050
0080
0080
1180
7240
2600
0A00
0A00
ENDCHAR
STARTCHAR infinity
ENCODING 8734
SWIDTH 814 0
DWIDTH 7 0
BBX 7 4 0 1
BITMAP
3DB4
975C
975C
79F4
ENDCHAR
STARTCHAR integral
ENCODING 8747
SWIDTH 390 0
DWIDTH 4 0
BBX 4 8 0 -1
BITMAP
1D
34
34
34
24
28
28
B4
ENDCHAR
STARTCHAR approxequal
ENCODING 8776
SWIDTH 528 0
DWIDTH 5 0
BBX 5 4 0 1
BITMAP
7540
5B00
7540
5B00
ENDCHAR
STARTCHAR notequal
ENCODING 8800
SWIDTH 528 0
DWIDTH 5 0
BBX 5 5 0 0
BITMAP
0200
BF40
0800
BF40
6000
ENDCHAR
STARTCHAR lessequal
ENCODING 8804
SWIDTH 528 0
DWIDTH 5 0
BBX 5 5 0 0
BITMAP
0640
B900
6E40
0140
BF40
ENDCHAR
STARTCHAR greaterequal
ENCODING 8805
SWIDTH 528 0
DWIDTH 5 0
BBX 5 5 0 0
BITMAP
A400
1B40
6E40
5000
BF40
ENDCHAR
STARTCHAR uni231C
ENCODING 8988
SWIDTH 344 0
DWIDTH 3 0
BBX 3 7 0 -1
BITMAP
78
60
60
60
60
60
10
ENDCHAR
STARTCHAR uni231D
ENCODING 8989
SWIDTH 344 0
DWIDTH 3 0
BBX 3 7 0 -1
BITMAP
B4
24
24
24
24
24
10
ENDCHAR
STARTCHAR uni231E
ENCODING 8990
SWIDTH 344 0
DWIDTH 3 0
BBX 3 7 0 -1
BITMAP
10
60
60
60
60
60
78
ENDCHAR
STARTCHAR uni231F
ENCODING 8991
SWIDTH 344 0
DWIDTH 3 0
BBX 3 7 0 -1
BITMAP
10
24
24
24
24
24
B4
ENDCHAR
STARTCHAR uni25A0
ENCODING 9632
SWIDTH 877 0
DWIDTH 8 0
BBX 8 7 0 -1
BITMAP
BFFD
BFFD
BFFD
BFFD
BFFD
BFFD
BFFD
ENDCHAR
STARTCHAR triagup
ENCODING 9650
SWIDTH 877 0
DWIDTH 8 0
BBX 8 7 0 0
BITMAP
0140
0280
07D0
0BE0
1FF4
2FF8
7FFD
ENDCHAR
STARTCHAR uni25B3
ENCODING 9651
SWIDTH 877 0
DWIDTH 8 0
BBX 8 7 0 -1
BITMAP
0140
0280
0590
0820
1824
3018
7FFD
ENDCHAR
STARTCHAR uni25B6
ENCODING 9654
SWIDTH 877 0
DWIDTH 8 0
BBX 8 7 0 -1
BITMAP
9000
BE00
BFE0
BFFD
BFE0
BE00
A000
ENDCHAR
STARTCHAR uni25B7
ENCODING 9655
SWIDTH 877 0
DWIDTH 8 0
BBX 8 7 0 -1
BITMAP
9000
9500
9050
907D
97E0
BE00
A000
ENDCHAR
STARTCHAR triagdn
ENCODING 9660
SWIDTH 877 0
DWIDTH 8 0
BBX 8 7 0 -1
BITMAP
7FFD
2FF8
1FF4
0BE0
07D0
0280
0140
ENDCHAR
STARTCHAR uni25BD
ENCODING 9661
SWIDTH 877 0
DWIDTH 8 0
BBX 8 7 0 0
BITMAP
7FFD
2018
1824
0820
0590
0280
0140
ENDCHAR
STARTCHAR uni25C0
ENCODING 9664
SWIDTH 877 0
DWIDTH 8 0
BBX 8 7 0 -1
BITMAP
0009
00BD
0BFD
7FFD
1BFD
00BD
0009
ENDCHAR
STARTCHAR uni25C1
ENCODING 9665
SWIDTH 877 0
DWIDTH 8 0
BBX 8 7 0 -1
BITMAP
0009
0055
0505
7905
1BD5
00BD
0009
ENDCHAR
STARTCHAR uni25C6
ENCODING 9670
SWIDTH 877 0
DWIDTH 8 0
BBX 8 7 0 -1
BITMAP
0240
0BE0
2FF8
BFFD
2FF8
0BE0
0240
ENDCHAR
STARTCHAR uni25C9
ENCODING 9673
SWIDTH 877 0
DWIDTH 8 0
BBX 8 8 0 -1
BITMAP
0BE0
3428
67D9
9FF6
9FF6
67D9
3428
0BE0
ENDCHAR
STARTCHAR lozenge
ENCODING 9674
SWIDTH 548 0
DWIDTH 5 0
BBX 5 6 0 0
BITMAP
1D00
2A00
6340
6340
2A00
1D00
ENDCHAR
STARTCHAR uni25CC
ENCODING 9676
SWIDTH 577 0
DWIDTH 5 0
BBX 5 5 0 0
BITMAP
0800
2200
D0C0
5040
2A00
ENDCHAR
STARTCHAR uni2610
ENCODING 9744
SWIDTH 807 0
DWIDTH 7 0
BBX 7 6 0 0
BITMAP
7FF8
5018
5018
5018
5018
7FF4
ENDCHAR
STARTCHAR uni2611
ENCODING 9745
SWIDTH 807 0
DWIDTH 7 0
BBX 7 7 0 0
BITMAP
001C
7FF8
5078
58D8
5A98
5218
7FF4
ENDCHAR
STARTCHAR uni266A
ENCODING 9834
SWIDTH 544 0
DWIDTH 5 0
BBX 5 6 0 0
BITMAP
0400
0B40
0980
0880
0800
B800
ENDCHAR
STARTCHAR uni2713
ENCODING 10003
SWIDTH 647 0
DWIDTH 6 0
BBX 6 6 0 0
BITMAP
0060
01C0
0240
9600
6900
2800
ENDCHAR
STARTCHAR uni2752
ENCODING 10066
SWIDTH 877 0
DWIDTH 8 0
BBX 8 8 0 -1
BITMAP
7FFD
8005
8005
8005
8005
8005
8005
BFFD
ENDCHAR
STARTCHAR uni27E6
ENCODING 10214
SWIDTH 437 0
DWIDTH 4 0
BBX 4 9 0 -2
BITMAP
7E
68
68
68
68
68
68
68
7E
ENDCHAR
STARTCHAR uni27E7
ENCODING 10215
SWIDTH 437 0
DWIDTH 4 0
BBX 3 9 0 -2
BITMAP
BC
28
28
28
28
28
28
28
BC
ENDCHAR
STARTCHAR uni2E22
ENCODING 11810
SWIDTH 344 0
DWIDTH 3 0
BBX 3 4 0 3
BITMAP
78
60
60
60
ENDCHAR
STARTCHAR uni2E23
ENCODING 11811
SWIDTH 344 0
DWIDTH 3 0
BBX 3 4 0 3
BITMAP
B4
24
24
24
ENDCHAR
STARTCHAR uni2E24
ENCODING 11812
SWIDTH 344 0
DWIDTH 3 0
BBX 3 4 0 -2
BITMAP
60
60
60
78
ENDCHAR
STARTCHAR uni2E25
ENCODING 11813
SWIDTH 344 0
DWIDTH 3 0
BBX 3 4 0 -2
BITMAP
24
24
24
B4
ENDCHAR
STARTCHAR uni2E3A
ENCODING 11834
SWIDTH 1500 0
DWIDTH 14 0
BBX 13 1 0 2
BITMAP
BFFFFFC0
ENDCHAR
STARTCHAR uni2E3B
ENCODING 11835
SWIDTH 2200 0
DWIDTH 20 0
BBX 20 1 0 2
BITMAP
BFFFFFFFFD
ENDCHAR
STARTCHAR f_f
ENCODING 64256
SWIDTH 657 0
DWIDTH 6 0
BBX 6 6 0 0
BITMAP
2DB0
35C0
BFE0
71C0
71C0
71C0
ENDCHAR
STARTCHAR fi
ENCODING 64257
SWIDTH 635 0
DWIDTH 6 0
BBX 5 7 0 0
BITMAP
0040
2DC0
3400
BDC0
71C0
71C0
71C0
ENDCHAR
STARTCHAR fl
ENCODING 64258
SWIDTH 627 0
DWIDTH 6 0
BBX 6 6 0 0
BITMAP
2EC0
35C0
BDC0
71C0
71C0
70D0
ENDCHAR
STARTCHAR f_f_i
ENCODING 64259
SWIDTH 933 0
DWIDTH 8 0
BBX 8 7 0 0
BITMAP
0001
2DBA
35C0
BFEA
71CA
71CA
71CA
ENDCHAR
STARTCHAR f_f_l
ENCODING 64260
SWIDTH 943 0
DWIDTH 8 0
BBX 9 6 0 0
BITMAP
2DBA00
35CA00
BFEA00
71CA00
71CB00
71C740
ENDCHAR
STARTCHAR uniFEFF
ENCODING 65279
SWIDTH 0 0
DWIDTH 0 0
BBX 1 1 0 0
BITMAP
00
ENDCHAR
STARTCHAR u1F16A
ENCODING 127338
SWIDTH 682 0
DWIDTH 6 0
BBX 6 3 0 3
BITMAP
ADB0
A980
85B0
ENDCHAR
STARTCHAR u1F16B
ENCODING 127339
SWIDTH 719 0
DWIDTH 6 0
BBX 7 3 0 3
BITMAP
ADF0
A9A4
85F0
ENDCHAR
STARTCHAR .notdef
ENCODING -1
SWIDTH 690 0
DWIDTH 6 0
BBX 6 6 0 0
BITMAP
7FD0
7AD0
6B50
6B50
79D0
7FD0
ENDCHAR
STARTCHAR uni00470303
ENCODING -1
SWIDTH 638 0
DWIDTH 6 0
BBX 6 9 0 0
BITMAP
0040
0EC0
1540
1F80
7440
B000
A3D0
74D0
1F80
ENDCHAR
STARTCHAR uni00670303
ENCODING -1
SWIDTH 534 0
DWIDTH 5 0
BBX 5 10 0 -2
BITMAP
0100
2A00
2500
0000
7F80
A700
7E00
7F40
A280
7E00
ENDCHAR
STARTCHAR iogonek.d
ENCODING -1
SWIDTH 276 0
DWIDTH 2 0
BBX 2 6 0 -2
BITMAP
70
70
70
70
50
70
ENDCHAR
STARTCHAR f_t
ENCODING -1
SWIDTH 688 0
DWIDTH 6 0
BBX 6 6 0 0
BITMAP
2E80
3580
BFF0
7180
71C0
71F0
ENDCHAR
STARTCHAR f_f_t
ENCODING -1
SWIDTH 1004 0
DWIDTH 9 0
BBX 9 7 0 -1
BITMAP
2DB000
35CA00
BFFF80
71CA00
71CA00
71C780
104000
ENDCHAR
STARTCHAR I.a
ENCODING -1
SWIDTH 396 0
DWIDTH 4 0
BBX 3 6 0 0
BITMAP
BC
34
34
34
34
BC
ENDCHAR
STARTCHAR Igrave.a
ENCODING -1
SWIDTH 396 0
DWIDTH 4 0
BBX 3 8 0 0
BITMAP
60
24
BC
34
34
34
34
BC
ENDCHAR
STARTCHAR Iacute.a
ENCODING -1
SWIDTH 396 0
DWIDTH 4 0
BBX 3 8 0 0
BITMAP
08
24
BC
34
34
34
34
BC
ENDCHAR
STARTCHAR Icircumflex.a
ENCODING -1
SWIDTH 396 0
DWIDTH 4 0
BBX 3 7 0 0
BITMAP
68
BC
34
34
34
34
BC
ENDCHAR
STARTCHAR Itilde.a
ENCODING -1
SWIDTH 396 0
DWIDTH 4 0
BBX 4 9 0 0
BITMAP
01
B9
D8
BC
34
34
34
34
BC
ENDCHAR
STARTCHAR Idieresis.a
ENCODING -1
SWIDTH 396 0
DWIDTH 4 0
BBX 4 7 0 0
BITMAP
99
BC
34
34
34
34
BC
ENDCHAR
STARTCHAR Imacron.a
ENCODING -1
SWIDTH 396 0
DWIDTH 4 0
BBX 3 7 0 0
BITMAP
BC
BC
34
34
34
34
BC
ENDCHAR
STARTCHAR Idotaccent.a
ENCODING -1
SWIDTH 396 0
DWIDTH 4 0
BBX 3 7 0 0
BITMAP
24
BC
34
34
34
34
BC
ENDCHAR
STARTCHAR uni01CF.a
ENCODING -1
SWIDTH 396 0
DWIDTH 4 0
BBX 3 7 0 0
BITMAP
68
BC
34
34
34
34
BC
ENDCHAR
STARTCHAR uni1EC8.a
ENCODING -1
SWIDTH 396 0
DWIDTH 4 0
BBX 3 8 0 0
BITMAP
34
24
BC
34
34
34
34
BC
ENDCHAR
STARTCHAR uni1ECA.a
ENCODING -1
SWIDTH 396 0
DWIDTH 4 0
BBX 3 8 0 -2
BITMAP
BC
34
34
34
34
BC
00
24
ENDCHAR
STARTCHAR Iogonek.a
ENCODING -1
SWIDTH 396 0
DWIDTH 4 0
BBX 3 8 0 -2
BITMAP
BC
34
34
34
34
BC
20
38
ENDCHAR
STARTCHAR uni012C.a
ENCODING -1
SWIDTH 396 0
DWIDTH 4 0
BBX 3 8 0 0
BITMAP
98
78
BC
34
34
34
34
BC
ENDCHAR
STARTCHAR uni014A.a
ENCODING -1
SWIDTH 665 0
DWIDTH 6 0
BBX 6 8 0 -2
BITMAP
74D0
78D0
79D0
76D0
72D0
71D0
00D0
0380
ENDCHAR
STARTCHAR a.a
ENCODING -1
SWIDTH 573 0
DWIDTH 5 0
BBX 5 4 0 0
BITMAP
2E80
B380
A380
2E80
ENDCHAR
STARTCHAR agrave.a
ENCODING -1
SWIDTH 573 0
DWIDTH 5 0
BBX 5 7 0 0
BITMAP
2400
1800
0000
2E80
B380
A380
2E80
ENDCHAR
STARTCHAR aacute.a
ENCODING -1
SWIDTH 573 0
DWIDTH 5 0
BBX 5 7 0 0
BITMAP
0200
0900
0000
2E80
B380
A380
2E80
ENDCHAR
STARTCHAR acircumflex.a
ENCODING -1
SWIDTH 573 0
DWIDTH 5 0
BBX 5 7 0 0
BITMAP
1E00
2600
0000
2E80
B380
A380
2E80
ENDCHAR
STARTCHAR atilde.a
ENCODING -1
SWIDTH 573 0
DWIDTH 5 0
BBX 5 7 0 0
BITMAP
2A40
2600
0000
2E80
B380
A380
2E80
ENDCHAR
STARTCHAR adieresis.a
ENCODING -1
SWIDTH 573 0
DWIDTH 5 0
BBX 5 6 0 0
BITMAP
2600
0000
2E80
B380
A380
2E80
ENDCHAR
STARTCHAR amacron.a
ENCODING -1
SWIDTH 573 0
DWIDTH 5 0
BBX 5 6 0 0
BITMAP
2F00
0000
2E80
B380
A380
2E80
ENDCHAR
STARTCHAR abreve.a
ENCODING -1
SWIDTH 573 0
DWIDTH 5 0
BBX 5 7 0 0
BITMAP
2200
1E00
0000
2E80
B380
A380
2E80
ENDCHAR
STARTCHAR aring.a
ENCODING -1
SWIDTH 573 0
DWIDTH 5 0
BBX 5 7 0 0
BITMAP
1E00
1E00
0000
2E80
B380
A380
2E80
ENDCHAR
STARTCHAR uni01CE.a
ENCODING -1
SWIDTH 573 0
DWIDTH 5 0
BBX 5 7 0 0
BITMAP
2600
1E00
0000
2E80
B380
A380
2E80
ENDCHAR
STARTCHAR uni1EA1.a
ENCODING -1
SWIDTH 573 0
DWIDTH 5 0
BBX 5 6 0 -2
BITMAP
2E80
B380
A380
2E80
0000
0900
ENDCHAR
STARTCHAR uni1EA3.a
ENCODING -1
SWIDTH 573 0
DWIDTH 5 0
BBX 5 7 0 0
BITMAP
0D00
0900
0000
2E80
B380
A380
2E80
ENDCHAR
STARTCHAR uni1EA5.a
ENCODING -1
SWIDTH 573 0
DWIDTH 5 0
BBX 5 8 0 0
BITMAP
0080
0D80
1600
0000
2E80
B380
A380
2E80
ENDCHAR
STARTCHAR uni1EA7.a
ENCODING -1
SWIDTH 573 0
DWIDTH 5 0
BBX 5 8 0 0
BITMAP
8000
5D00
1600
0000
2E80
B380
A380
2E80
ENDCHAR
STARTCHAR uni1EA9.a
ENCODING -1
SWIDTH 573 0
DWIDTH 5 0
BBX 5 9 0 0
BITMAP
0180
00C0
0E80
1600
0000
2E80
B380
A380
2E80
ENDCHAR
STARTCHAR uni1EAB.a
ENCODING -1
SWIDTH 573 0
DWIDTH 5 0
BBX 5 9 0 0
BITMAP
1600
2A00
1000
0D00
1600
3F80
B380
A380
2E80
ENDCHAR
STARTCHAR uni1EAD.a
ENCODING -1
SWIDTH 573 0
DWIDTH 5 0
BBX 5 9 0 -2
BITMAP
1E00
2600
0000
2E80
B380
A380
2E80
0000
0900
ENDCHAR
STARTCHAR uni1EAF.a
ENCODING -1
SWIDTH 573 0
DWIDTH 5 0
BBX 5 9 0 0
BITMAP
0600
0900
2200
1E00
0000
2E80
B380
A380
2E80
ENDCHAR
STARTCHAR uni1EB1.a
ENCODING -1
SWIDTH 573 0
DWIDTH 5 0
BBX 5 9 0 0
BITMAP
1800
0800
2200
1E00
0000
2E80
B380
A380
2E80
ENDCHAR
STARTCHAR uni1EB3.a
ENCODING -1
SWIDTH 573 0
DWIDTH 5 0
BBX 5 10 0 0
BITMAP
0C00
0900
0900
2200
1E00
0000
2E80
B380
A380
2E80
ENDCHAR
STARTCHAR uni1EB5.a
ENCODING -1
SWIDTH 573 0
DWIDTH 5 0
BBX 5 10 0 0
BITMAP
1600
2A00
1000
2600
1E00
0000
2E80
B380
A380
2E80
ENDCHAR
STARTCHAR uni1EB7.a
ENCODING -1
SWIDTH 573 0
DWIDTH 5 0
BBX 5 9 0 -2
BITMAP
2200
1E00
0000
2E80
B380
A380
2E80
0000
0900
ENDCHAR
STARTCHAR aogonek.a
ENCODING -1
SWIDTH 573 0
DWIDTH 5 0
BBX 5 6 0 -2
BITMAP
2E80
B380
A380
2E80
0200
0380
ENDCHAR
STARTCHAR g.a
ENCODING -1
SWIDTH 583 0
DWIDTH 5 0
BBX 5 6 0 -2
BITMAP
2E80
B280
B280
2F80
1380
3E00
ENDCHAR
STARTCHAR uni01F5.a
ENCODING -1
SWIDTH 583 0
DWIDTH 5 0
BBX 5 9 0 -2
BITMAP
0200
0900
0000
2E80
B280
B280
2F80
1380
3E00
ENDCHAR
STARTCHAR gcircumflex.a
ENCODING -1
SWIDTH 583 0
DWIDTH 5 0
BBX 5 9 0 -2
BITMAP
1E00
2600
0000
2E80
B280
B280
2F80
1380
3E00
ENDCHAR
STARTCHAR gbreve.a
ENCODING -1
SWIDTH 583 0
DWIDTH 5 0
BBX 5 9 0 -2
BITMAP
2600
1E00
0000
2E80
B280
B280
2F80
1380
3E00
ENDCHAR
STARTCHAR gdotaccent.a
ENCODING -1
SWIDTH 583 0
DWIDTH 5 0
BBX 5 8 0 -2
BITMAP
0900
0000
2E80
B280
B280
2F80
1380
3E00
ENDCHAR
STARTCHAR uni0123.a
ENCODING -1
SWIDTH 583 0
DWIDTH 5 0
BBX 5 10 0 -2
BITMAP
0A00
0C00
0900
0000
2E80
B280
B280
2F80
1380
3E00
ENDCHAR
STARTCHAR gcaron.a
ENCODING -1
SWIDTH 583 0
DWIDTH 5 0
BBX 5 9 0 -2
BITMAP
2600
1E00
0000
2E80
B280
B280
2F80
1380
3E00
ENDCHAR
STARTCHAR uni1E21.a
ENCODING -1
SWIDTH 583 0
DWIDTH 5 0
BBX 5 8 0 -2
BITMAP
2F00
0000
2E80
B280
B280
2F80
1380
3E00
ENDCHAR
STARTCHAR uni00670303.a
ENCODING -1
SWIDTH 583 0
DWIDTH 5 0
BBX 5 9 0 -2
BITMAP
2A40
2600
0000
2E80
B280
B280
2F80
1380
3E00
ENDCHAR
STARTCHAR l.a
ENCODING -1
SWIDTH 276 0
DWIDTH 2 0
BBX 2 6 0 0
BITMAP
70
70
70
70
70
70
ENDCHAR
STARTCHAR lacute.a
ENCODING -1
SWIDTH 276 0
DWIDTH 2 0
BBX 3 9 0 0
BITMAP
14
60
00
70
70
70
70
70
70
ENDCHAR
STARTCHAR lcaron.a
ENCODING -1
SWIDTH 318 0
DWIDTH 3 0
BBX 3 6 0 0
BITMAP
78
70
70
70
70
70
ENDCHAR
STARTCHAR ldot.a
ENCODING -1
SWIDTH 453 0
DWIDTH 4 0
BBX 4 6 0 0
BITMAP
70
70
77
77
70
70
ENDCHAR
STARTCHAR uni013C.a
ENCODING -1
SWIDTH 276 0
DWIDTH 2 0
BBX 2 9 0 -3
BITMAP
70
70
70
70
70
70
60
30
A0
ENDCHAR
STARTCHAR uni1E37.a
ENCODING -1
SWIDTH 276 0
DWIDTH 2 0
BBX 2 8 0 -2
BITMAP
70
70
70
70
70
70
00
60
ENDCHAR
STARTCHAR uni1E39.a
ENCODING -1
SWIDTH 276 0
DWIDTH 2 0
BBX 3 10 0 -2
BITMAP
F8
00
70
70
70
70
70
70
00
60
ENDCHAR
STARTCHAR uni1E3B.a
ENCODING -1
SWIDTH 276 0
DWIDTH 2 0
BBX 3 8 0 -2
BITMAP
70
70
70
70
70
70
00
F8
ENDCHAR
STARTCHAR lslash.a
ENCODING -1
SWIDTH 299 0
DWIDTH 3 0
BBX 3 6 0 0
BITMAP
70
78
F0
70
70
70
ENDCHAR
STARTCHAR fl.a
ENCODING -1
SWIDTH 635 0
DWIDTH 6 0
BBX 5 6 0 0
BITMAP
2DC0
35C0
BDC0
71C0
71C0
71C0
ENDCHAR
STARTCHAR anoteleia.cap
ENCODING -1
SWIDTH 300 0
DWIDTH 3 0
BBX 2 2 0 4
BITMAP
70
70
ENDCHAR
STARTCHAR tonos.cap
ENCODING -1
SWIDTH 119 0
DWIDTH 1 0
BBX 1 2 0 4
BITMAP
C0
C0
ENDCHAR
STARTCHAR uni1FBD.cap
ENCODING -1
SWIDTH 164 0
DWIDTH 1 0
BBX 2 3 0 3
BITMAP
D0
90
40
ENDCHAR
STARTCHAR uni1FFE.cap
ENCODING -1
SWIDTH 161 0
DWIDTH 1 0
BBX 2 3 0 3
BITMAP
90
C0
40
ENDCHAR
STARTCHAR uni1FEF.cap
ENCODING -1
SWIDTH 119 0
DWIDTH 1 0
BBX 1 2 0 4
BITMAP
C0
80
ENDCHAR
STARTCHAR uni1FCD.cap
ENCODING -1
SWIDTH 326 0
DWIDTH 3 0
BBX 3 2 0 4
BITMAP
D8
9C
ENDCHAR
STARTCHAR uni1FDD.cap
ENCODING -1
SWIDTH 325 0
DWIDTH 3 0
BBX 3 3 0 3
BITMAP
98
CC
40
ENDCHAR
STARTCHAR uni1FCE.cap
ENCODING -1
SWIDTH 326 0
DWIDTH 3 0
BBX 3 2 0 4
BITMAP
DC
18
ENDCHAR
STARTCHAR uni1FDE.cap
ENCODING -1
SWIDTH 317 0
DWIDTH 3 0
BBX 3 3 0 3
BITMAP
9C
D8
40
ENDCHAR
STARTCHAR uni1FCF.cap
ENCODING -1
SWIDTH 223 0
DWIDTH 2 0
BBX 2 3 0 3
BITMAP
F0
90
50
ENDCHAR
STARTCHAR uni1FDF.cap
ENCODING -1
SWIDTH 223 0
DWIDTH 2 0
BBX 2 3 0 3
BITMAP
F0
60
50
ENDCHAR
STARTCHAR uni0407.a
ENCODING -1
SWIDTH 301 0
DWIDTH 3 0
BBX 3 7 0 0
BITMAP
94
70
70
70
70
70
70
ENDCHAR
STARTCHAR uni0457.a
ENCODING -1
SWIDTH 299 0
DWIDTH 3 0
BBX 3 6 0 0
BITMAP
94
00
70
70
70
70
ENDCHAR
STARTCHAR uni0431.srb
ENCODING -1
SWIDTH 546 0
DWIDTH 5 0
BBX 5 6 0 0
BITMAP
2F40
3800
2F00
6340
A240
2E00
ENDCHAR
STARTCHAR zero.0
ENCODING -1
SWIDTH 528 0
DWIDTH 5 0
BBX 5 6 0 0
BITMAP
2E00
6340
A640
AA40
6300
2E00
ENDCHAR
STARTCHAR zero.0s
ENCODING -1
SWIDTH 528 0
DWIDTH 5 0
BBX 5 6 0 0
BITMAP
2E00
7340
B640
AB40
6700
2E00
ENDCHAR
STARTCHAR zero.pnum
ENCODING -1
SWIDTH 580 0
DWIDTH 5 0
BBX 5 6 0 0
BITMAP
2E00
7240
6280
6280
7240
2E00
ENDCHAR
STARTCHAR one.pnum
ENCODING -1
SWIDTH 410 0
DWIDTH 4 0
BBX 3 6 0 0
BITMAP
28
B8
28
28
28
28
ENDCHAR
STARTCHAR two.pnum
ENCODING -1
SWIDTH 526 0
DWIDTH 5 0
BBX 5 6 0 0
BITMAP
7D00
1700
0700
1E00
7800
BF40
ENDCHAR
STARTCHAR three.pnum
ENCODING -1
SWIDTH 528 0
DWIDTH 5 0
BBX 5 6 0 0
BITMAP
7E00
1700
2E00
0740
4740
7E00
ENDCHAR
STARTCHAR four.pnum
ENCODING -1
SWIDTH 560 0
DWIDTH 5 0
BBX 5 6 0 0
BITMAP
0B00
1F00
3B00
6700
BF80
0700
ENDCHAR
STARTCHAR five.pnum
ENCODING -1
SWIDTH 528 0
DWIDTH 5 0
BBX 5 6 0 0
BITMAP
7F00
7000
7E00
0740
4740
7E00
ENDCHAR
STARTCHAR six.pnum
ENCODING -1
SWIDTH 562 0
DWIDTH 5 0
BBX 5 6 0 0
BITMAP
1F40
3100
7F00
7280
7240
2E00
ENDCHAR
STARTCHAR seven.pnum
ENCODING -1
SWIDTH 516 0
DWIDTH 5 0
BBX 5 6 0 0
BITMAP
BF40
0700
0D00
1C00
2800
2800
ENDCHAR
STARTCHAR eight.pnum
ENCODING -1
SWIDTH 549 0
DWIDTH 5 0
BBX 5 6 0 0
BITMAP
2E00
7340
3A00
6B40
6340
2E00
ENDCHAR
STARTCHAR nine.pnum
ENCODING -1
SWIDTH 562 0
DWIDTH 5 0
BBX 5 6 0 0
BITMAP
2E00
6340
6340
3F40
1340
7D00
ENDCHAR
STARTCHAR zero.0p
ENCODING -1
SWIDTH 580 0
DWIDTH 5 0
BBX 5 6 0 0
BITMAP
2E00
7240
6680
6A80
7240
2E00
ENDCHAR
STARTCHAR zero.0ps
ENCODING -1
SWIDTH 580 0
DWIDTH 5 0
BBX 5 6 0 0
BITMAP
2E00
7240
7980
6780
7340
2E00
ENDCHAR
STARTCHAR zero.tnum
ENCODING -1
SWIDTH 528 0
DWIDTH 5 0
BBX 5 5 0 0
BITMAP
2E00
A340
A340
A340
2E00
ENDCHAR
STARTCHAR one.tnum
ENCODING -1
SWIDTH 528 0
DWIDTH 5 0
BBX 5 5 0 0
BITMAP
1D00
7D00
0D00
0D00
7F40
ENDCHAR
STARTCHAR two.tnum
ENCODING -1
SWIDTH 528 0
DWIDTH 5 0
BBX 5 5 0 0
BITMAP
7D00
5700
0A00
2C00
BF40
ENDCHAR
STARTCHAR three.tnum
ENCODING -1
SWIDTH 528 0
DWIDTH 5 0
BBX 5 6 0 -1
BITMAP
7E00
1700
2E00
0740
4740
7E00
ENDCHAR
STARTCHAR four.tnum
ENCODING -1
SWIDTH 528 0
DWIDTH 5 0
BBX 5 6 0 -1
BITMAP
0F00
2B00
6700
BF80
0700
0100
ENDCHAR
STARTCHAR five.tnum
ENCODING -1
SWIDTH 528 0
DWIDTH 5 0
BBX 5 6 0 -1
BITMAP
7F00
7000
7E00
1740
4740
7E00
ENDCHAR
STARTCHAR six.tnum
ENCODING -1
SWIDTH 528 0
DWIDTH 5 0
BBX 5 6 0 0
BITMAP
2E00
7100
BE00
A340
7340
2E00
ENDCHAR
STARTCHAR seven.tnum
ENCODING -1
SWIDTH 528 0
DWIDTH 5 0
BBX 5 6 0 -1
BITMAP
BF40
0700
0D00
1C00
1C00
1800
ENDCHAR
STARTCHAR eight.tnum
ENCODING -1
SWIDTH 528 0
DWIDTH 5 0
BBX 5 6 0 0
BITMAP
2E00
7300
3A00
6B00
A340
2E00
ENDCHAR
STARTCHAR nine.tnum
ENCODING -1
SWIDTH 528 0
DWIDTH 5 0
BBX 5 6 0 -1
BITMAP
7D00
A700
A340
7B40
0700
7D00
ENDCHAR
STARTCHAR zero.onum
ENCODING -1
SWIDTH 545 0
DWIDTH 5 0
BBX 5 5 0 0
BITMAP
2E00
7340
A240
7340
2E00
ENDCHAR
STARTCHAR one.onum
ENCODING -1
SWIDTH 410 0
DWIDTH 4 0
BBX 3 5 0 0
BITMAP
28
B8
28
28
28
ENDCHAR
STARTCHAR two.onum
ENCODING -1
SWIDTH 518 0
DWIDTH 5 0
BBX 5 5 0 0
BITMAP
7D00
5700
0A00
2C00
BF40
ENDCHAR
STARTCHAR three.onum
ENCODING -1
SWIDTH 528 0
DWIDTH 5 0
BBX 5 6 0 -1
BITMAP
7E00
1700
2E00
0740
4740
7E00
ENDCHAR
STARTCHAR four.onum
ENCODING -1
SWIDTH 545 0
DWIDTH 5 0
BBX 5 6 0 -1
BITMAP
0F00
2B00
7700
BF80
0700
0100
ENDCHAR
STARTCHAR five.onum
ENCODING -1
SWIDTH 528 0
DWIDTH 5 0
BBX 5 6 0 -1
BITMAP
7F00
7000
7E00
1740
4740
7E00
ENDCHAR
STARTCHAR six.onum
ENCODING -1
SWIDTH 545 0
DWIDTH 5 0
BBX 5 6 0 0
BITMAP
1F00
7100
7E00
7240
7340
2E00
ENDCHAR
STARTCHAR seven.onum
ENCODING -1
SWIDTH 516 0
DWIDTH 5 0
BBX 5 6 0 -1
BITMAP
BF40
0600
0D00
1C00
2800
2800
ENDCHAR
STARTCHAR eight.onum
ENCODING -1
SWIDTH 547 0
DWIDTH 5 0
BBX 5 6 0 0
BITMAP
2E00
7300
3A00
6B40
6340
2E00
ENDCHAR
STARTCHAR nine.onum
ENCODING -1
SWIDTH 545 0
DWIDTH 5 0
BBX 5 6 0 -1
BITMAP
2E00
A340
A340
7F40
0740
7D00
ENDCHAR
STARTCHAR at.case
ENCODING -1
SWIDTH 830 0
DWIDTH 7 0
BBX 7 6 0 0
BITMAP
0BE0
3BA8
69CC
9DCC
6BB4
1F80
ENDCHAR
STARTCHAR i.trk
ENCODING -1
SWIDTH 276 0
DWIDTH 2 0
BBX 2 7 0 0
BITMAP
10
60
00
70
70
70
70
ENDCHAR
STARTCHAR A.sc
ENCODING -1
SWIDTH 503 0
DWIDTH 5 0
BBX 5 5 0 0
BITMAP
2D00
3A00
7600
BF00
D340
ENDCHAR
STARTCHAR B.sc
ENCODING -1
SWIDTH 546 0
DWIDTH 5 0
BBX 5 5 0 0
BITMAP
7E00
7340
7F00
7280
7F40
ENDCHAR
STARTCHAR C.sc
ENCODING -1
SWIDTH 520 0
DWIDTH 5 0
BBX 5 5 0 0
BITMAP
2F00
7000
A000
7100
2F40
ENDCHAR
STARTCHAR D.sc
ENCODING -1
SWIDTH 580 0
DWIDTH 5 0
BBX 5 5 0 0
BITMAP
7E00
7280
7280
7280
7E00
ENDCHAR
STARTCHAR E.sc
ENCODING -1
SWIDTH 499 0
DWIDTH 4 0
BBX 4 5 0 0
BITMAP
7F
70
7E
70
7F
ENDCHAR
STARTCHAR F.sc
ENCODING -1
SWIDTH 476 0
DWIDTH 4 0
BBX 4 5 0 0
BITMAP
7F
70
7E
70
70
ENDCHAR
STARTCHAR G.sc
ENCODING -1
SWIDTH 576 0
DWIDTH 5 0
BBX 5 5 0 0
BITMAP
2F40
7000
A000
7780
2F40
ENDCHAR
STARTCHAR H.sc
ENCODING -1
SWIDTH 621 0
DWIDTH 6 0
BBX 5 5 0 0
BITMAP
71C0
71C0
7FC0
71C0
71C0
ENDCHAR
STARTCHAR I.sc
ENCODING -1
SWIDTH 301 0
DWIDTH 3 0
BBX 2 5 0 0
BITMAP
70
70
70
70
70
ENDCHAR
STARTCHAR J.sc
ENCODING -1
SWIDTH 470 0
DWIDTH 4 0
BBX 4 5 0 0
BITMAP
0A
0A
0A
0A
7C
ENDCHAR
STARTCHAR K.sc
ENCODING -1
SWIDTH 555 0
DWIDTH 5 0
BBX 5 5 0 0
BITMAP
7340
7A00
7E00
7700
7280
ENDCHAR
STARTCHAR L.sc
ENCODING -1
SWIDTH 471 0
DWIDTH 4 0
BBX 4 5 0 0
BITMAP
70
70
70
70
7F
ENDCHAR
STARTCHAR M.sc
ENCODING -1
SWIDTH 685 0
DWIDTH 6 0
BBX 6 5 0 0
BITMAP
74D0
79D0
6E90
7A90
7190
ENDCHAR
STARTCHAR N.sc
ENCODING -1
SWIDTH 606 0
DWIDTH 5 0
BBX 5 5 0 0
BITMAP
7580
7980
7E80
7780
7280
ENDCHAR
STARTCHAR O.sc
ENCODING -1
SWIDTH 616 0
DWIDTH 6 0
BBX 5 5 0 0
BITMAP
2F40
72C0
A1C0
72C0
2F40
ENDCHAR
STARTCHAR P.sc
ENCODING -1
SWIDTH 551 0
DWIDTH 5 0
BBX 5 5 0 0
BITMAP
7E00
7280
7280
7E00
7000
ENDCHAR
STARTCHAR Q.sc
ENCODING -1
SWIDTH 614 0
DWIDTH 6 0
BBX 6 7 0 -2
BITMAP
2F40
72C0
A1C0
72C0
2F40
0A00
02D0
ENDCHAR
STARTCHAR R.sc
ENCODING -1
SWIDTH 561 0
DWIDTH 5 0
BBX 5 5 0 0
BITMAP
7F40
7280
7F00
7700
7280
ENDCHAR
STARTCHAR S.sc
ENCODING -1
SWIDTH 504 0
DWIDTH 5 0
BBX 5 5 0 0
BITMAP
2E00
7500
2E00
1740
7E00
ENDCHAR
STARTCHAR T.sc
ENCODING -1
SWIDTH 491 0
DWIDTH 4 0
BBX 5 5 0 0
BITMAP
BF40
1C00
1C00
1C00
1C00
ENDCHAR
STARTCHAR U.sc
ENCODING -1
SWIDTH 607 0
DWIDTH 5 0
BBX 5 5 0 0
BITMAP
7180
7180
7180
7280
2F40
ENDCHAR
STARTCHAR V.sc
ENCODING -1
SWIDTH 491 0
DWIDTH 4 0
BBX 5 5 0 0
BITMAP
D340
A700
7600
3900
2C00
ENDCHAR
STARTCHAR W.sc
ENCODING -1
SWIDTH 717 0
DWIDTH 6 0
BBX 7 5 0 0
BITMAP
9734
AB70
6AB0
7DE0
39E0
ENDCHAR
STARTCHAR X.sc
ENCODING -1
SWIDTH 509 0
DWIDTH 5 0
BBX 5 5 0 0
BITMAP
B700
3A00
2D00
3A00
A740
ENDCHAR
STARTCHAR Y.sc
ENCODING -1
SWIDTH 467 0
DWIDTH 4 0
BBX 4 5 0 0
BITMAP
E7
7A
3C
28
28
ENDCHAR
STARTCHAR Z.sc
ENCODING -1
SWIDTH 481 0
DWIDTH 4 0
BBX 4 5 0 0
BITMAP
7F
0E
2C
74
BF
ENDCHAR
STARTCHAR Agrave.sc
ENCODING -1
SWIDTH 503 0
DWIDTH 5 0
BBX 5 7 0 0
BITMAP
2000
1800
2D00
3A00
7600
BF00
D340
ENDCHAR
STARTCHAR Aacute.sc
ENCODING -1
SWIDTH 503 0
DWIDTH 5 0
BBX 5 7 0 0
BITMAP
0500
1800
2D00
3A00
7600
BF00
D340
ENDCHAR
STARTCHAR Acircumflex.sc
ENCODING -1
SWIDTH 503 0
DWIDTH 5 0
BBX 5 6 0 0
BITMAP
2900
2D00
3A00
7600
BF00
D340
ENDCHAR
STARTCHAR Atilde.sc
ENCODING -1
SWIDTH 503 0
DWIDTH 5 0
BBX 5 8 0 0
BITMAP
0100
7B00
5500
2D00
3A00
7600
BF00
D340
ENDCHAR
STARTCHAR Adieresis.sc
ENCODING -1
SWIDTH 503 0
DWIDTH 5 0
BBX 5 6 0 0
BITMAP
6600
2D00
3A00
7600
BF00
D340
ENDCHAR
STARTCHAR Amacron.sc
ENCODING -1
SWIDTH 503 0
DWIDTH 5 0
BBX 5 6 0 0
BITMAP
3E00
2D00
3A00
7600
BF00
D340
ENDCHAR
STARTCHAR Abreve.sc
ENCODING -1
SWIDTH 503 0
DWIDTH 5 0
BBX 5 7 0 0
BITMAP
2600
2D00
2D00
3A00
7600
BF00
D340
ENDCHAR
STARTCHAR Aring.sc
ENCODING -1
SWIDTH 503 0
DWIDTH 5 0
BBX 5 7 0 0
BITMAP
2C00
2C00
2D00
3A00
7600
BF00
D340
ENDCHAR
STARTCHAR uni01CD.sc
ENCODING -1
SWIDTH 503 0
DWIDTH 5 0
BBX 5 6 0 0
BITMAP
2900
2D00
3A00
7600
BF00
D340
ENDCHAR
STARTCHAR uni1EA0.sc
ENCODING -1
SWIDTH 503 0
DWIDTH 5 0
BBX 5 7 0 -2
BITMAP
2D00
3A00
7600
BF00
D340
0000
1800
ENDCHAR
STARTCHAR uni1EA2.sc
ENCODING -1
SWIDTH 503 0
DWIDTH 5 0
BBX 5 7 0 0
BITMAP
1800
0C00
2D00
3A00
7600
BF00
D340
ENDCHAR
STARTCHAR uni1EA4.sc
ENCODING -1
SWIDTH 503 0
DWIDTH 5 0
BBX 5 7 0 0
BITMAP
2D40
2500
2D00
3A00
7600
BF00
D340
ENDCHAR
STARTCHAR uni1EA6.sc
ENCODING -1
SWIDTH 503 0
DWIDTH 5 0
BBX 5 7 0 0
BITMAP
AC00
2500
2D00
3A00
7600
BF00
D340
ENDCHAR
STARTCHAR uni1EA8.sc
ENCODING -1
SWIDTH 503 0
DWIDTH 5 0
BBX 5 9 0 0
BITMAP
0240
0140
2E40
2500
2D00
3A00
7600
BF00
D340
ENDCHAR
STARTCHAR uni1EAA.sc
ENCODING -1
SWIDTH 503 0
DWIDTH 5 0
BBX 5 10 0 0
BITMAP
2600
2D00
0000
2C00
2500
2D00
3A00
7600
BF00
D340
ENDCHAR
STARTCHAR uni1EAC.sc
ENCODING -1
SWIDTH 503 0
DWIDTH 5 0
BBX 5 8 0 -2
BITMAP
2900
2D00
3A00
7600
BF00
D340
0000
1800
ENDCHAR
STARTCHAR uni1EAE.sc
ENCODING -1
SWIDTH 503 0
DWIDTH 5 0
BBX 5 9 0 0
BITMAP
0900
0800
2600
2D00
2D00
3A00
7600
BF00
D340
ENDCHAR
STARTCHAR uni1EB0.sc
ENCODING -1
SWIDTH 503 0
DWIDTH 5 0
BBX 5 9 0 0
BITMAP
2400
1400
2600
2D00
2D00
3A00
7600
BF00
D340
ENDCHAR
STARTCHAR uni1EB2.sc
ENCODING -1
SWIDTH 503 0
DWIDTH 5 0
BBX 5 10 0 0
BITMAP
1800
0C00
0800
2600
2D00
2D00
3A00
7600
BF00
D340
ENDCHAR
STARTCHAR uni1EB4.sc
ENCODING -1
SWIDTH 503 0
DWIDTH 5 0
BBX 5 10 0 0
BITMAP
2600
2D00
1000
2600
2D00
2D00
3A00
7600
BF00
D340
ENDCHAR
STARTCHAR uni1EB6.sc
ENCODING -1
SWIDTH 503 0
DWIDTH 5 0
BBX 5 9 0 -2
BITMAP
2600
2D00
2D00
3A00
7600
BF00
D340
0000
1800
ENDCHAR
STARTCHAR Aogonek.sc
ENCODING -1
SWIDTH 503 0
DWIDTH 5 0
BBX 5 7 0 -2
BITMAP
2D00
3A00
7600
BF00
D340
0200
0380
ENDCHAR
STARTCHAR AE.sc
ENCODING -1
SWIDTH 741 0
DWIDTH 7 0
BBX 7 5 0 0
BITMAP
0FF0
2B40
37E0
7F40
D3F4
ENDCHAR
STARTCHAR uni01FC.sc
ENCODING -1
SWIDTH 741 0
DWIDTH 7 0
BBX 7 7 0 0
BITMAP
0090
0180
0FF0
2B40
37E0
7F40
D3F4
ENDCHAR
STARTCHAR uni01E2.sc
ENCODING -1
SWIDTH 741 0
DWIDTH 7 0
BBX 7 6 0 0
BITMAP
07D0
0FF0
2B40
37E0
7F40
D3F4
ENDCHAR
STARTCHAR uni0243.sc
ENCODING -1
SWIDTH 570 0
DWIDTH 5 0
BBX 5 5 0 0
BITMAP
3F40
3680
3F40
BE80
3F40
ENDCHAR
STARTCHAR uni1E06.sc
ENCODING -1
SWIDTH 546 0
DWIDTH 5 0
BBX 5 7 0 -2
BITMAP
7E00
7340
7F00
7280
7F40
0000
2F00
ENDCHAR
STARTCHAR Ccedilla.sc
ENCODING -1
SWIDTH 520 0
DWIDTH 5 0
BBX 5 8 0 -3
BITMAP
2F00
7000
A000
7100
2F40
0D00
0A00
1D00
ENDCHAR
STARTCHAR Cacute.sc
ENCODING -1
SWIDTH 520 0
DWIDTH 5 0
BBX 5 7 0 0
BITMAP
0200
0900
2F00
7000
A000
7100
2F40
ENDCHAR
STARTCHAR Ccircumflex.sc
ENCODING -1
SWIDTH 520 0
DWIDTH 5 0
BBX 5 6 0 0
BITMAP
1A00
2F00
7000
A000
7100
2F40
ENDCHAR
STARTCHAR Ccaron.sc
ENCODING -1
SWIDTH 520 0
DWIDTH 5 0
BBX 5 6 0 0
BITMAP
1A00
2F00
7000
A000
7100
2F40
ENDCHAR
STARTCHAR Cdotaccent.sc
ENCODING -1
SWIDTH 520 0
DWIDTH 5 0
BBX 5 6 0 0
BITMAP
0900
2F00
7000
A000
7100
2F40
ENDCHAR
STARTCHAR Dcaron.sc
ENCODING -1
SWIDTH 580 0
DWIDTH 5 0
BBX 5 6 0 0
BITMAP
1A00
7E00
7280
7280
7280
7E00
ENDCHAR
STARTCHAR uni1E0C.sc
ENCODING -1
SWIDTH 580 0
DWIDTH 5 0
BBX 5 7 0 -2
BITMAP
7E00
7280
7280
7280
7E00
0000
0900
ENDCHAR
STARTCHAR uni1E0E.sc
ENCODING -1
SWIDTH 580 0
DWIDTH 5 0
BBX 5 7 0 -2
BITMAP
7E00
7280
7280
7280
7E00
0000
2F00
ENDCHAR
STARTCHAR Dcroat.sc
ENCODING -1
SWIDTH 604 0
DWIDTH 5 0
BBX 5 5 0 0
BITMAP
3E40
3680
B9C0
3680
3E40
ENDCHAR
STARTCHAR Egrave.sc
ENCODING -1
SWIDTH 499 0
DWIDTH 4 0
BBX 4 7 0 0
BITMAP
24
18
7F
70
7E
70
7F
ENDCHAR
STARTCHAR Eacute.sc
ENCODING -1
SWIDTH 499 0
DWIDTH 4 0
BBX 4 7 0 0
BITMAP
06
09
7F
70
7E
70
7F
ENDCHAR
STARTCHAR Ecircumflex.sc
ENCODING -1
SWIDTH 499 0
DWIDTH 4 0
BBX 4 6 0 0
BITMAP
2A
7F
70
7E
70
7F
ENDCHAR
STARTCHAR Ecaron.sc
ENCODING -1
SWIDTH 499 0
DWIDTH 4 0
BBX 4 6 0 0
BITMAP
2A
7F
70
7E
70
7F
ENDCHAR
STARTCHAR Edieresis.sc
ENCODING -1
SWIDTH 499 0
DWIDTH 4 0
BBX 4 6 0 0
BITMAP
22
7F
70
7E
70
7F
ENDCHAR
STARTCHAR Emacron.sc
ENCODING -1
SWIDTH 499 0
DWIDTH 4 0
BBX 4 6 0 0
BITMAP
3E
7F
70
7E
70
7F
ENDCHAR
STARTCHAR Ebreve.sc
ENCODING -1
SWIDTH 499 0
DWIDTH 4 0
BBX 4 7 0 0
BITMAP
22
2D
7F
70
7E
70
7F
ENDCHAR
STARTCHAR Edotaccent.sc
ENCODING -1
SWIDTH 499 0
DWIDTH 4 0
BBX 4 6 0 0
BITMAP
1C
7F
70
7E
70
7F
ENDCHAR
STARTCHAR uni1EB8.sc
ENCODING -1
SWIDTH 499 0
DWIDTH 4 0
BBX 4 7 0 -2
BITMAP
7F
70
7E
70
7F
00
0C
ENDCHAR
STARTCHAR uni1EBA.sc
ENCODING -1
SWIDTH 499 0
DWIDTH 4 0
BBX 4 7 0 0
BITMAP
18
0C
7F
70
7E
70
7F
ENDCHAR
STARTCHAR uni1EBC.sc
ENCODING -1
SWIDTH 499 0
DWIDTH 4 0
BBX 4 8 0 0
BITMAP
01
3B
65
7F
70
7E
70
7F
ENDCHAR
STARTCHAR uni1EBE.sc
ENCODING -1
SWIDTH 499 0
DWIDTH 4 0
BBX 5 7 0 0
BITMAP
1D40
2600
7F00
7000
7E00
7000
7F00
ENDCHAR
STARTCHAR uni1EC0.sc
ENCODING -1
SWIDTH 499 0
DWIDTH 4 0
BBX 4 7 0 0
BITMAP
6D
26
7F
70
7E
70
7F
ENDCHAR
STARTCHAR uni1EC2.sc
ENCODING -1
SWIDTH 499 0
DWIDTH 4 0
BBX 5 9 0 0
BITMAP
0240
0180
1E40
2600
7F00
7000
7E00
7000
7F00
ENDCHAR
STARTCHAR uni1EC4.sc
ENCODING -1
SWIDTH 499 0
DWIDTH 4 0
BBX 4 10 0 0
BITMAP
16
2A
00
1D
26
7F
70
7E
70
7F
ENDCHAR
STARTCHAR uni1EC6.sc
ENCODING -1
SWIDTH 499 0
DWIDTH 4 0
BBX 4 8 0 -2
BITMAP
2A
7F
70
7E
70
7F
00
0C
ENDCHAR
STARTCHAR Eogonek.sc
ENCODING -1
SWIDTH 499 0
DWIDTH 4 0
BBX 4 7 0 -2
BITMAP
7F
70
7E
70
7F
09
0B
ENDCHAR
STARTCHAR uni1E16.sc
ENCODING -1
SWIDTH 499 0
DWIDTH 4 0
BBX 4 9 0 0
BITMAP
05
08
00
3E
7F
70
7E
70
7F
ENDCHAR
STARTCHAR uni01F4.sc
ENCODING -1
SWIDTH 576 0
DWIDTH 5 0
BBX 5 7 0 0
BITMAP
0200
0A00
2F40
7000
A000
7780
2F40
ENDCHAR
STARTCHAR Gcircumflex.sc
ENCODING -1
SWIDTH 576 0
DWIDTH 5 0
BBX 5 6 0 0
BITMAP
1A00
2F40
7000
A000
7780
2F40
ENDCHAR
STARTCHAR Gbreve.sc
ENCODING -1
SWIDTH 576 0
DWIDTH 5 0
BBX 5 7 0 0
BITMAP
1640
1E00
2F40
7000
A000
7780
2F40
ENDCHAR
STARTCHAR Gdotaccent.sc
ENCODING -1
SWIDTH 576 0
DWIDTH 5 0
BBX 5 6 0 0
BITMAP
0900
2F40
7000
A000
7780
2F40
ENDCHAR
STARTCHAR uni0122.sc
ENCODING -1
SWIDTH 576 0
DWIDTH 5 0
BBX 5 8 0 -3
BITMAP
2F40
7000
A000
7780
2F40
0900
0600
0D00
ENDCHAR
STARTCHAR Gcaron.sc
ENCODING -1
SWIDTH 576 0
DWIDTH 5 0
BBX 5 6 0 0
BITMAP
1A00
2F40
7000
A000
7780
2F40
ENDCHAR
STARTCHAR uni1E20.sc
ENCODING -1
SWIDTH 576 0
DWIDTH 5 0
BBX 5 6 0 0
BITMAP
1F40
2F40
7000
A000
7780
2F40
ENDCHAR
STARTCHAR uni00470303.sc
ENCODING -1
SWIDTH 576 0
DWIDTH 5 0
BBX 5 8 0 0
BITMAP
0040
2E80
2600
2F40
7000
A000
7780
2F40
ENDCHAR
STARTCHAR uni0193.sc
ENCODING -1
SWIDTH 576 0
DWIDTH 5 0
BBX 5 6 0 0
BITMAP
02C0
2F40
7000
A000
7780
2F40
ENDCHAR
STARTCHAR Hcircumflex.sc
ENCODING -1
SWIDTH 621 0
DWIDTH 6 0
BBX 5 6 0 0
BITMAP
1A00
71C0
71C0
7FC0
71C0
71C0
ENDCHAR
STARTCHAR uni1E24.sc
ENCODING -1
SWIDTH 621 0
DWIDTH 6 0
BBX 5 7 0 -2
BITMAP
71C0
71C0
7FC0
71C0
71C0
0000
0900
ENDCHAR
STARTCHAR uni1E2A.sc
ENCODING -1
SWIDTH 621 0
DWIDTH 6 0
BBX 5 7 0 -2
BITMAP
71C0
71C0
7FC0
71C0
71C0
2640
1E00
ENDCHAR
STARTCHAR Hbar.sc
ENCODING -1
SWIDTH 660 0
DWIDTH 6 0
BBX 6 5 0 0
BITMAP
35C0
BFE0
35C0
3FC0
35C0
ENDCHAR
STARTCHAR Igrave.sc
ENCODING -1
SWIDTH 301 0
DWIDTH 3 0
BBX 2 7 0 0
BITMAP
90
60
70
70
70
70
70
ENDCHAR
STARTCHAR Iacute.sc
ENCODING -1
SWIDTH 301 0
DWIDTH 3 0
BBX 3 7 0 0
BITMAP
18
24
70
70
70
70
70
ENDCHAR
STARTCHAR Icircumflex.sc
ENCODING -1
SWIDTH 301 0
DWIDTH 3 0
BBX 3 6 0 0
BITMAP
A4
70
70
70
70
70
ENDCHAR
STARTCHAR Itilde.sc
ENCODING -1
SWIDTH 301 0
DWIDTH 3 0
BBX 4 8 -1 0
BITMAP
01
3B
65
1C
1C
1C
1C
1C
ENDCHAR
STARTCHAR Idieresis.sc
ENCODING -1
SWIDTH 301 0
DWIDTH 3 0
BBX 3 6 0 0
BITMAP
88
70
70
70
70
70
ENDCHAR
STARTCHAR Imacron.sc
ENCODING -1
SWIDTH 301 0
DWIDTH 3 0
BBX 3 6 0 0
BITMAP
F8
70
70
70
70
70
ENDCHAR
STARTCHAR Idotaccent.sc
ENCODING -1
SWIDTH 301 0
DWIDTH 3 0
BBX 2 6 0 0
BITMAP
70
70
70
70
70
70
ENDCHAR
STARTCHAR uni01CF.sc
ENCODING -1
SWIDTH 301 0
DWIDTH 3 0
BBX 3 6 0 0
BITMAP
A4
70
70
70
70
70
ENDCHAR
STARTCHAR uni1EC8.sc
ENCODING -1
SWIDTH 301 0
DWIDTH 3 0
BBX 2 7 0 0
BITMAP
60
30
70
70
70
70
70
ENDCHAR
STARTCHAR uni1ECA.sc
ENCODING -1
SWIDTH 301 0
DWIDTH 3 0
BBX 2 7 0 -2
BITMAP
70
70
70
70
70
00
60
ENDCHAR
STARTCHAR Iogonek.sc
ENCODING -1
SWIDTH 301 0
DWIDTH 3 0
BBX 3 7 0 -2
BITMAP
70
70
70
70
70
60
74
ENDCHAR
STARTCHAR uni012C.sc
ENCODING -1
SWIDTH 301 0
DWIDTH 3 0
BBX 3 7 0 0
BITMAP
88
B4
70
70
70
70
70
ENDCHAR
STARTCHAR Jcircumflex.sc
ENCODING -1
SWIDTH 470 0
DWIDTH 4 0
BBX 4 6 0 0
BITMAP
1A
0A
0A
0A
0A
7C
ENDCHAR
STARTCHAR uni0136.sc
ENCODING -1
SWIDTH 555 0
DWIDTH 5 0
BBX 5 8 0 -3
BITMAP
7340
7A00
7E00
7700
7280
0900
0600
0D00
ENDCHAR
STARTCHAR uni1E32.sc
ENCODING -1
SWIDTH 555 0
DWIDTH 5 0
BBX 5 7 0 -2
BITMAP
7340
7A00
7E00
7700
7280
0000
0900
ENDCHAR
STARTCHAR uni1E34.sc
ENCODING -1
SWIDTH 555 0
DWIDTH 5 0
BBX 5 7 0 -2
BITMAP
7340
7A00
7E00
7700
7280
0000
1F40
ENDCHAR
STARTCHAR Lacute.sc
ENCODING -1
SWIDTH 471 0
DWIDTH 4 0
BBX 4 7 0 0
BITMAP
18
24
70
70
70
70
7F
ENDCHAR
STARTCHAR Lcaron.sc
ENCODING -1
SWIDTH 471 0
DWIDTH 4 0
BBX 4 5 0 0
BITMAP
72
70
70
70
7F
ENDCHAR
STARTCHAR uni013B.sc
ENCODING -1
SWIDTH 471 0
DWIDTH 4 0
BBX 4 8 0 -3
BITMAP
70
70
70
70
7F
08
0D
28
ENDCHAR
STARTCHAR Ldot.sc
ENCODING -1
SWIDTH 471 0
DWIDTH 4 0
BBX 4 5 0 0
BITMAP
70
77
77
70
7F
ENDCHAR
STARTCHAR uni1E36.sc
ENCODING -1
SWIDTH 471 0
DWIDTH 4 0
BBX 4 7 0 -2
BITMAP
70
70
70
70
7F
00
1C
ENDCHAR
STARTCHAR uni1E38.sc
ENCODING -1
SWIDTH 471 0
DWIDTH 4 0
BBX 4 8 0 -2
BITMAP
F8
70
70
70
70
7F
00
1C
ENDCHAR
STARTCHAR uni1E3A.sc
ENCODING -1
SWIDTH 471 0
DWIDTH 4 0
BBX 4 7 0 -2
BITMAP
70
70
70
70
7F
00
3E
ENDCHAR
STARTCHAR Lslash.sc
ENCODING -1
SWIDTH 471 0
DWIDTH 4 0
BBX 4 5 0 0
BITMAP
70
75
78
B0
7F
ENDCHAR
STARTCHAR uni1E3E.sc
ENCODING -1
SWIDTH 685 0
DWIDTH 6 0
BBX 6 7 0 0
BITMAP
0240
0600
74D0
79D0
6E90
7A90
7190
ENDCHAR
STARTCHAR uni1E40.sc
ENCODING -1
SWIDTH 685 0
DWIDTH 6 0
BBX 6 6 0 0
BITMAP
0600
74D0
79D0
6E90
7A90
7190
ENDCHAR
STARTCHAR uni1E42.sc
ENCODING -1
SWIDTH 685 0
DWIDTH 6 0
BBX 6 7 0 -2
BITMAP
74D0
79D0
6E90
7A90
7190
0000
0600
ENDCHAR
STARTCHAR Nacute.sc
ENCODING -1
SWIDTH 606 0
DWIDTH 5 0
BBX 5 7 0 0
BITMAP
0200
0900
7580
7980
7E80
7780
7280
ENDCHAR
STARTCHAR uni01F8.sc
ENCODING -1
SWIDTH 606 0
DWIDTH 5 0
BBX 5 7 0 0
BITMAP
1800
0900
7580
7980
7E80
7780
7280
ENDCHAR
STARTCHAR Ncaron.sc
ENCODING -1
SWIDTH 606 0
DWIDTH 5 0
BBX 5 6 0 0
BITMAP
1A00
7580
7980
7E80
7780
7280
ENDCHAR
STARTCHAR Ntilde.sc
ENCODING -1
SWIDTH 606 0
DWIDTH 5 0
BBX 5 8 0 0
BITMAP
0040
2E40
2600
7580
7980
7E80
7780
7280
ENDCHAR
STARTCHAR uni0145.sc
ENCODING -1
SWIDTH 606 0
DWIDTH 5 0
BBX 5 8 0 -3
BITMAP
7580
7980
7E80
7780
7280
0900
0A00
1D00
ENDCHAR
STARTCHAR uni1E44.sc
ENCODING -1
SWIDTH 606 0
DWIDTH 5 0
BBX 5 6 0 0
BITMAP
0900
7580
7980
7E80
7780
7280
ENDCHAR
STARTCHAR uni1E46.sc
ENCODING -1
SWIDTH 606 0
DWIDTH 5 0
BBX 5 7 0 -2
BITMAP
7580
7980
7E80
7780
7280
0000
0900
ENDCHAR
STARTCHAR uni1E48.sc
ENCODING -1
SWIDTH 606 0
DWIDTH 5 0
BBX 5 7 0 -2
BITMAP
7580
7980
7E80
7780
7280
0000
2F00
ENDCHAR
STARTCHAR Ograve.sc
ENCODING -1
SWIDTH 616 0
DWIDTH 6 0
BBX 5 7 0 0
BITMAP
1800
0900
2F40
72C0
A1C0
72C0
2F40
ENDCHAR
STARTCHAR Oacute.sc
ENCODING -1
SWIDTH 616 0
DWIDTH 6 0
BBX 5 7 0 0
BITMAP
0200
0900
2F40
72C0
A1C0
72C0
2F40
ENDCHAR
STARTCHAR Ocircumflex.sc
ENCODING -1
SWIDTH 616 0
DWIDTH 6 0
BBX 5 6 0 0
BITMAP
1A00
2F40
72C0
A1C0
72C0
2F40
ENDCHAR
STARTCHAR Otilde.sc
ENCODING -1
SWIDTH 616 0
DWIDTH 6 0
BBX 5 8 0 0
BITMAP
0040
2E40
3600
2F40
72C0
A1C0
72C0
2F40
ENDCHAR
STARTCHAR Odieresis.sc
ENCODING -1
SWIDTH 616 0
DWIDTH 6 0
BBX 5 6 0 0
BITMAP
2640
2F40
72C0
A1C0
72C0
2F40
ENDCHAR
STARTCHAR Omacron.sc
ENCODING -1
SWIDTH 616 0
DWIDTH 6 0
BBX 5 6 0 0
BITMAP
2F00
2F40
72C0
A1C0
72C0
2F40
ENDCHAR
STARTCHAR Ohungarumlaut.sc
ENCODING -1
SWIDTH 616 0
DWIDTH 6 0
BBX 5 7 0 0
BITMAP
0980
1A40
2F40
72C0
A1C0
72C0
2F40
ENDCHAR
STARTCHAR uni01D1.sc
ENCODING -1
SWIDTH 616 0
DWIDTH 6 0
BBX 5 6 0 0
BITMAP
1A00
2F40
72C0
A1C0
72C0
2F40
ENDCHAR
STARTCHAR uni1ECC.sc
ENCODING -1
SWIDTH 616 0
DWIDTH 6 0
BBX 5 7 0 -2
BITMAP
2F40
72C0
A1C0
72C0
2F40
0000
0900
ENDCHAR
STARTCHAR uni1ECE.sc
ENCODING -1
SWIDTH 616 0
DWIDTH 6 0
BBX 5 7 0 0
BITMAP
0D00
0900
2F40
72C0
A1C0
72C0
2F40
ENDCHAR
STARTCHAR uni1ED0.sc
ENCODING -1
SWIDTH 616 0
DWIDTH 6 0
BBX 5 7 0 0
BITMAP
0E80
1600
2F40
72C0
A1C0
72C0
2F40
ENDCHAR
STARTCHAR uni1ED2.sc
ENCODING -1
SWIDTH 616 0
DWIDTH 6 0
BBX 5 7 0 0
BITMAP
5E00
1600
2F40
72C0
A1C0
72C0
2F40
ENDCHAR
STARTCHAR uni1ED4.sc
ENCODING -1
SWIDTH 616 0
DWIDTH 6 0
BBX 5 9 0 0
BITMAP
0180
00C0
0E80
1600
2F40
72C0
A1C0
72C0
2F40
ENDCHAR
STARTCHAR uni1ED6.sc
ENCODING -1
SWIDTH 616 0
DWIDTH 6 0
BBX 5 10 0 0
BITMAP
0A00
2B00
0000
0E00
1600
2F40
72C0
A1C0
72C0
2F40
ENDCHAR
STARTCHAR uni1ED8.sc
ENCODING -1
SWIDTH 616 0
DWIDTH 6 0
BBX 5 8 0 -2
BITMAP
1A00
2F40
72C0
A1C0
72C0
2F40
0000
0900
ENDCHAR
STARTCHAR Oslash.sc
ENCODING -1
SWIDTH 616 0
DWIDTH 6 0
BBX 5 5 0 0
BITMAP
2F80
72C0
A9C0
75C0
6F40
ENDCHAR
STARTCHAR OE.sc
ENCODING -1
SWIDTH 766 0
DWIDTH 7 0
BBX 7 5 0 0
BITMAP
2FF4
7340
A3F0
7340
2FF4
ENDCHAR
STARTCHAR Ohorn.sc
ENCODING -1
SWIDTH 616 0
DWIDTH 6 0
BBX 6 6 0 0
BITMAP
0090
2F80
72C0
A1C0
72C0
2F40
ENDCHAR
STARTCHAR uni1EDA.sc
ENCODING -1
SWIDTH 616 0
DWIDTH 6 0
BBX 6 7 0 0
BITMAP
0240
0990
2F80
72C0
A1C0
72C0
2F40
ENDCHAR
STARTCHAR uni1EDC.sc
ENCODING -1
SWIDTH 616 0
DWIDTH 6 0
BBX 6 7 0 0
BITMAP
1800
0990
2F80
72C0
A1C0
72C0
2F40
ENDCHAR
STARTCHAR uni1EDE.sc
ENCODING -1
SWIDTH 616 0
DWIDTH 6 0
BBX 6 7 0 0
BITMAP
0D00
0990
2F80
72C0
A1C0
72C0
2F40
ENDCHAR
STARTCHAR uni1EE0.sc
ENCODING -1
SWIDTH 616 0
DWIDTH 6 0
BBX 6 8 0 0
BITMAP
0100
2A40
2590
2F80
72C0
A1C0
72C0
2F40
ENDCHAR
STARTCHAR uni1EE2.sc
ENCODING -1
SWIDTH 616 0
DWIDTH 6 0
BBX 6 8 0 -2
BITMAP
0090
2F80
72C0
A1C0
72C0
2F40
0000
0900
ENDCHAR
STARTCHAR uni01EA.sc
ENCODING -1
SWIDTH 616 0
DWIDTH 6 0
BBX 5 7 0 -2
BITMAP
2F40
72C0
A1C0
72C0
2F40
0800
0A00
ENDCHAR
STARTCHAR uni014E.sc
ENCODING -1
SWIDTH 616 0
DWIDTH 6 0
BBX 5 7 0 0
BITMAP
2600
1E00
2F40
72C0
A1C0
72C0
2F40
ENDCHAR
STARTCHAR uni1E52.sc
ENCODING -1
SWIDTH 616 0
DWIDTH 6 0
BBX 5 9 0 0
BITMAP
0600
0900
0000
2F00
2F40
72C0
A1C0
72C0
2F40
ENDCHAR
STARTCHAR Racute.sc
ENCODING -1
SWIDTH 561 0
DWIDTH 5 0
BBX 5 7 0 0
BITMAP
0600
0900
7F40
7280
7F00
7700
7280
ENDCHAR
STARTCHAR uni1E58.sc
ENCODING -1
SWIDTH 561 0
DWIDTH 5 0
BBX 5 6 0 0
BITMAP
0900
7F40
7280
7F00
7700
7280
ENDCHAR
STARTCHAR Rcaron.sc
ENCODING -1
SWIDTH 561 0
DWIDTH 5 0
BBX 5 6 0 0
BITMAP
1A00
7F40
7280
7F00
7700
7280
ENDCHAR
STARTCHAR uni0156.sc
ENCODING -1
SWIDTH 561 0
DWIDTH 5 0
BBX 5 8 0 -3
BITMAP
7F40
7280
7F00
7700
7280
0900
0A00
1D00
ENDCHAR
STARTCHAR uni1E5A.sc
ENCODING -1
SWIDTH 561 0
DWIDTH 5 0
BBX 5 7 0 -2
BITMAP
7F40
7280
7F00
7700
7280
0000
0900
ENDCHAR
STARTCHAR uni1E5C.sc
ENCODING -1
SWIDTH 561 0
DWIDTH 5 0
BBX 5 8 0 -2
BITMAP
2F00
7F40
7280
7F00
7700
7280
0000
0900
ENDCHAR
STARTCHAR uni1E5E.sc
ENCODING -1
SWIDTH 561 0
DWIDTH 5 0
BBX 5 7 0 -2
BITMAP
7F40
7280
7F00
7700
7280
0000
2F00
ENDCHAR
STARTCHAR Sacute.sc
ENCODING -1
SWIDTH 504 0
DWIDTH 5 0
BBX 5 7 0 0
BITMAP
0600
0900
2E00
7500
2E00
1740
7E00
ENDCHAR
STARTCHAR Scircumflex.sc
ENCODING -1
SWIDTH 504 0
DWIDTH 5 0
BBX 5 6 0 0
BITMAP
2A00
2E00
7500
2E00
1740
7E00
ENDCHAR
STARTCHAR Scaron.sc
ENCODING -1
SWIDTH 504 0
DWIDTH 5 0
BBX 5 6 0 0
BITMAP
2A00
2E00
7500
2E00
1740
7E00
ENDCHAR
STARTCHAR uni015E.sc
ENCODING -1
SWIDTH 504 0
DWIDTH 5 0
BBX 5 8 0 -3
BITMAP
2E00
7500
2E00
1740
7E00
1C00
0C00
2800
ENDCHAR
STARTCHAR uni0218.sc
ENCODING -1
SWIDTH 504 0
DWIDTH 5 0
BBX 5 8 0 -3
BITMAP
2E00
7500
2E00
1740
7E00
0C00
0900
2800
ENDCHAR
STARTCHAR uni1E60.sc
ENCODING -1
SWIDTH 504 0
DWIDTH 5 0
BBX 5 6 0 0
BITMAP
0C00
2E00
7500
2E00
1740
7E00
ENDCHAR
STARTCHAR uni1E62.sc
ENCODING -1
SWIDTH 504 0
DWIDTH 5 0
BBX 5 7 0 -2
BITMAP
2E00
7500
2E00
1740
7E00
0000
0C00
ENDCHAR
STARTCHAR uni1E9E.sc
ENCODING -1
SWIDTH 636 0
DWIDTH 6 0
BBX 6 5 0 0
BITMAP
2F40
7680
73C0
70D0
7780
ENDCHAR
STARTCHAR Tcaron.sc
ENCODING -1
SWIDTH 491 0
DWIDTH 4 0
BBX 5 6 0 0
BITMAP
2900
BF40
1C00
1C00
1C00
1C00
ENDCHAR
STARTCHAR uni0162.sc
ENCODING -1
SWIDTH 491 0
DWIDTH 4 0
BBX 5 8 0 -3
BITMAP
BF40
1C00
1C00
1C00
2C00
1800
0C00
2800
ENDCHAR
STARTCHAR uni021A.sc
ENCODING -1
SWIDTH 491 0
DWIDTH 4 0
BBX 5 8 0 -3
BITMAP
BF40
1C00
1C00
1C00
1C00
1800
0C00
2800
ENDCHAR
STARTCHAR uni1E6C.sc
ENCODING -1
SWIDTH 491 0
DWIDTH 4 0
BBX 5 7 0 -2
BITMAP
BF40
1C00
1C00
1C00
1C00
0000
1800
ENDCHAR
STARTCHAR uni1E6E.sc
ENCODING -1
SWIDTH 491 0
DWIDTH 4 0
BBX 5 7 0 -2
BITMAP
BF40
1C00
1C00
1C00
1C00
0000
3E00
ENDCHAR
STARTCHAR uni0166.sc
ENCODING -1
SWIDTH 491 0
DWIDTH 4 0
BBX 5 5 0 0
BITMAP
BF40
1C00
6E00
1C00
1C00
ENDCHAR
STARTCHAR Ugrave.sc
ENCODING -1
SWIDTH 607 0
DWIDTH 5 0
BBX 5 7 0 0
BITMAP
1400
0900
7180
7180
7180
7280
2F40
ENDCHAR
STARTCHAR Uacute.sc
ENCODING -1
SWIDTH 607 0
DWIDTH 5 0
BBX 5 7 0 0
BITMAP
0200
0900
7180
7180
7180
7280
2F40
ENDCHAR
STARTCHAR Ucircumflex.sc
ENCODING -1
SWIDTH 607 0
DWIDTH 5 0
BBX 5 6 0 0
BITMAP
1A00
7180
7180
7180
7280
2F40
ENDCHAR
STARTCHAR Utilde.sc
ENCODING -1
SWIDTH 607 0
DWIDTH 5 0
BBX 5 7 0 0
BITMAP
2E40
3600
7180
7180
7180
7280
2F40
ENDCHAR
STARTCHAR Udieresis.sc
ENCODING -1
SWIDTH 607 0
DWIDTH 5 0
BBX 5 6 0 0
BITMAP
2640
7180
7180
7180
7280
2F40
ENDCHAR
STARTCHAR Umacron.sc
ENCODING -1
SWIDTH 607 0
DWIDTH 5 0
BBX 5 6 0 0
BITMAP
2F00
7180
7180
7180
7280
2F40
ENDCHAR
STARTCHAR Ubreve.sc
ENCODING -1
SWIDTH 607 0
DWIDTH 5 0
BBX 5 7 0 0
BITMAP
2600
1E00
7180
7180
7180
7280
2F40
ENDCHAR
STARTCHAR Uring.sc
ENCODING -1
SWIDTH 607 0
DWIDTH 5 0
BBX 5 7 0 0
BITMAP
0E00
0E00
7180
7180
7180
7280
2F40
ENDCHAR
STARTCHAR Uhungarumlaut.sc
ENCODING -1
SWIDTH 607 0
DWIDTH 5 0
BBX 5 7 0 0
BITMAP
0980
1A40
7180
7180
7180
7280
2F40
ENDCHAR
STARTCHAR uni01D3.sc
ENCODING -1
SWIDTH 607 0
DWIDTH 5 0
BBX 5 6 0 0
BITMAP
1A00
7180
7180
7180
7280
2F40
ENDCHAR
STARTCHAR uni01D5.sc
ENCODING -1
SWIDTH 607 0
DWIDTH 5 0
BBX 5 8 0 0
BITMAP
2F00
0000
2200
7180
7180
7180
7280
2F40
ENDCHAR
STARTCHAR uni01D7.sc
ENCODING -1
SWIDTH 607 0
DWIDTH 5 0
BBX 5 8 0 0
BITMAP
0600
0900
2200
7180
7180
7180
7280
2F40
ENDCHAR
STARTCHAR uni01D9.sc
ENCODING -1
SWIDTH 607 0
DWIDTH 5 0
BBX 5 9 0 0
BITMAP
1600
0E00
0000
2200
7180
7180
7180
7280
2F40
ENDCHAR
STARTCHAR uni01DB.sc
ENCODING -1
SWIDTH 607 0
DWIDTH 5 0
BBX 5 8 0 0
BITMAP
1800
0800
2200
7180
7180
7180
7280
2F40
ENDCHAR
STARTCHAR uni1EE4.sc
ENCODING -1
SWIDTH 607 0
DWIDTH 5 0
BBX 5 7 0 -2
BITMAP
7180
7180
7180
7280
2F40
0000
0900
ENDCHAR
STARTCHAR uni1EE6.sc
ENCODING -1
SWIDTH 607 0
DWIDTH 5 0
BBX 5 7 0 0
BITMAP
0D00
0900
7180
7180
7180
7280
2F40
ENDCHAR
STARTCHAR Uogonek.sc
ENCODING -1
SWIDTH 607 0
DWIDTH 5 0
BBX 5 7 0 -2
BITMAP
7180
7180
7180
7280
2F40
0800
0A00
ENDCHAR
STARTCHAR Uhorn.sc
ENCODING -1
SWIDTH 625 0
DWIDTH 6 0
BBX 6 7 0 0
BITMAP
0010
0070
71D0
7180
7180
7280
2F40
ENDCHAR
STARTCHAR uni1EE8.sc
ENCODING -1
SWIDTH 625 0
DWIDTH 6 0
BBX 6 7 0 0
BITMAP
0210
0970
71D0
7180
7180
7280
2F40
ENDCHAR
STARTCHAR uni1EEA.sc
ENCODING -1
SWIDTH 625 0
DWIDTH 6 0
BBX 6 7 0 0
BITMAP
1410
0970
71D0
7180
7180
7280
2F40
ENDCHAR
STARTCHAR uni1EEC.sc
ENCODING -1
SWIDTH 625 0
DWIDTH 6 0
BBX 6 7 0 0
BITMAP
0D10
0970
71D0
7180
7180
7280
2F40
ENDCHAR
STARTCHAR uni1EEE.sc
ENCODING -1
SWIDTH 625 0
DWIDTH 6 0
BBX 6 7 0 0
BITMAP
2E50
3670
71D0
7180
7180
7280
2F40
ENDCHAR
STARTCHAR uni1EF0.sc
ENCODING -1
SWIDTH 625 0
DWIDTH 6 0
BBX 6 9 0 -2
BITMAP
0010
0070
71D0
7180
7180
7280
2F40
0000
0900
ENDCHAR
STARTCHAR Wgrave.sc
ENCODING -1
SWIDTH 717 0
DWIDTH 6 0
BBX 7 7 0 0
BITMAP
0800
0600
9734
AB70
6AB0
7DE0
39E0
ENDCHAR
STARTCHAR Wacute.sc
ENCODING -1
SWIDTH 717 0
DWIDTH 6 0
BBX 7 7 0 0
BITMAP
0140
0600
9734
AB70
6AB0
7DE0
39E0
ENDCHAR
STARTCHAR Wcircumflex.sc
ENCODING -1
SWIDTH 717 0
DWIDTH 6 0
BBX 7 6 0 0
BITMAP
0A40
9734
AB70
6AB0
7DE0
39E0
ENDCHAR
STARTCHAR Wdieresis.sc
ENCODING -1
SWIDTH 717 0
DWIDTH 6 0
BBX 7 6 0 0
BITMAP
1980
9734
AB70
6AB0
7DE0
39E0
ENDCHAR
STARTCHAR Ygrave.sc
ENCODING -1
SWIDTH 467 0
DWIDTH 4 0
BBX 4 7 0 0
BITMAP
60
24
E7
7A
3C
28
28
ENDCHAR
STARTCHAR Yacute.sc
ENCODING -1
SWIDTH 467 0
DWIDTH 4 0
BBX 4 7 0 0
BITMAP
09
18
E7
7A
3C
28
28
ENDCHAR
STARTCHAR Ycircumflex.sc
ENCODING -1
SWIDTH 467 0
DWIDTH 4 0
BBX 4 6 0 0
BITMAP
29
E7
7A
3C
28
28
ENDCHAR
STARTCHAR Ydieresis.sc
ENCODING -1
SWIDTH 467 0
DWIDTH 4 0
BBX 4 6 0 0
BITMAP
66
E7
7A
3C
28
28
ENDCHAR
STARTCHAR uni1E8E.sc
ENCODING -1
SWIDTH 467 0
DWIDTH 4 0
BBX 4 6 0 0
BITMAP
18
E7
7A
3C
28
28
ENDCHAR
STARTCHAR uni1EF4.sc
ENCODING -1
SWIDTH 467 0
DWIDTH 4 0
BBX 4 7 0 -2
BITMAP
E7
7A
3C
28
28
00
18
ENDCHAR
STARTCHAR uni1EF6.sc
ENCODING -1
SWIDTH 467 0
DWIDTH 4 0
BBX 4 7 0 0
BITMAP
28
18
E7
7A
3C
28
28
ENDCHAR
STARTCHAR uni1EF8.sc
ENCODING -1
SWIDTH 467 0
DWIDTH 4 0
BBX 4 8 0 0
BITMAP
01
7A
99
E7
7A
3C
28
28
ENDCHAR
STARTCHAR Zacute.sc
ENCODING -1
SWIDTH 481 0
DWIDTH 4 0
BBX 4 7 0 0
BITMAP
06
08
7F
0E
2C
74
BF
ENDCHAR
STARTCHAR Zcaron.sc
ENCODING -1
SWIDTH 481 0
DWIDTH 4 0
BBX 4 6 0 0
BITMAP
29
7F
0E
2C
74
BF
ENDCHAR
STARTCHAR Zdotaccent.sc
ENCODING -1
SWIDTH 481 0
DWIDTH 4 0
BBX 4 6 0 0
BITMAP
18
7F
0E
2C
74
BF
ENDCHAR
STARTCHAR uni1E92.sc
ENCODING -1
SWIDTH 481 0
DWIDTH 4 0
BBX 4 7 0 -2
BITMAP
7F
0E
2C
74
BF
00
18
ENDCHAR
STARTCHAR uni1E94.sc
ENCODING -1
SWIDTH 481 0
DWIDTH 4 0
BBX 4 7 0 -2
BITMAP
7F
0E
2C
74
BF
00
3E
ENDCHAR
STARTCHAR Eth.sc
ENCODING -1
SWIDTH 604 0
DWIDTH 5 0
BBX 5 5 0 0
BITMAP
3E40
3680
B9C0
3680
3E40
ENDCHAR
STARTCHAR Thorn.sc
ENCODING -1
SWIDTH 562 0
DWIDTH 5 0
BBX 5 5 0 0
BITMAP
7000
7F40
7280
7F40
7000
ENDCHAR
STARTCHAR uni018F.sc
ENCODING -1
SWIDTH 604 0
DWIDTH 5 0
BBX 5 5 0 0
BITMAP
2E40
1280
BFC0
7280
2F40
ENDCHAR
STARTCHAR uni014A.sc
ENCODING -1
SWIDTH 602 0
DWIDTH 5 0
BBX 5 5 0 0
BITMAP
7B40
76C0
71C0
71C0
7740
ENDCHAR
STARTCHAR uni0132.sc
ENCODING -1
SWIDTH 602 0
DWIDTH 5 0
BBX 5 7 0 -2
BITMAP
7280
7280
7280
7280
7280
0280
0B40
ENDCHAR
STARTCHAR Alpha.sc
ENCODING -1
SWIDTH 503 0
DWIDTH 5 0
BBX 5 5 0 0
BITMAP
2D00
3A00
7600
BF00
D340
ENDCHAR
STARTCHAR Beta.sc
ENCODING -1
SWIDTH 546 0
DWIDTH 5 0
BBX 5 5 0 0
BITMAP
7E00
7340
7F00
7280
7F40
ENDCHAR
STARTCHAR Gamma.sc
ENCODING -1
SWIDTH 472 0
DWIDTH 4 0
BBX 4 5 0 0
BITMAP
7F
70
70
70
70
ENDCHAR
STARTCHAR uni0394.sc
ENCODING -1
SWIDTH 570 0
DWIDTH 5 0
BBX 5 5 0 0
BITMAP
1E00
2B00
3740
7280
BF80
ENDCHAR
STARTCHAR Epsilon.sc
ENCODING -1
SWIDTH 499 0
DWIDTH 4 0
BBX 4 5 0 0
BITMAP
7F
70
7E
70
7F
ENDCHAR
STARTCHAR Zeta.sc
ENCODING -1
SWIDTH 481 0
DWIDTH 4 0
BBX 4 5 0 0
BITMAP
7F
0E
2C
74
BF
ENDCHAR
STARTCHAR Eta.sc
ENCODING -1
SWIDTH 621 0
DWIDTH 6 0
BBX 5 5 0 0
BITMAP
71C0
71C0
7FC0
71C0
71C0
ENDCHAR
STARTCHAR Theta.sc
ENCODING -1
SWIDTH 616 0
DWIDTH 6 0
BBX 5 5 0 0
BITMAP
2F40
71C0
AEC0
71C0
2F40
ENDCHAR
STARTCHAR Iota.sc
ENCODING -1
SWIDTH 301 0
DWIDTH 3 0
BBX 2 5 0 0
BITMAP
70
70
70
70
70
ENDCHAR
STARTCHAR Kappa.sc
ENCODING -1
SWIDTH 555 0
DWIDTH 5 0
BBX 5 5 0 0
BITMAP
7340
7A00
7E00
7700
7280
ENDCHAR
STARTCHAR Lambda.sc
ENCODING -1
SWIDTH 488 0
DWIDTH 4 0
BBX 5 5 0 0
BITMAP
2C00
3D00
7A00
A700
D340
ENDCHAR
STARTCHAR Mu.sc
ENCODING -1
SWIDTH 685 0
DWIDTH 6 0
BBX 6 5 0 0
BITMAP
74D0
79D0
6E90
7A90
7190
ENDCHAR
STARTCHAR Nu.sc
ENCODING -1
SWIDTH 606 0
DWIDTH 5 0
BBX 5 5 0 0
BITMAP
7580
7980
7E80
7780
7280
ENDCHAR
STARTCHAR Xi.sc
ENCODING -1
SWIDTH 513 0
DWIDTH 5 0
BBX 4 5 0 0
BITMAP
7F
00
3E
00
BF
ENDCHAR
STARTCHAR Omicron.sc
ENCODING -1
SWIDTH 616 0
DWIDTH 6 0
BBX 5 5 0 0
BITMAP
2F40
72C0
A1C0
72C0
2F40
ENDCHAR
STARTCHAR Pi.sc
ENCODING -1
SWIDTH 615 0
DWIDTH 6 0
BBX 5 5 0 0
BITMAP
7FC0
71C0
71C0
71C0
71C0
ENDCHAR
STARTCHAR Rho.sc
ENCODING -1
SWIDTH 551 0
DWIDTH 5 0
BBX 5 5 0 0
BITMAP
7E00
7280
7280
7E00
7000
ENDCHAR
STARTCHAR Sigma.sc
ENCODING -1
SWIDTH 486 0
DWIDTH 4 0
BBX 4 5 0 0
BITMAP
BF
74
1C
74
BF
ENDCHAR
STARTCHAR Tau.sc
ENCODING -1
SWIDTH 491 0
DWIDTH 4 0
BBX 5 5 0 0
BITMAP
BF40
1C00
1C00
1C00
1C00
ENDCHAR
STARTCHAR Upsilon.sc
ENCODING -1
SWIDTH 467 0
DWIDTH 4 0
BBX 4 5 0 0
BITMAP
E7
7A
3C
28
28
ENDCHAR
STARTCHAR Phi.sc
ENCODING -1
SWIDTH 708 0
DWIDTH 6 0
BBX 6 6 0 -1
BITMAP
0600
2F90
76B0
76A0
2FD0
0600
ENDCHAR
STARTCHAR Chi.sc
ENCODING -1
SWIDTH 509 0
DWIDTH 5 0
BBX 5 5 0 0
BITMAP
B700
3A00
2D00
3A00
A740
ENDCHAR
STARTCHAR Psi.sc
ENCODING -1
SWIDTH 682 0
DWIDTH 6 0
BBX 6 5 0 0
BITMAP
AAA0
7AA0
2F80
0A00
0A00
ENDCHAR
STARTCHAR uni03A9.sc
ENCODING -1
SWIDTH 633 0
DWIDTH 6 0
BBX 6 5 0 0
BITMAP
2F40
71C0
71C0
3680
BBD0
ENDCHAR
STARTCHAR Iotadieresis.sc
ENCODING -1
SWIDTH 301 0
DWIDTH 3 0
BBX 3 6 0 0
BITMAP
88
70
70
70
70
70
ENDCHAR
STARTCHAR Upsilondieresis.sc
ENCODING -1
SWIDTH 467 0
DWIDTH 4 0
BBX 4 6 0 0
BITMAP
66
E7
7A
3C
28
28
ENDCHAR
STARTCHAR Alphaiotasub.sc
ENCODING -1
SWIDTH 805 0
DWIDTH 7 0
BBX 7 5 0 0
BITMAP
2D00
3A28
7628
BF28
D368
ENDCHAR
STARTCHAR Etaiotasub.sc
ENCODING -1
SWIDTH 923 0
DWIDTH 8 0
BBX 8 5 0 0
BITMAP
71C0
71CA
7FCA
71CA
71CA
ENDCHAR
STARTCHAR Omegaiotasub.sc
ENCODING -1
SWIDTH 932 0
DWIDTH 8 0
BBX 8 5 0 0
BITMAP
2F40
71CA
71CA
368A
BBDA
ENDCHAR
STARTCHAR uni0410.sc
ENCODING -1
SWIDTH 503 0
DWIDTH 5 0
BBX 5 5 0 0
BITMAP
2D00
3A00
7600
BF00
D340
ENDCHAR
STARTCHAR uni0411.sc
ENCODING -1
SWIDTH 543 0
DWIDTH 5 0
BBX 5 5 0 0
BITMAP
7F40
7000
7F40
7380
7F00
ENDCHAR
STARTCHAR uni0412.sc
ENCODING -1
SWIDTH 546 0
DWIDTH 5 0
BBX 5 5 0 0
BITMAP
7E00
7340
7F00
7280
7F40
ENDCHAR
STARTCHAR uni0413.sc
ENCODING -1
SWIDTH 472 0
DWIDTH 4 0
BBX 4 5 0 0
BITMAP
7F
70
70
70
70
ENDCHAR
STARTCHAR uni0414.sc
ENCODING -1
SWIDTH 604 0
DWIDTH 5 0
BBX 6 6 0 -1
BITMAP
2F80
2680
3680
7280
FFD0
90D0
ENDCHAR
STARTCHAR uni0415.sc
ENCODING -1
SWIDTH 499 0
DWIDTH 4 0
BBX 4 5 0 0
BITMAP
7F
70
7E
70
7F
ENDCHAR
STARTCHAR uni0416.sc
ENCODING -1
SWIDTH 766 0
DWIDTH 7 0
BBX 7 5 0 0
BITMAP
A728
3760
2FE0
3770
A728
ENDCHAR
STARTCHAR uni0417.sc
ENCODING -1
SWIDTH 500 0
DWIDTH 5 0
BBX 4 5 0 0
BITMAP
7E
17
2E
17
7E
ENDCHAR
STARTCHAR uni0418.sc
ENCODING -1
SWIDTH 606 0
DWIDTH 5 0
BBX 5 5 0 0
BITMAP
7280
7780
7E80
7980
7580
ENDCHAR
STARTCHAR uni0419.sc
ENCODING -1
SWIDTH 606 0
DWIDTH 5 0
BBX 5 7 0 0
BITMAP
2640
1E00
7280
7780
7E80
7980
7580
ENDCHAR
STARTCHAR uni041A.sc
ENCODING -1
SWIDTH 567 0
DWIDTH 5 0
BBX 5 5 0 0
BITMAP
7280
7700
7E00
7700
7280
ENDCHAR
STARTCHAR uni041B.sc
ENCODING -1
SWIDTH 590 0
DWIDTH 5 0
BBX 5 5 0 0
BITMAP
2F80
2680
3680
7280
D280
ENDCHAR
STARTCHAR uni041C.sc
ENCODING -1
SWIDTH 685 0
DWIDTH 6 0
BBX 6 5 0 0
BITMAP
74D0
79D0
6E90
7A90
7190
ENDCHAR
STARTCHAR uni041D.sc
ENCODING -1
SWIDTH 621 0
DWIDTH 6 0
BBX 5 5 0 0
BITMAP
71C0
71C0
7FC0
71C0
71C0
ENDCHAR
STARTCHAR uni041E.sc
ENCODING -1
SWIDTH 616 0
DWIDTH 6 0
BBX 5 5 0 0
BITMAP
2F40
72C0
A1C0
72C0
2F40
ENDCHAR
STARTCHAR uni041F.sc
ENCODING -1
SWIDTH 615 0
DWIDTH 6 0
BBX 5 5 0 0
BITMAP
7FC0
71C0
71C0
71C0
71C0
ENDCHAR
STARTCHAR uni0420.sc
ENCODING -1
SWIDTH 551 0
DWIDTH 5 0
BBX 5 5 0 0
BITMAP
7E00
7280
7280
7E00
7000
ENDCHAR
STARTCHAR uni0421.sc
ENCODING -1
SWIDTH 520 0
DWIDTH 5 0
BBX 5 5 0 0
BITMAP
2F00
7000
A000
7100
2F40
ENDCHAR
STARTCHAR uni0422.sc
ENCODING -1
SWIDTH 491 0
DWIDTH 4 0
BBX 5 5 0 0
BITMAP
BF40
1C00
1C00
1C00
1C00
ENDCHAR
STARTCHAR uni0423.sc
ENCODING -1
SWIDTH 487 0
DWIDTH 4 0
BBX 5 5 0 0
BITMAP
A340
7700
2D00
1C00
7400
ENDCHAR
STARTCHAR uni0424.sc
ENCODING -1
SWIDTH 677 0
DWIDTH 6 0
BBX 6 5 0 0
BITMAP
0A00
6F90
AAA0
6F90
0A00
ENDCHAR
STARTCHAR uni0425.sc
ENCODING -1
SWIDTH 509 0
DWIDTH 5 0
BBX 5 5 0 0
BITMAP
B700
3A00
2D00
3A00
A740
ENDCHAR
STARTCHAR uni0426.sc
ENCODING -1
SWIDTH 610 0
DWIDTH 5 0
BBX 6 6 0 -1
BITMAP
7280
7280
7280
7280
7FD0
00D0
ENDCHAR
STARTCHAR uni0427.sc
ENCODING -1
SWIDTH 576 0
DWIDTH 5 0
BBX 5 5 0 0
BITMAP
7240
7340
2F40
0240
0240
ENDCHAR
STARTCHAR uni0428.sc
ENCODING -1
SWIDTH 823 0
DWIDTH 7 0
BBX 7 5 0 0
BITMAP
7368
7368
7368
7368
7FF8
ENDCHAR
STARTCHAR uni0429.sc
ENCODING -1
SWIDTH 837 0
DWIDTH 8 0
BBX 8 6 0 -1
BITMAP
7368
7368
7368
7368
7FFD
000D
ENDCHAR
STARTCHAR uni042A.sc
ENCODING -1
SWIDTH 639 0
DWIDTH 6 0
BBX 6 5 0 0
BITMAP
BC00
1C00
1F80
1CD0
1F80
ENDCHAR
STARTCHAR uni042B.sc
ENCODING -1
SWIDTH 779 0
DWIDTH 7 0
BBX 7 5 0 0
BITMAP
7034
7034
7E34
7374
7E34
ENDCHAR
STARTCHAR uni042C.sc
ENCODING -1
SWIDTH 544 0
DWIDTH 5 0
BBX 5 5 0 0
BITMAP
7000
7000
7F40
7280
7F40
ENDCHAR
STARTCHAR uni042D.sc
ENCODING -1
SWIDTH 516 0
DWIDTH 5 0
BBX 5 5 0 0
BITMAP
7D00
0700
2F40
0700
7D00
ENDCHAR
STARTCHAR uni042E.sc
ENCODING -1
SWIDTH 849 0
DWIDTH 8 0
BBX 8 5 0 0
BITMAP
71F4
735C
7F0D
735C
71F4
ENDCHAR
STARTCHAR uni042F.sc
ENCODING -1
SWIDTH 561 0
DWIDTH 5 0
BBX 5 5 0 0
BITMAP
7F40
7340
3F40
3740
A340
ENDCHAR
STARTCHAR uni0400.sc
ENCODING -1
SWIDTH 499 0
DWIDTH 4 0
BBX 4 7 0 0
BITMAP
24
18
7F
70
7E
70
7F
ENDCHAR
STARTCHAR uni0401.sc
ENCODING -1
SWIDTH 499 0
DWIDTH 4 0
BBX 4 6 0 0
BITMAP
22
7F
70
7E
70
7F
ENDCHAR
STARTCHAR uni0402.sc
ENCODING -1
SWIDTH 617 0
DWIDTH 6 0
BBX 5 5 0 0
BITMAP
BF40
2800
2F80
29C0
2A80
ENDCHAR
STARTCHAR uni0403.sc
ENCODING -1
SWIDTH 472 0
DWIDTH 4 0
BBX 4 7 0 0
BITMAP
06
09
7F
70
70
70
70
ENDCHAR
STARTCHAR uni0404.sc
ENCODING -1
SWIDTH 515 0
DWIDTH 5 0
BBX 5 5 0 0
BITMAP
2F00
7000
BD00
7100
2F40
ENDCHAR
STARTCHAR uni0405.sc
ENCODING -1
SWIDTH 504 0
DWIDTH 5 0
BBX 5 5 0 0
BITMAP
2E00
7500
2E00
1740
7E00
ENDCHAR
STARTCHAR uni0406.sc
ENCODING -1
SWIDTH 301 0
DWIDTH 3 0
BBX 2 5 0 0
BITMAP
70
70
70
70
70
ENDCHAR
STARTCHAR uni0407.sc
ENCODING -1
SWIDTH 301 0
DWIDTH 3 0
BBX 3 6 0 0
BITMAP
88
70
70
70
70
70
ENDCHAR
STARTCHAR uni0407.sca
ENCODING -1
SWIDTH 301 0
DWIDTH 3 0
BBX 3 6 0 0
BITMAP
94
70
70
70
70
70
ENDCHAR
STARTCHAR uni0408.sc
ENCODING -1
SWIDTH 470 0
DWIDTH 4 0
BBX 4 5 0 0
BITMAP
0A
0A
0A
0A
7C
ENDCHAR
STARTCHAR uni0409.sc
ENCODING -1
SWIDTH 785 0
DWIDTH 7 0
BBX 7 5 0 0
BITMAP
2F40
2740
37F4
7368
D3F4
ENDCHAR
STARTCHAR uni040A.sc
ENCODING -1
SWIDTH 821 0
DWIDTH 7 0
BBX 7 5 0 0
BITMAP
7280
7280
7FF8
729C
72F8
ENDCHAR
STARTCHAR uni040B.sc
ENCODING -1
SWIDTH 639 0
DWIDTH 6 0
BBX 6 5 0 0
BITMAP
BF40
2800
2F80
29C0
28D0
ENDCHAR
STARTCHAR uni040C.sc
ENCODING -1
SWIDTH 567 0
DWIDTH 5 0
BBX 5 7 0 0
BITMAP
0200
0900
7280
7700
7E00
7700
7280
ENDCHAR
STARTCHAR uni040D.sc
ENCODING -1
SWIDTH 606 0
DWIDTH 5 0
BBX 5 7 0 0
BITMAP
1800
0900
7280
7780
7E80
7980
7580
ENDCHAR
STARTCHAR uni040E.sc
ENCODING -1
SWIDTH 487 0
DWIDTH 4 0
BBX 5 7 0 0
BITMAP
7600
2D00
A340
7700
2D00
1C00
7400
ENDCHAR
STARTCHAR uni040F.sc
ENCODING -1
SWIDTH 603 0
DWIDTH 5 0
BBX 5 6 0 -1
BITMAP
7280
7280
7280
7680
7F80
0D00
ENDCHAR
STARTCHAR uni0462.sc
ENCODING -1
SWIDTH 565 0
DWIDTH 5 0
BBX 5 6 0 0
BITMAP
3400
BF00
3400
3F40
3680
3F40
ENDCHAR
STARTCHAR uni0472.sc
ENCODING -1
SWIDTH 616 0
DWIDTH 6 0
BBX 5 5 0 0
BITMAP
2F40
72C0
BFC0
71C0
2F40
ENDCHAR
STARTCHAR uni0474.sc
ENCODING -1
SWIDTH 505 0
DWIDTH 5 0
BBX 5 5 0 0
BITMAP
D280
A700
7600
3D00
2D00
ENDCHAR
STARTCHAR uni0490.sc
ENCODING -1
SWIDTH 472 0
DWIDTH 4 0
BBX 4 7 0 0
BITMAP
03
07
7F
70
70
70
70
ENDCHAR
STARTCHAR uni0492.sc
ENCODING -1
SWIDTH 497 0
DWIDTH 4 0
BBX 5 5 0 0
BITMAP
3F40
3400
BD00
3400
3400
ENDCHAR
STARTCHAR uni0496.sc
ENCODING -1
SWIDTH 813 0
DWIDTH 7 0
BBX 8 6 0 -1
BITMAP
A728
3760
2FE0
3770
A72D
000C
ENDCHAR
STARTCHAR uni0498.sc
ENCODING -1
SWIDTH 500 0
DWIDTH 5 0
BBX 4 6 0 -1
BITMAP
7E
17
2E
17
7E
1C
ENDCHAR
STARTCHAR uni049A.sc
ENCODING -1
SWIDTH 612 0
DWIDTH 6 0
BBX 6 6 0 -1
BITMAP
7280
7700
7E00
7700
72D0
00D0
ENDCHAR
STARTCHAR uni04A0.sc
ENCODING -1
SWIDTH 674 0
DWIDTH 6 0
BBX 6 5 0 0
BITMAP
BCA0
1D80
1F80
1DC0
1CA0
ENDCHAR
STARTCHAR uni04A2.sc
ENCODING -1
SWIDTH 636 0
DWIDTH 6 0
BBX 6 6 0 -1
BITMAP
71C0
71C0
7FC0
71C0
71E0
00A0
ENDCHAR
STARTCHAR uni04AA.sc
ENCODING -1
SWIDTH 520 0
DWIDTH 5 0
BBX 5 6 0 -1
BITMAP
2F00
7000
A000
7100
2F40
0D00
ENDCHAR
STARTCHAR uni04AE.sc
ENCODING -1
SWIDTH 467 0
DWIDTH 4 0
BBX 4 5 0 0
BITMAP
E7
7A
3C
28
28
ENDCHAR
STARTCHAR uni04B0.sc
ENCODING -1
SWIDTH 467 0
DWIDTH 4 0
BBX 4 5 0 0
BITMAP
E7
7A
3C
BE
28
ENDCHAR
STARTCHAR uni04B2.sc
ENCODING -1
SWIDTH 547 0
DWIDTH 5 0
BBX 5 6 0 -1
BITMAP
B700
3A00
2D00
3A00
A780
0180
ENDCHAR
STARTCHAR uni04B6.sc
ENCODING -1
SWIDTH 591 0
DWIDTH 5 0
BBX 6 6 0 -1
BITMAP
7240
7340
2F40
0240
02D0
00C0
ENDCHAR
STARTCHAR uni04BA.sc
ENCODING -1
SWIDTH 576 0
DWIDTH 5 0
BBX 5 5 0 0
BITMAP
7000
7000
7F40
7280
7280
ENDCHAR
STARTCHAR uni04C0.sc
ENCODING -1
SWIDTH 301 0
DWIDTH 3 0
BBX 2 5 0 0
BITMAP
70
70
70
70
70
ENDCHAR
STARTCHAR uni04C1.sc
ENCODING -1
SWIDTH 766 0
DWIDTH 7 0
BBX 7 7 0 0
BITMAP
0DC0
0B80
A728
3760
2FE0
3770
A728
ENDCHAR
STARTCHAR uni04D0.sc
ENCODING -1
SWIDTH 503 0
DWIDTH 5 0
BBX 5 7 0 0
BITMAP
7600
2D00
2D00
3A00
7600
BF00
D340
ENDCHAR
STARTCHAR uni04D4.sc
ENCODING -1
SWIDTH 741 0
DWIDTH 7 0
BBX 7 5 0 0
BITMAP
0FF0
2B40
37E0
7F40
D3F4
ENDCHAR
STARTCHAR uni04D6.sc
ENCODING -1
SWIDTH 499 0
DWIDTH 4 0
BBX 4 7 0 0
BITMAP
37
2D
7F
70
7E
70
7F
ENDCHAR
STARTCHAR uni04D8.sc
ENCODING -1
SWIDTH 604 0
DWIDTH 5 0
BBX 5 5 0 0
BITMAP
2E40
1280
BFC0
7280
2F40
ENDCHAR
STARTCHAR uni04E2.sc
ENCODING -1
SWIDTH 606 0
DWIDTH 5 0
BBX 5 6 0 0
BITMAP
2F00
7280
7780
7E80
7980
7580
ENDCHAR
STARTCHAR uni04E6.sc
ENCODING -1
SWIDTH 616 0
DWIDTH 6 0
BBX 5 6 0 0
BITMAP
2640
2F40
72C0
A1C0
72C0
2F40
ENDCHAR
STARTCHAR uni04E8.sc
ENCODING -1
SWIDTH 616 0
DWIDTH 6 0
BBX 5 5 0 0
BITMAP
2F40
72C0
BFC0
71C0
2F40
ENDCHAR
STARTCHAR uni04EE.sc
ENCODING -1
SWIDTH 487 0
DWIDTH 4 0
BBX 5 6 0 0
BITMAP
3E00
A340
7700
2D00
1C00
7400
ENDCHAR
STARTCHAR uni04F2.sc
ENCODING -1
SWIDTH 487 0
DWIDTH 4 0
BBX 5 7 0 0
BITMAP
1A40
2600
A340
7700
2D00
1C00
7400
ENDCHAR
STARTCHAR ampersand.sc
ENCODING -1
SWIDTH 596 0
DWIDTH 5 0
BBX 5 5 0 0
BITMAP
2D00
3900
7980
AB80
7EC0
ENDCHAR
STARTCHAR zero.sc
ENCODING -1
SWIDTH 550 0
DWIDTH 5 0
BBX 5 5 0 0
BITMAP
2E00
7340
6340
7340
2E00
ENDCHAR
STARTCHAR one.sc
ENCODING -1
SWIDTH 400 0
DWIDTH 4 0
BBX 3 5 0 0
BITMAP
28
B8
28
28
28
ENDCHAR
STARTCHAR two.sc
ENCODING -1
SWIDTH 482 0
DWIDTH 4 0
BBX 4 5 0 0
BITMAP
7D
0A
0D
78
BF
ENDCHAR
STARTCHAR three.sc
ENCODING -1
SWIDTH 495 0
DWIDTH 4 0
BBX 4 5 0 0
BITMAP
7D
0A
2D
4B
7E
ENDCHAR
STARTCHAR four.sc
ENCODING -1
SWIDTH 523 0
DWIDTH 5 0
BBX 5 5 0 0
BITMAP
0E00
2A00
7600
BF40
0600
ENDCHAR
STARTCHAR five.sc
ENCODING -1
SWIDTH 494 0
DWIDTH 4 0
BBX 4 5 0 0
BITMAP
7E
60
7E
5B
7D
ENDCHAR
STARTCHAR six.sc
ENCODING -1
SWIDTH 519 0
DWIDTH 5 0
BBX 5 5 0 0
BITMAP
2E00
7000
7E00
7340
2E00
ENDCHAR
STARTCHAR seven.sc
ENCODING -1
SWIDTH 464 0
DWIDTH 4 0
BBX 4 5 0 0
BITMAP
BE
0D
18
28
24
ENDCHAR
STARTCHAR eight.sc
ENCODING -1
SWIDTH 511 0
DWIDTH 5 0
BBX 4 5 0 0
BITMAP
2E
77
3E
67
7E
ENDCHAR
STARTCHAR nine.sc
ENCODING -1
SWIDTH 513 0
DWIDTH 5 0
BBX 4 5 0 0
BITMAP
7D
A7
7F
07
7D
ENDCHAR
STARTCHAR exclam.sc
ENCODING -1
SWIDTH 340 0
DWIDTH 3 0
BBX 1 5 1 0
BITMAP
C0
C0
00
C0
C0
ENDCHAR
STARTCHAR exclamdown.sc
ENCODING -1
SWIDTH 340 0
DWIDTH 3 0
BBX 1 5 1 0
BITMAP
C0
C0
00
C0
C0
ENDCHAR
STARTCHAR question.sc
ENCODING -1
SWIDTH 463 0
DWIDTH 4 0
BBX 4 5 0 0
BITMAP
7D
19
00
28
28
ENDCHAR
STARTCHAR quotesingle.sc
ENCODING -1
SWIDTH 300 0
DWIDTH 3 0
BBX 2 3 0 2
BITMAP
70
70
20
ENDCHAR
STARTCHAR quotedbl.sc
ENCODING -1
SWIDTH 536 0
DWIDTH 5 0
BBX 4 3 0 2
BITMAP
77
73
23
ENDCHAR
STARTCHAR quoteleft.sc
ENCODING -1
SWIDTH 300 0
DWIDTH 3 0
BBX 2 3 0 2
BITMAP
10
50
60
ENDCHAR
STARTCHAR quoteright.sc
ENCODING -1
SWIDTH 300 0
DWIDTH 3 0
BBX 2 3 0 2
BITMAP
70
20
10
ENDCHAR
STARTCHAR quotedblleft.sc
ENCODING -1
SWIDTH 471 0
DWIDTH 4 0
BBX 4 3 0 2
BITMAP
11
56
67
ENDCHAR
STARTCHAR quotedblright.sc
ENCODING -1
SWIDTH 471 0
DWIDTH 4 0
BBX 5 3 0 2
BITMAP
7740
2240
1100
ENDCHAR
STARTCHAR hyphen.sc
ENCODING -1
SWIDTH 332 0
DWIDTH 3 0
BBX 3 1 0 2
BITMAP
B8
ENDCHAR
STARTCHAR endash.sc
ENCODING -1
SWIDTH 418 0
DWIDTH 4 0
BBX 4 1 0 2
BITMAP
BD
ENDCHAR
STARTCHAR emdash.sc
ENCODING -1
SWIDTH 696 0
DWIDTH 6 0
BBX 6 1 0 2
BITMAP
BFF0
ENDCHAR
STARTCHAR parenleft.sc
ENCODING -1
SWIDTH 344 0
DWIDTH 3 0
BBX 3 7 0 -1
BITMAP
14
30
70
60
70
30
14
ENDCHAR
STARTCHAR parenright.sc
ENCODING -1
SWIDTH 344 0
DWIDTH 3 0
BBX 3 7 0 -1
BITMAP
60
30
24
24
24
30
50
ENDCHAR
STARTCHAR bracketleft.sc
ENCODING -1
SWIDTH 344 0
DWIDTH 3 0
BBX 3 7 0 -1
BITMAP
78
60
60
60
60
60
78
ENDCHAR
STARTCHAR bracketright.sc
ENCODING -1
SWIDTH 344 0
DWIDTH 3 0
BBX 3 7 0 -1
BITMAP
B4
24
24
24
24
24
B4
ENDCHAR
STARTCHAR braceleft.sc
ENCODING -1
SWIDTH 344 0
DWIDTH 3 0
BBX 3 7 0 -1
BITMAP
28
30
30
A0
30
30
28
ENDCHAR
STARTCHAR braceright.sc
ENCODING -1
SWIDTH 344 0
DWIDTH 3 0
BBX 3 7 0 -1
BITMAP
B0
30
30
28
30
30
B0
ENDCHAR
STARTCHAR period.sups
ENCODING -1
SWIDTH 208 0
DWIDTH 2 0
BBX 2 1 0 3
BITMAP
50
ENDCHAR
STARTCHAR comma.sups
ENCODING -1
SWIDTH 208 0
DWIDTH 2 0
BBX 2 2 0 2
BITMAP
50
50
ENDCHAR
STARTCHAR period.subs
ENCODING -1
SWIDTH 208 0
DWIDTH 2 0
BBX 2 1 0 -2
BITMAP
50
ENDCHAR
STARTCHAR comma.subs
ENCODING -1
SWIDTH 208 0
DWIDTH 2 0
BBX 2 2 0 -3
BITMAP
50
50
ENDCHAR
STARTCHAR zero.dnom
ENCODING -1
SWIDTH 376 0
DWIDTH 3 0
BBX 3 4 0 0
BITMAP
78
9C
9C
78
ENDCHAR
STARTCHAR one.dnom
ENCODING -1
SWIDTH 376 0
DWIDTH 3 0
BBX 3 4 0 0
BITMAP
74
24
24
24
ENDCHAR
STARTCHAR two.dnom
ENCODING -1
SWIDTH 376 0
DWIDTH 3 0
BBX 3 4 0 0
BITMAP
78
18
24
BC
ENDCHAR
STARTCHAR three.dnom
ENCODING -1
SWIDTH 376 0
DWIDTH 3 0
BBX 3 4 0 0
BITMAP
78
1C
68
78
ENDCHAR
STARTCHAR four.dnom
ENCODING -1
SWIDTH 376 0
DWIDTH 3 0
BBX 4 4 0 0
BITMAP
28
68
BD
08
ENDCHAR
STARTCHAR five.dnom
ENCODING -1
SWIDTH 376 0
DWIDTH 3 0
BBX 3 4 0 0
BITMAP
7C
60
B8
78
ENDCHAR
STARTCHAR six.dnom
ENCODING -1
SWIDTH 376 0
DWIDTH 3 0
BBX 3 4 0 0
BITMAP
78
90
B8
78
ENDCHAR
STARTCHAR seven.dnom
ENCODING -1
SWIDTH 376 0
DWIDTH 3 0
BBX 3 4 0 0
BITMAP
BC
18
24
30
ENDCHAR
STARTCHAR eight.dnom
ENCODING -1
SWIDTH 376 0
DWIDTH 3 0
BBX 3 4 0 0
BITMAP
78
6C
78
78
ENDCHAR
STARTCHAR nine.dnom
ENCODING -1
SWIDTH 376 0
DWIDTH 3 0
BBX 3 4 0 0
BITMAP
78
9C
7C
74
ENDCHAR
STARTCHAR parenleft.dnom
ENCODING -1
SWIDTH 268 0
DWIDTH 2 0
BBX 2 5 0 -1
BITMAP
20
60
60
60
20
ENDCHAR
STARTCHAR parenright.dnom
ENCODING -1
SWIDTH 268 0
DWIDTH 2 0
BBX 2 5 0 -1
BITMAP
50
60
20
60
50
ENDCHAR
STARTCHAR period.dnom
ENCODING -1
SWIDTH 208 0
DWIDTH 2 0
BBX 2 1 0 0
BITMAP
50
ENDCHAR
STARTCHAR comma.dnom
ENCODING -1
SWIDTH 208 0
DWIDTH 2 0
BBX 2 2 0 -1
BITMAP
50
50
ENDCHAR
STARTCHAR zero.numr
ENCODING -1
SWIDTH 376 0
DWIDTH 3 0
BBX 3 4 0 2
BITMAP
78
9C
9C
78
ENDCHAR
STARTCHAR one.numr
ENCODING -1
SWIDTH 376 0
DWIDTH 3 0
BBX 3 4 0 2
BITMAP
74
24
24
24
ENDCHAR
STARTCHAR two.numr
ENCODING -1
SWIDTH 376 0
DWIDTH 3 0
BBX 3 4 0 2
BITMAP
78
18
24
BC
ENDCHAR
STARTCHAR three.numr
ENCODING -1
SWIDTH 376 0
DWIDTH 3 0
BBX 3 4 0 2
BITMAP
78
1C
68
78
ENDCHAR
STARTCHAR four.numr
ENCODING -1
SWIDTH 376 0
DWIDTH 3 0
BBX 4 4 0 2
BITMAP
28
68
BD
08
ENDCHAR
STARTCHAR five.numr
ENCODING -1
SWIDTH 376 0
DWIDTH 3 0
BBX 3 4 0 2
BITMAP
7C
60
B8
78
ENDCHAR
STARTCHAR six.numr
ENCODING -1
SWIDTH 376 0
DWIDTH 3 0
BBX 3 4 0 2
BITMAP
78
90
B8
78
ENDCHAR
STARTCHAR seven.numr
ENCODING -1
SWIDTH 376 0
DWIDTH 3 0
BBX 3 4 0 2
BITMAP
BC
18
24
30
ENDCHAR
STARTCHAR eight.numr
ENCODING -1
SWIDTH 376 0
DWIDTH 3 0
BBX 3 4 0 2
BITMAP
78
6C
78
78
ENDCHAR
STARTCHAR nine.numr
ENCODING -1
SWIDTH 376 0
DWIDTH 3 0
BBX 3 4 0 2
BITMAP
78
9C
7C
74
ENDCHAR
STARTCHAR parenleft.numr
ENCODING -1
SWIDTH 268 0
DWIDTH 2 0
BBX 2 5 0 1
BITMAP
20
60
60
60
20
ENDCHAR
STARTCHAR parenright.numr
ENCODING -1
SWIDTH 268 0
DWIDTH 2 0
BBX 2 5 0 1
BITMAP
50
60
20
60
50
ENDCHAR
STARTCHAR period.numr
ENCODING -1
SWIDTH 208 0
DWIDTH 2 0
BBX 2 1 0 2
BITMAP
50
ENDCHAR
ENDFONT
